<svg width="40" height="40" viewBox="0 0 40 40" fill="none" xmlns="http://www.w3.org/2000/svg">
<path d="M4.58323 7.50013C4.41759 7.49778 4.25314 7.52838 4.09943 7.59015C3.94572 7.65192 3.80582 7.74362 3.68786 7.85992C3.56989 7.97623 3.47622 8.11482 3.41229 8.26764C3.34835 8.42046 3.31543 8.58447 3.31543 8.75012C3.31543 8.91578 3.34835 9.07979 3.41229 9.23261C3.47622 9.38543 3.56989 9.52402 3.68786 9.64032C3.80582 9.75663 3.94572 9.84833 4.09943 9.9101C4.25314 9.97187 4.41759 10.0025 4.58323 10.0001H35.4166C35.5822 10.0025 35.7467 9.97187 35.9004 9.9101C36.0541 9.84833 36.194 9.75663 36.3119 9.64032C36.4299 9.52402 36.5236 9.38543 36.5875 9.23261C36.6514 9.07979 36.6844 8.91578 36.6844 8.75012C36.6844 8.58447 36.6514 8.42046 36.5875 8.26764C36.5236 8.11482 36.4299 7.97623 36.3119 7.85992C36.194 7.74362 36.0541 7.65192 35.9004 7.59015C35.7467 7.52838 35.5822 7.49778 35.4166 7.50013H4.58323ZM4.58323 18.7501C4.41759 18.7478 4.25314 18.7784 4.09943 18.8402C3.94572 18.9019 3.80582 18.9936 3.68786 19.1099C3.56989 19.2262 3.47622 19.3648 3.41229 19.5176C3.34835 19.6705 3.31543 19.8345 3.31543 20.0001C3.31543 20.1658 3.34835 20.3298 3.41229 20.4826C3.47622 20.6354 3.56989 20.774 3.68786 20.8903C3.80582 21.0066 3.94572 21.0983 4.09943 21.1601C4.25314 21.2219 4.41759 21.2525 4.58323 21.2501H35.4166C35.5822 21.2525 35.7467 21.2219 35.9004 21.1601C36.0541 21.0983 36.194 21.0066 36.3119 20.8903C36.4299 20.774 36.5236 20.6354 36.5875 20.4826C36.6514 20.3298 36.6844 20.1658 36.6844 20.0001C36.6844 19.8345 36.6514 19.6705 36.5875 19.5176C36.5236 19.3648 36.4299 19.2262 36.3119 19.1099C36.194 18.9936 36.0541 18.9019 35.9004 18.8402C35.7467 18.7784 35.5822 18.7478 35.4166 18.7501H4.58323ZM4.58323 30.0001C4.41759 29.9978 4.25314 30.0284 4.09943 30.0902C3.94572 30.1519 3.80582 30.2436 3.68786 30.3599C3.56989 30.4762 3.47622 30.6148 3.41229 30.7676C3.34835 30.9205 3.31543 31.0845 3.31543 31.2501C3.31543 31.4158 3.34835 31.5798 3.41229 31.7326C3.47622 31.8854 3.56989 32.024 3.68786 32.1403C3.80582 32.2566 3.94572 32.3483 4.09943 32.4101C4.25314 32.4719 4.41759 32.5025 4.58323 32.5001H35.4166C35.5822 32.5025 35.7467 32.4719 35.9004 32.4101C36.0541 32.3483 36.194 32.2566 36.3119 32.1403C36.4299 32.024 36.5236 31.8854 36.5875 31.7326C36.6514 31.5798 36.6844 31.4158 36.6844 31.2501C36.6844 31.0845 36.6514 30.9205 36.5875 30.7676C36.5236 30.6148 36.4299 30.4762 36.3119 30.3599C36.194 30.2436 36.0541 30.1519 35.9004 30.0902C35.7467 30.0284 35.5822 29.9978 35.4166 30.0001H4.58323Z" fill="#5F3C07"/>
</svg>
