<svg width="16" height="18" viewBox="0 0 16 18" fill="none" xmlns="http://www.w3.org/2000/svg">
<path d="M7.99996 0.666992C4.09548 0.666992 0.916626 3.84585 0.916626 7.75033C0.916626 9.50316 1.55967 11.1107 2.61584 12.3467L2.6191 12.3499L2.62154 12.3532C2.62154 12.3532 5.63485 15.7916 6.70764 16.8153C7.42603 17.5002 8.57308 17.5002 9.29146 16.8153C10.5143 15.6489 13.3792 12.3516 13.3792 12.3516L13.3808 12.3491L13.3833 12.3467C14.4404 11.1107 15.0833 9.50316 15.0833 7.75033C15.0833 3.84585 11.9044 0.666992 7.99996 0.666992ZM7.99996 1.91699C11.2288 1.91699 13.8333 4.52147 13.8333 7.75033C13.8333 9.19833 13.3056 10.5139 12.4327 11.5345C12.4271 11.541 9.49581 14.8935 8.42883 15.9111C8.18139 16.1471 7.81772 16.1471 7.57027 15.9111C6.67853 15.0602 3.57542 11.5448 3.56637 11.5345L3.56555 11.5337C2.69385 10.5132 2.16663 9.19793 2.16663 7.75033C2.16663 4.52147 4.7711 1.91699 7.99996 1.91699ZM7.99996 5.25033C7.21871 5.25033 6.55363 5.5658 6.12659 6.04622C5.69954 6.52665 5.49996 7.14269 5.49996 7.75033C5.49996 8.35797 5.69954 8.974 6.12659 9.45443C6.55363 9.93485 7.21871 10.2503 7.99996 10.2503C8.78121 10.2503 9.44629 9.93485 9.87333 9.45443C10.3004 8.974 10.5 8.35797 10.5 7.75033C10.5 7.14269 10.3004 6.52665 9.87333 6.04622C9.44629 5.5658 8.78121 5.25033 7.99996 5.25033ZM7.99996 6.50033C8.46871 6.50033 8.74113 6.6536 8.93909 6.8763C9.13704 7.099 9.24996 7.42047 9.24996 7.75033C9.24996 8.08019 9.13704 8.40165 8.93909 8.62435C8.74113 8.84705 8.46871 9.00033 7.99996 9.00033C7.53121 9.00033 7.25879 8.84705 7.06083 8.62435C6.86288 8.40165 6.74996 8.08019 6.74996 7.75033C6.74996 7.42047 6.86288 7.099 7.06083 6.8763C7.25879 6.6536 7.53121 6.50033 7.99996 6.50033Z" fill="#333333" fill-opacity="0.8"/>
</svg>
