<svg width="18" height="14" viewBox="0 0 18 14" fill="none" xmlns="http://www.w3.org/2000/svg">
<path d="M3.37496 0.333008C1.88665 0.333008 0.666626 1.55303 0.666626 3.04134V10.958C0.666626 12.4463 1.88665 13.6663 3.37496 13.6663H14.625C16.1133 13.6663 17.3333 12.4463 17.3333 10.958V3.04134C17.3333 1.55303 16.1133 0.333008 14.625 0.333008H3.37496ZM3.37496 1.58301H14.625C15.4375 1.58301 16.0833 2.22882 16.0833 3.04134V3.50195L8.99996 7.33089L1.91663 3.50195V3.04134C1.91663 2.22882 2.56243 1.58301 3.37496 1.58301ZM1.91663 4.92285L8.70292 8.59147C8.79417 8.64075 8.89625 8.66656 8.99996 8.66656C9.10367 8.66656 9.20575 8.64075 9.297 8.59147L16.0833 4.92285V10.958C16.0833 11.7705 15.4375 12.4163 14.625 12.4163H3.37496C2.56243 12.4163 1.91663 11.7705 1.91663 10.958V4.92285Z" fill="#333333" fill-opacity="0.8"/>
</svg>
