<svg width="20" height="19" viewBox="0 0 20 19" fill="none" xmlns="http://www.w3.org/2000/svg">
<path d="M9.98287 0.8332C9.91092 0.83538 9.83989 0.849972 9.77291 0.876331L1.23124 4.20966C1.15177 4.2372 1.07866 4.28049 1.01631 4.33695C0.953962 4.3934 0.903647 4.46186 0.868382 4.53822C0.833116 4.61459 0.813626 4.69728 0.811078 4.78135C0.80853 4.86543 0.822976 4.94915 0.853553 5.02751C0.884129 5.10587 0.930205 5.17725 0.989022 5.23738C1.04784 5.29751 1.11819 5.34514 1.19585 5.37744C1.27352 5.40974 1.3569 5.42603 1.44101 5.42533C1.52512 5.42464 1.60822 5.40698 1.68535 5.3734L9.99996 2.12877L18.3146 5.3734C18.3917 5.40697 18.4748 5.42464 18.5589 5.42533C18.643 5.42603 18.7264 5.40974 18.8041 5.37744C18.8817 5.34514 18.9521 5.29751 19.0109 5.23738C19.0697 5.17725 19.1158 5.10587 19.1464 5.02751C19.1769 4.94915 19.1914 4.86543 19.1888 4.78135C19.1863 4.69728 19.1668 4.61459 19.1315 4.53822C19.0963 4.46186 19.046 4.3934 18.9836 4.33695C18.9213 4.28049 18.8482 4.2372 18.7687 4.20966L10.227 0.876331C10.1493 0.845797 10.0663 0.831132 9.98287 0.8332V0.8332ZM3.9583 6.24987C3.1604 6.24987 2.49996 6.9103 2.49996 7.7082V16.0415C2.49996 16.8394 3.1604 17.4999 3.9583 17.4999H8.56849C8.85503 17.9964 9.38471 18.3332 9.99996 18.3332C10.6152 18.3332 11.1449 17.9964 11.4314 17.4999H16.0416C16.8395 17.4999 17.5 16.8394 17.5 16.0415V7.7082C17.5 6.9103 16.8395 6.24987 16.0416 6.24987H11.6666C10.9407 6.24987 10.3184 6.61558 9.89742 7.1483C9.40085 6.60515 8.70398 6.24987 7.91663 6.24987H3.9583ZM3.9583 7.49987H7.91663C8.72155 7.49987 9.37496 8.15328 9.37496 8.9582V16.2499H3.9583C3.83536 16.2499 3.74996 16.1645 3.74996 16.0415V7.7082C3.74996 7.58526 3.83536 7.49987 3.9583 7.49987ZM11.6666 7.49987H16.0416C16.1646 7.49987 16.25 7.58526 16.25 7.7082V16.0415C16.25 16.1645 16.1646 16.2499 16.0416 16.2499H10.625V8.9582V8.54153C10.625 7.95894 11.084 7.49987 11.6666 7.49987Z" fill="#333333" fill-opacity="0.8"/>
</svg>
