<svg width="20" height="15" viewBox="0 0 20 15" fill="none" xmlns="http://www.w3.org/2000/svg">
<path d="M3.05941 0C3.05887 0 3.05827 0 3.05773 0C2.86857 0 2.69066 0.0723874 2.55631 0.203941C2.42049 0.336949 2.34567 0.51405 2.34567 0.702588V11.2378C2.34567 11.6241 2.66709 11.9392 3.06224 11.9402C4.7281 11.9441 7.51909 12.2849 9.44448 14.2629V3.23754C9.44448 3.10658 9.41041 2.98355 9.3461 2.88175C7.76583 0.383422 4.72905 0.00383422 3.05941 0Z" fill="#50A8FF"/>
<path d="M17.6544 11.2378V0.702588C17.6544 0.51405 17.5796 0.336949 17.4438 0.203941C17.3094 0.0723874 17.1314 0 16.9424 0C16.9418 0 16.9412 0 16.9407 0C15.2711 0.00390033 12.2343 0.383488 10.654 2.88181C10.5897 2.98362 10.5557 3.10665 10.5557 3.2376V14.2629C12.4811 12.2849 15.272 11.9441 16.9379 11.9402C17.333 11.9392 17.6544 11.6241 17.6544 11.2378Z" fill="#50A8FF"/>
<path d="M19.2845 2.42969H18.7655V11.2379C18.7655 12.2243 17.9469 13.0286 16.9405 13.031C15.5275 13.0344 13.1977 13.3056 11.5477 14.8387C14.4014 14.1528 17.4098 14.5986 19.1243 14.9822C19.3383 15.0301 19.5595 14.9806 19.7311 14.8464C19.902 14.7125 20 14.5124 20 14.2977V3.13214C20.0001 2.74482 19.679 2.42969 19.2845 2.42969Z" fill="#50A8FF"/>
<path d="M1.23448 11.2379V2.42969H0.715558C0.321079 2.42969 0 2.74482 0 3.13214V14.2975C0 14.5123 0.0980475 14.7123 0.268957 14.8462C0.440338 14.9803 0.661349 15.03 0.875761 14.982C2.59024 14.5984 5.59867 14.1526 8.45228 14.8385C6.80231 13.3055 4.47247 13.0343 3.05947 13.031C2.05321 13.0286 1.23448 12.2243 1.23448 11.2379Z" fill="#50A8FF"/>
</svg>
