<svg width="20" height="20" viewBox="0 0 20 20" fill="none" xmlns="http://www.w3.org/2000/svg">
<path d="M18.8153 5.41291C18.8115 5.76103 18.7627 6.09893 18.6748 6.42119L13.5292 1.33793C13.8662 1.24212 14.2209 1.18877 14.5871 1.1847L14.574 0C11.7123 0.0317521 9.39227 2.38097 9.40234 5.23539L9.40692 9.40688L5.23681 9.4023C5.23053 9.40226 5.22464 9.40226 5.21836 9.40226C2.37102 9.40226 0.0316336 11.7186 0 14.574L1.1847 14.5871C1.18857 14.2385 1.23695 13.9004 1.32423 13.5779L6.46981 18.6611C6.13294 18.7575 5.77861 18.8113 5.41287 18.8153L5.42602 20C8.27431 19.9684 10.5944 17.6204 10.5978 14.7647L10.593 10.5931L14.766 10.5978C17.6204 10.5944 19.9684 8.27435 20 5.42606L18.8153 5.41291ZM10.5917 9.40822L10.5891 7.06516L12.9637 9.41091L10.5917 9.40822ZM5.21983 10.587C5.22453 10.587 5.22938 10.5871 5.23408 10.5871L5.34869 10.5872L9.41284 14.6021L9.41304 14.7647C9.41245 15.2575 9.32248 15.7307 9.15886 16.169L3.77957 10.8549C4.22753 10.682 4.71321 10.587 5.21983 10.587ZM7.61454 18.1265L1.84233 12.4244C2.0802 12.0606 2.37501 11.7374 2.71358 11.4672L8.55968 17.2423C8.29374 17.5848 7.97432 17.8837 7.61454 18.1265ZM9.41095 12.9348L7.03645 10.5891L9.40826 10.5917L9.41095 12.9348ZM14.6515 9.41288L10.5873 5.39798L10.5871 5.23266C10.5854 4.7392 10.6739 4.26541 10.8368 3.82672L16.2164 9.14109C15.7653 9.31597 15.2761 9.41237 14.766 9.413L14.6515 9.41288ZM17.282 8.52837L11.4357 2.75292C11.7017 2.41103 12.0217 2.11266 12.3823 1.87037L18.1546 7.57268C17.9162 7.93558 17.621 8.25831 17.282 8.52837Z" fill="#A772FF"/>
</svg>
