<svg width="20" height="20" viewBox="0 0 20 20" fill="none" xmlns="http://www.w3.org/2000/svg">
<path d="M18.3059 4.43599L18.0067 4.53085L16.4133 4.67282L15.9632 5.39156L15.6366 5.28779L14.3684 4.14442L14.1845 3.54982L13.9381 2.91575L13.141 2.20083L12.2008 2.01685L12.1791 2.4472L13.1003 3.3461L13.551 3.87704L13.0443 4.14188L12.6317 4.02028L12.0136 3.76245L12.0346 3.26398L11.2235 2.93039L10.9543 4.10241L10.1368 4.28766L10.2177 4.94147L11.2827 5.14646L11.4667 4.10177L12.3459 4.23164L12.7546 4.47101H13.4103L13.8591 5.36991L15.049 6.57694L14.9618 7.04613L14.0024 6.9239L12.3446 7.76105L11.151 9.19281L10.9956 9.82688H10.5672L9.76887 9.45891L8.99347 9.82688L9.18636 10.6449L9.52377 10.256L10.1171 10.2375L10.0757 10.9722L10.5672 11.116L11.058 11.6673L11.8595 11.442L12.775 11.5865L13.8381 11.8723L14.3691 11.9347L15.2693 12.9565L17.0066 13.9783L15.883 16.1249L14.6969 16.6763L14.2468 17.903L12.5305 19.0489L12.3478 19.7097C16.7354 18.653 19.9993 14.7116 19.9993 9.9994C19.9981 7.94121 19.3742 6.02563 18.3059 4.43599Z" fill="#46D191"/>
<path d="M11.1504 15.2259L10.4221 13.8756L11.0905 12.4827L10.4221 12.2828L9.67149 11.5291L8.00864 11.156L7.4567 10.0012V10.6868H7.21351L5.78048 8.74386V7.14786L4.73006 5.43982L3.06212 5.73712H1.93849L1.37317 5.36661L2.09446 4.79492L1.37508 4.96108C0.508008 6.44185 0.00253296 8.16009 0.00253296 10.0005C0.00253296 15.5219 4.4786 19.9999 10.0006 19.9999C10.4259 19.9999 10.8429 19.9624 11.2554 19.9127L11.151 18.7012C11.151 18.7012 11.61 16.9021 11.61 16.841C11.6094 16.7793 11.1504 15.2259 11.1504 15.2259Z" fill="#46D191"/>
<path d="M3.71785 3.22447L5.49401 2.97683L6.3127 2.52801L7.23389 2.79348L8.70575 2.71199L9.20995 1.9194L9.94525 2.04036L11.731 1.87293L12.2231 1.33053L12.917 0.867074L13.8986 1.01477L14.2564 0.960657C12.9635 0.35205 11.5247 0 10 0C6.89648 0 4.12146 1.41457 2.28928 3.63573H2.29437L3.71785 3.22447ZM10.4227 0.994398L11.4438 0.432264L12.0996 0.811052L11.1504 1.53361L10.2438 1.62465L9.83575 1.35982L10.4227 0.994398ZM7.39814 1.07652L7.84886 1.26432L8.43901 1.07652L8.7605 1.63356L7.39814 1.99134L6.74306 1.6081C6.74242 1.6081 7.3835 1.19557 7.39814 1.07652Z" fill="#46D191"/>
</svg>
