<svg width="121" height="126" viewBox="0 0 121 126" fill="none" xmlns="http://www.w3.org/2000/svg">
<g clip-path="url(#clip0_337_2)">
<path d="M73.3557 56.51C73.5473 56.024 73.6934 55.6755 73.5732 55.3004C73.4354 55.255 73.224 55.1549 73.0862 55.1095C72.1681 55.1123 71.793 55.6904 71.4366 56.3967C70.9962 56.5263 70.5372 56.5277 70.0688 56.465C70.0046 56.4743 70.0046 56.4743 69.9403 56.4837C69.4264 56.5585 68.9124 56.6333 68.3985 56.7081C68.2058 56.7362 67.9394 56.7095 67.7467 56.7376C67.554 56.7656 67.3706 56.8578 67.0949 56.767C66.8193 56.6763 66.581 56.8418 66.2504 56.8245C65.8556 56.8165 65.4795 56.9367 65.0847 56.9288C64.7542 56.9115 64.378 57.0317 64.0475 57.0143C63.7169 56.997 63.405 57.1079 63.0745 57.0906C62.7439 57.0732 62.432 57.1841 62.1657 57.1574C61.8352 57.1401 61.5875 57.2416 61.3212 57.2149C60.6052 57.2537 59.8892 57.2925 59.1276 57.4688C58.7142 57.3327 58.3567 57.581 57.9712 57.6372C57.7142 57.6746 57.4479 57.6479 57.191 57.6853C56.934 57.7227 56.6957 57.8883 56.4107 57.7335L56.3465 57.7428C55.7227 57.9645 55.0616 57.9299 54.4285 58.0875C52.4649 58.5697 50.5656 59.0425 48.5284 59.47C48.5004 59.2777 48.4082 59.0948 48.3802 58.9026C48.3346 59.0401 48.3253 58.976 48.261 58.9853C47.7377 58.9961 47.316 59.2538 46.885 59.4474C46.7389 59.7959 46.6664 60.1991 46.2447 60.4569C45.5566 60.6879 44.8873 61.0471 44.1899 61.2141C43.5019 61.4451 42.8325 61.8043 42.1538 62.0995C41.4751 62.3946 40.7964 62.6897 40.1913 63.0396C39.5126 63.3347 38.9904 63.8034 38.2474 64.1079C38.3479 63.8969 38.4578 63.7501 38.5034 63.6126C38.4205 63.4937 38.3469 63.439 38.264 63.3202C38.1355 63.3389 37.9428 63.367 37.7594 63.4591C37.7044 63.5325 37.6589 63.6701 37.5584 63.881C37.5584 63.881 37.577 64.0092 37.5863 64.0733C37.4858 64.2842 37.4403 64.4217 37.404 64.6234C37.2206 64.7155 37.0372 64.8076 36.7895 64.9091C36.2487 65.2496 35.7078 65.5902 35.1669 65.9307C34.6809 66.1977 34.3421 66.5743 33.8562 66.8414C33.737 66.9242 33.5536 67.0163 33.4251 67.035C33.278 66.9255 33.1951 66.8067 33.0479 66.6973C32.9381 66.8441 32.8283 66.991 32.6542 67.1472C32.5246 66.708 32.3495 66.4063 32.4863 65.9937C32.3287 65.3622 32.5017 64.7481 32.4727 64.0979C32.4447 63.9056 32.4716 63.6399 32.5079 63.4383C32.5255 63.1085 32.6166 62.8335 32.6342 62.5037C32.5865 61.7254 32.6766 60.9924 32.831 60.25C32.8766 60.1125 32.9128 59.9109 32.8942 59.7827C32.7097 59.4169 32.9843 59.0497 32.9376 58.7293C32.891 58.4089 32.9728 58.0698 32.9904 57.74C33.0173 57.4743 32.98 57.218 32.9976 56.8882C33.0235 56.1646 32.7281 55.4877 32.8918 54.8094C32.8825 54.7454 32.8825 54.7454 32.8732 54.6813C32.7799 54.0404 32.6223 53.4089 32.6026 52.8228C32.5725 51.7147 32.1569 50.6627 31.9341 49.5826C31.7112 48.5025 31.4241 47.4318 31.2013 46.3517C31.164 46.0954 30.8697 45.8764 30.8873 45.5467C30.85 45.2903 30.8033 44.9699 30.7017 44.7229C30.3608 44.1836 30.3224 43.4693 29.9172 42.9393C29.8437 42.8846 29.8892 42.747 29.8799 42.683C29.741 42.1796 29.6022 41.6763 29.4084 41.2464C29.3068 40.9994 29.2602 40.679 29.1037 40.5055C28.8736 40.2772 28.9648 40.0021 28.799 39.7645C28.6239 39.4628 28.4394 39.097 28.2643 38.7953C28.172 38.6124 28.0891 38.4936 27.9969 38.3107C27.7938 37.8167 27.4072 37.4149 27.2041 36.9209C27.0103 36.491 26.6787 36.0158 26.4207 35.5952C26.1626 35.1747 25.8953 34.6901 25.7015 34.2602C25.6921 34.1961 25.6186 34.1414 25.6092 34.0773C25.1305 33.4926 24.716 32.8985 24.2279 32.2497C24.0714 32.0761 23.86 31.976 23.7678 31.7931C23.1419 31.0989 22.461 30.4782 21.7802 29.8574C21.403 29.5197 21.0807 29.1085 20.7035 28.7708C20.1885 28.3876 19.7927 27.9217 19.287 27.6027C18.9927 27.3838 18.6435 27.2383 18.4041 26.9459C18.3948 26.8818 18.3305 26.8912 18.3305 26.8912C17.7699 26.6456 17.3834 26.2437 16.8135 25.9341C16.6021 25.834 16.372 25.6057 16.2156 25.4321C15.9948 25.2679 15.8384 25.0944 15.627 24.9943C15.4062 24.8301 15.2498 24.6565 14.9741 24.5658C14.6249 24.4203 14.2664 24.2107 13.9534 23.8636C13.797 23.6901 13.6498 23.5806 13.4291 23.4164C13.2726 23.2429 13.0612 23.1428 12.9047 22.9692C12.9047 22.9692 12.8954 22.9051 12.8218 22.8504C12.8394 22.5206 12.9949 22.2362 13.2788 21.9331C13.8559 21.391 14.4973 20.8395 15.0837 20.3615C15.4961 20.0397 15.9085 19.7179 16.3945 19.4508C17.0545 19.0275 17.7146 18.6042 18.3746 18.1809C18.7963 17.9232 19.1994 17.5373 19.704 17.3984C19.7682 17.389 19.8232 17.3156 19.8781 17.2422C20.2915 17.3783 20.7132 17.1206 21.108 17.1285C21.2728 16.9082 21.4924 16.6145 21.7214 16.3848C21.9691 16.2833 22.2074 16.1177 22.455 16.0162C22.712 15.9788 22.9503 15.8133 23.2622 15.7024C23.8124 15.426 24.4362 15.2043 24.9958 14.9919C25.3719 14.8717 25.8123 14.7422 26.1242 14.6313C26.6744 14.3549 27.2619 14.3348 27.7572 14.1318C28.2432 13.8648 28.8307 13.8447 29.3902 13.6323C29.4731 13.7511 29.5654 13.934 29.7218 14.1076C29.7861 14.0982 29.8503 14.0889 29.8503 14.0889C29.9602 13.942 30.2265 13.9687 30.1891 13.7123C30.1798 13.6483 30.8398 13.225 30.9683 13.2063C31.6657 13.0393 32.2988 12.8817 32.9868 12.6506C33.6749 12.4196 34.3815 12.3167 35.0789 12.1497C36.9782 11.6769 38.8869 11.2682 40.722 10.8047C41.0432 10.7579 41.3644 10.7111 41.695 10.7285C42.0162 10.6817 42.3188 10.5068 42.6586 10.5882C42.7965 10.6335 42.9156 10.5508 43.1083 10.5227C43.9891 10.2636 44.9808 10.3156 45.8522 9.99237C46.3299 10.1191 46.7516 9.86143 47.2656 9.7866C47.5225 9.74919 47.7246 9.78522 47.9816 9.74781C48.2385 9.7104 48.4769 9.54482 48.6976 9.70901C48.7618 9.69966 48.8261 9.69031 48.8903 9.68095C49.4685 9.59678 49.9731 9.45787 50.5607 9.43778C51.0104 9.37231 51.543 9.42566 51.9927 9.36019C52.2227 9.58847 52.4973 9.22129 52.7823 9.37613C53.2869 9.23722 53.8382 9.41874 54.4164 9.33456C54.4444 9.52682 54.4081 9.72842 54.4268 9.85659C54.6288 9.89262 54.7573 9.87391 54.9594 9.90994C55.3811 9.65222 55.7386 9.40385 56.3354 9.44784C57.0701 9.53721 57.8597 9.55315 58.6493 9.56908C59.2461 9.61308 59.843 9.65707 60.4398 9.70107C60.8346 9.70903 61.2294 9.717 61.6336 9.78905C62.0377 9.86111 62.4325 9.86908 62.763 9.8864C63.1578 9.89436 63.6169 9.89298 63.9567 9.97438C64.3609 10.0464 64.7557 10.0544 65.1598 10.1265C65.6375 10.2532 66.1514 10.1784 66.6198 10.2411C67.1431 10.2304 67.6664 10.2196 68.199 10.273C68.8601 10.3076 69.5854 10.3329 70.3014 10.2941C70.7605 10.2927 71.2744 10.2179 71.7428 10.2806C72.0091 10.3073 72.2474 10.1417 72.5231 10.2325C73.3582 10.1109 74.2307 10.2456 75.1488 10.2429C75.8006 10.2134 76.4617 10.2481 77.1777 10.2093C77.701 10.1985 78.2242 10.1878 78.6833 10.1864C79.2066 10.1757 79.7848 10.0915 80.3174 10.1448C81.0427 10.1701 81.8043 9.99381 82.539 10.0832C82.7411 10.1192 82.9245 10.0271 83.0529 10.0084C83.1172 9.99901 83.255 10.0444 83.3286 10.0991C83.3017 10.3648 83.0727 10.5945 82.9628 10.7413C83.11 10.8508 83.2478 10.8962 83.3949 11.0057C83.5141 10.9229 83.6333 10.8401 83.7524 10.7573C84.027 10.3901 84.4487 10.1324 84.8891 10.0028C84.9533 9.99347 85.0818 9.97477 85.1367 9.90133C85.43 9.66231 85.7232 9.4233 86.1367 9.55943C86.2102 9.61417 86.3294 9.53138 86.3936 9.52202C86.9718 9.43785 87.5407 9.28959 88.064 9.27885C88.5873 9.26811 89.0183 9.07448 89.4774 9.07309C90.7716 8.95012 92.0098 8.44265 93.3683 8.31032C94.4604 8.15133 95.5981 7.85481 96.681 7.63173C97.828 7.39929 98.9015 7.11213 99.975 6.82496C100.232 6.78755 100.47 6.62197 100.718 6.52048C100.966 6.41898 101.232 6.44566 101.48 6.34416C102.02 6.00365 102.617 6.04764 103.296 5.75251C103.195 5.96347 103.141 6.03691 103.095 6.17443C103.077 6.5042 103.344 6.53087 103.555 6.63099C103.72 6.41067 104.115 6.41864 104.27 6.13425C104.435 5.91394 104.6 5.69362 104.838 5.52804C105.131 5.28903 105.296 5.06872 105.709 5.20485C106.214 5.06595 106.692 5.19273 107.16 5.25543C107.426 5.2821 107.509 5.40092 107.711 5.43695C107.739 5.6292 107.841 5.87618 107.859 6.00435C107.705 6.74669 107.477 7.4343 107.442 8.09385C107.461 8.22202 107.415 8.35954 107.36 8.43297C107.022 9.26745 106.951 10.1286 106.879 10.9898C106.843 11.1914 106.816 11.4571 106.854 11.7134C106.9 12.0338 106.818 12.3729 106.865 12.6934C106.847 13.0231 106.894 13.3436 106.95 13.7281C106.997 14.0485 106.915 14.3876 107.026 14.6987C107.063 14.955 107.183 15.3302 107.092 15.6052C107.02 16.0084 107.268 16.3649 107.132 16.7774C107.086 16.915 107.04 17.0525 106.995 17.19C106.894 17.401 106.858 17.6026 106.767 17.8776C106.529 18.0432 106.392 18.4558 106.163 18.6854C106.155 19.0793 106.137 19.4091 106.074 19.8763C105.964 20.0232 105.863 20.2342 105.754 20.3811C105.772 20.5092 105.791 20.6374 105.874 20.7562C106.15 20.847 106.416 20.8736 106.728 20.7628C106.957 20.5331 107.112 20.2487 107.341 20.0191C107.35 20.0832 107.424 20.1379 107.433 20.202C107.398 20.8615 107.62 21.4837 107.511 22.0885C107.52 22.1526 107.52 22.1526 107.53 22.2166C107.752 22.8388 107.652 23.5077 107.874 24.1298C108.013 24.6331 107.959 25.1645 108.107 25.7319C108.32 26.29 108.394 26.8027 108.478 27.3794C108.617 27.8827 108.83 28.4408 108.84 28.9628C108.869 29.613 109.017 30.1804 109.175 30.8119C109.332 31.4434 109.416 32.0202 109.638 32.6423C109.74 32.8893 109.841 33.1363 109.952 33.4473C110.054 33.6943 110.036 34.0241 110.138 34.2711C110.414 34.8198 110.691 35.3685 110.775 35.9452C111.005 36.1735 111.042 36.4299 111.089 36.7503C111.117 36.9425 111.09 37.2082 111.118 37.4005C111.182 37.3911 111.32 37.4365 111.384 37.4271C111.597 37.9852 111.819 38.6073 112.095 39.156C112.197 39.403 112.472 39.4938 112.519 39.8142C112.556 40.0705 112.713 40.2441 112.814 40.4911C112.907 40.674 113.237 40.6913 113.21 40.957C113.542 41.4322 113.754 41.9903 114.205 42.3828C114.05 42.6672 113.885 42.8875 113.775 43.0344C113.758 43.3641 113.712 43.5016 113.74 43.6939C113.989 44.0503 114.337 43.7379 114.603 43.7646C114.658 43.6911 114.704 43.5536 114.823 43.4708C114.887 43.4615 114.961 43.5162 114.961 43.5162C115.053 43.6991 115.219 43.9367 115.311 44.1196C115.394 44.2384 115.403 44.3025 115.486 44.4213C115.238 44.5228 115.064 44.6791 115.028 44.8807C114.965 45.348 114.598 45.5323 114.314 45.8354C113.801 46.3681 113.196 46.718 112.517 47.0131C111.848 47.3723 111.188 47.7956 110.519 48.1549C110.28 48.3204 109.978 48.4954 109.675 48.6703C109.473 48.6343 109.262 48.5342 108.986 48.4434C108.831 48.7278 108.491 48.6464 108.271 48.9401C108.106 49.1605 107.795 49.2713 107.786 49.6652C107.484 49.8401 107.181 50.015 106.869 50.1259C106.622 50.2274 106.236 50.2835 106.071 50.5038C105.842 50.7335 105.567 50.6427 105.338 50.8724C105.164 51.0286 104.833 51.0113 104.595 51.1769C104.292 51.3518 103.843 51.4173 103.54 51.5922C103.357 51.6843 103.173 51.7765 102.99 51.8686C102.806 51.9608 102.678 51.9795 102.495 52.0716C102.192 52.2465 101.871 52.2933 101.559 52.4042C100.935 52.6258 100.404 53.0304 99.7611 53.124C99.3487 53.4458 98.8254 53.4565 98.3208 53.5954C96.9261 53.9294 95.5313 54.2633 94.0081 54.6159C94.1729 54.3956 94.2827 54.2487 94.319 54.0471C93.9511 53.7735 93.9511 53.7735 93.4745 54.1046C93.4382 54.3062 93.3377 54.5172 93.3108 54.7829C92.9347 54.9031 92.4849 54.9685 92.1088 55.0887C91.7234 55.1449 91.3565 55.3291 90.9617 55.3212C90.567 55.3132 90.1266 55.4428 89.7504 55.563C89.6033 55.4535 89.4561 55.344 89.3183 55.2987C88.6945 55.5204 88.1257 55.6686 87.6211 55.8075C87.3092 55.9184 87.0429 55.8917 86.7123 55.8744C86.4553 55.9118 86.1528 56.0867 85.8678 55.9319C85.7942 55.8771 85.6751 55.9599 85.5466 55.9786C85.1062 56.1082 84.6378 56.0455 84.243 56.0375C83.7291 56.1123 83.1965 56.059 82.6732 56.0697C82.2142 56.0711 81.7095 56.21 81.2318 56.0832C81.0298 56.0472 80.7821 56.1487 80.5158 56.122C80.1759 56.0406 79.8734 56.2156 79.4786 56.2076C79.148 56.1903 78.8361 56.3011 78.5056 56.2838C78.175 56.2665 77.8725 56.4414 77.5875 56.2866C77.0187 56.4348 76.4125 56.3268 75.8343 56.4109C74.6499 56.387 74.0437 56.279 73.3557 56.51ZM30.1178 34.4026C29.7955 33.9914 29.5561 33.699 29.3167 33.4067C28.8473 32.886 28.3872 32.4295 27.9727 31.8354C27.383 30.9396 26.6836 30.1907 26.0483 29.4324C25.3395 28.6194 24.5209 27.9533 23.6929 27.223C23.3157 26.8853 23.0121 26.6023 22.6349 26.2645C22.4515 26.3567 22.2132 26.5223 22.0298 26.6144C22.0391 26.6785 22.1127 26.7332 22.122 26.7973C22.5821 27.2539 23.0515 27.7745 23.5116 28.2311C23.8246 28.5782 24.0826 28.9987 24.4505 29.2723C24.8184 29.546 25.0764 29.9665 25.3251 30.323C25.5738 30.6794 25.8774 30.9624 26.1261 31.3189C26.3749 31.6753 26.7521 32.0131 26.8174 32.4617C27.4433 33.1559 27.8215 33.9515 28.3925 34.7192C28.7884 35.1851 29.0008 35.7431 29.2133 36.3012C29.3242 36.6123 29.4993 36.914 29.6744 37.2157C29.9511 37.7644 30.3563 38.2944 30.3947 39.0087C30.432 39.265 30.5243 39.4479 30.5616 39.7042C30.8465 39.8591 30.9481 40.1061 30.9947 40.4265C31.143 40.9939 31.3554 41.552 31.5036 42.1194L31.5129 42.1834C31.9917 42.7682 32.0943 43.4731 32.3254 44.1593C32.6581 45.0925 32.7338 46.0631 33.1307 46.987C33.4189 48.5157 33.9547 49.9428 34.3164 51.5262C34.5734 51.4888 34.8677 51.7078 35.2345 51.5235C35.1049 51.0842 35.049 50.6997 34.9287 50.3246C34.8728 49.9401 34.8168 49.5556 34.7608 49.1711C34.7411 48.585 34.5286 48.0269 34.3804 47.4595C34.168 46.9014 34.2767 46.2966 34.1192 45.6651C33.9523 44.9696 33.7855 44.274 33.6186 43.5784C33.4611 42.9469 33.2942 42.2513 33.0724 41.6292C32.777 40.9523 32.7387 40.2381 32.5718 39.5425C32.5438 39.3502 32.4516 39.1673 32.4236 38.9751C32.7552 39.4503 32.9583 39.9443 33.1614 40.4383C33.3646 40.9322 33.5677 41.4262 33.8444 41.9749C34.1118 42.4595 34.1957 43.0363 34.4631 43.5209C34.6558 43.4929 34.8392 43.4007 35.032 43.3726C35.004 43.1804 34.9211 43.0616 34.9024 42.9334C34.7531 41.9081 34.292 40.9936 34.0785 39.9776C34.0505 39.7853 34.0774 39.5196 33.9303 39.4102C33.7002 39.1819 33.782 38.8428 33.6162 38.6051C33.4504 38.3675 33.4038 38.0471 33.2929 37.736C33.2649 37.5437 33.1727 37.3608 33.154 37.2327C32.9975 37.0591 32.8317 36.8215 32.6846 36.712C32.3996 36.5572 32.5457 36.2087 32.2701 36.118C32.1323 36.0726 32.1592 35.8069 32.0763 35.6881C31.8276 35.3316 31.6431 34.9658 31.3944 34.6094C30.897 33.8965 30.528 33.1649 29.9664 32.4613C29.8099 32.2878 29.727 32.169 29.6348 31.9861C29.4503 31.6203 29.1467 31.3373 28.9073 31.0449C28.7146 31.073 28.5861 31.0917 28.4027 31.1838C28.6887 31.7966 29.039 32.4 29.3799 32.9394C29.7115 33.4146 29.9602 33.7711 30.1178 34.4026ZM34.5848 52.4688C34.6325 53.2472 34.7538 54.0803 34.7373 54.868C34.9673 55.0963 35.1414 54.94 35.3248 54.8479C35.3062 54.7197 35.2875 54.5916 35.3424 54.5181C35.3787 54.3165 35.4149 54.1149 35.3776 53.8586C35.331 53.5382 35.3486 53.2084 35.3662 52.8786C35.3931 52.6129 35.3009 52.43 35.0895 52.3299C34.8967 52.358 34.704 52.386 34.5848 52.4688ZM102.95 38.5242C102.6 38.3787 102.464 38.7913 102.262 38.7552C102.161 38.9662 102.051 39.1131 101.941 39.2599C101.841 39.4709 101.86 39.5991 101.823 39.8007C101.833 39.8648 101.842 39.9288 101.916 39.9836C102.108 39.9555 102.292 39.8634 102.484 39.8353C102.631 39.4868 102.96 39.0462 102.95 38.5242ZM35.1219 58.4113C35.2576 57.5408 35.2006 56.6984 35.3269 55.7638C35.1342 55.7918 35.0057 55.8105 34.8223 55.9027C34.7498 56.3059 34.8556 58.3847 34.9292 58.4394C34.9934 58.43 34.9934 58.43 35.1219 58.4113ZM20.0515 24.7428C20.3832 25.2181 20.7604 25.5558 21.1376 25.8935C21.3303 25.8655 21.5137 25.7733 21.7064 25.7453C21.6878 25.6171 21.6784 25.553 21.6784 25.553C21.3012 25.2153 20.9976 24.9323 20.6297 24.6586C20.4277 24.6226 20.3085 24.7054 20.0515 24.7428ZM34.7222 44.3994C34.8704 44.9668 35.0186 45.5342 35.1026 46.111C35.2311 46.0922 35.2953 46.0829 35.4238 46.0642C35.5968 45.45 35.2559 44.9107 35.1719 44.3339C34.9698 44.2979 34.8414 44.3166 34.7222 44.3994ZM55.6281 52.8083C55.3162 52.9192 54.9856 52.9018 54.766 53.1956C54.7204 53.3331 54.7391 53.4613 54.6935 53.5988C54.8406 53.7083 54.9878 53.8177 55.0613 53.8725C55.1805 53.7897 55.2997 53.7069 55.3546 53.6334C55.4737 53.5507 55.6116 53.596 55.7307 53.5132C55.9504 53.2195 55.9131 52.9632 55.6281 52.8083ZM47.3914 36.3379C47.5292 36.3833 47.6577 36.3646 47.7955 36.41C47.8049 36.4741 47.8049 36.4741 47.7499 36.5475C48.0618 36.4367 48.438 36.3165 48.7499 36.2056C48.7861 36.004 48.8317 35.8665 48.813 35.7383C48.4545 35.5288 48.1519 35.7037 47.8307 35.7505C47.6473 35.8426 47.5468 36.0535 47.3914 36.3379ZM26.8638 28.7247C26.8824 28.8529 26.8275 28.9263 26.8368 28.9904C26.8462 29.0545 26.9197 29.1092 26.9291 29.1733C27.0949 29.4109 27.2514 29.5845 27.4172 29.8221C27.5187 30.0691 27.6752 30.2426 27.8866 30.3427C28.0151 30.324 28.2078 30.296 28.327 30.2132C28.0876 29.9208 27.9218 29.6832 27.6917 29.4549C27.471 29.2907 27.2866 28.9249 26.8638 28.7247ZM18.1106 23.1275C18.3594 23.484 18.663 23.767 19.0215 23.9766C19.1407 23.8938 19.1956 23.8203 19.2412 23.6828C18.8184 23.4826 18.579 23.1902 18.1106 23.1275ZM50.3164 14.9705C50.4356 14.8877 50.5548 14.8049 50.6097 14.7315C50.6646 14.6581 50.6459 14.5299 50.6915 14.3924C50.3703 14.4391 50.1869 14.5313 49.9299 14.5687C49.8843 14.7062 49.8294 14.7796 49.8481 14.9078C50.1144 14.9345 50.2429 14.9158 50.3164 14.9705ZM35.5763 48.4634C35.511 48.0148 35.7669 47.5194 35.4995 47.0348C35.4353 47.0442 35.3803 47.1176 35.2519 47.1363C35.5741 47.5475 35.254 48.0522 35.5763 48.4634ZM38.3123 56.4417C38.2025 56.5886 38.1569 56.7261 38.047 56.873C38.1113 56.8636 38.2491 56.909 38.4512 56.945C38.4968 56.8075 38.5423 56.67 38.5879 56.5325C38.4408 56.423 38.3765 56.4323 38.3123 56.4417ZM79.152 34.1356C79.2991 34.245 79.382 34.3639 79.4556 34.4186C79.5748 34.3358 79.6297 34.2624 79.7488 34.1796C79.7395 34.1155 79.7395 34.1155 79.7302 34.0514C79.5374 34.0795 79.4089 34.0982 79.152 34.1356ZM93.4652 18.4398C93.4289 18.6414 93.1813 18.7429 93.4113 18.9712C93.5305 18.8884 93.6403 18.7415 93.7595 18.6587C93.6859 18.604 93.6123 18.5493 93.4652 18.4398ZM25.9063 27.5552C26.0078 27.8022 26.0078 27.8022 26.2741 27.8289C26.1363 27.7835 26.0534 27.6647 25.9063 27.5552ZM34.8775 59.8867C34.8775 59.8867 34.9417 59.8773 34.8775 59.8867C34.9324 59.8132 34.9324 59.8132 34.8588 59.7585C34.8588 59.7585 34.8588 59.7585 34.7946 59.7678C34.8681 59.8226 34.8681 59.8226 34.8775 59.8867ZM35.0236 59.5382C34.95 59.4834 34.95 59.4834 34.8951 59.5569C34.8951 59.5569 34.8951 59.5569 34.9044 59.621C34.9593 59.5475 34.9593 59.5475 35.0236 59.5382ZM25.7684 27.5099C25.7684 27.5099 25.8327 27.5005 25.7684 27.5099C25.8234 27.4364 25.8234 27.4364 25.7498 27.3817C25.7498 27.3817 25.7498 27.3817 25.6855 27.391C25.7591 27.4458 25.7684 27.5099 25.7684 27.5099Z" fill="white"/>
<path d="M27.6039 70.7619L28.1853 72.0516L28.8298 72.8739C29.4712 72.3225 29.8919 71.6068 30.5332 71.0553C31.0648 70.6507 31.5321 70.2555 32.0637 69.8509L31.3911 68.8363L30.8097 67.5466L30.2832 66.1835L29.5185 64.986L28.8822 63.7698L28.4842 62.388L27.7836 61.1811L27.2572 59.8181L26.4281 58.6299L25.9017 57.2668L25.3845 55.9678L24.6747 54.6968L23.9099 53.4993L23.5761 52.1082L22.9305 50.8279L22.1657 49.6304L21.5843 48.3407L20.8838 47.1339L20.2382 45.8535L19.6568 44.5639L19.1946 43.1915L18.237 42.022L17.6557 40.7323L17.3126 39.2771L16.5478 38.0796L15.8379 36.8086L15.1923 35.5283L14.5467 34.248L14.0845 32.8756L13.5031 31.5859L12.674 30.3978L12.0284 29.1175L11.5662 27.745L10.8014 26.5475L10.1558 25.2672L9.89667 24.3888C9.53093 25.031 9.09161 25.6185 8.57872 26.1512L8.86475 26.764L10.0254 28.4274L10.7166 29.5702L11.3436 30.7224L11.8607 32.0214L12.6068 33.0907L12.8577 34.363L13.6774 35.4871L14.1945 36.7861L14.8951 37.993L15.6132 38.8701L16.2402 40.0222L16.5552 41.2852L17.7159 42.9486L18.3884 43.9632L18.8227 45.1434L19.174 46.2048L19.5896 47.2568L20.0425 48.5652L20.7337 49.708L21.2415 50.9429L21.6861 52.6451L22.6167 54.0802L23.1163 55.709L23.7443 57.3191L24.3723 58.9292L24.6594 59.9999L25.1299 60.9785L25.9424 62.9544L25.9715 63.6046L25.2709 62.3977L24.561 61.1267L24.2915 59.7263L23.5268 58.5287L23.0552 57.0922L22.5837 55.6557L21.6168 54.4221L21.3566 53.0857L20.6561 51.8789L20.139 50.5799L19.5576 49.2902L18.9213 48.074L18.1192 46.6201L17.6196 44.9914L16.745 43.9407L16.3015 42.6964L15.6838 41.6084L15.2496 40.4282L14.7055 39.3949L14.1614 38.3616L13.6267 37.3923L13.1821 35.6901L12.3706 34.1722L11.4401 32.737L10.4545 31.3753L10.1488 30.1764L9.47624 29.1618L8.99642 28.1191L8.89274 26.9563L8.48755 26.4263C7.98399 27.0231 7.48043 27.62 6.90329 28.1621L7.08776 28.5279L7.91679 29.7161L8.49817 31.0057L8.89615 32.3875L9.41329 33.6865L10.2972 34.8012L10.9429 36.0815L11.46 37.3805L12.0414 38.6702L12.5679 40.0333L13.3326 41.2308L13.8591 42.5939L14.3763 43.8929L15.2602 45.0076L15.7224 46.3801L16.368 47.6604L17.0137 48.9407L17.5401 50.3038L18.3143 51.5654L19.0148 52.7722L19.4128 54.154L20.1776 55.3515L20.9424 56.549L21.3403 57.9308L22.1694 59.119L22.6316 60.4914L23.0938 61.8639L24.042 62.9693L24.5042 64.3417L25.269 65.5392L25.7312 66.9117L26.2484 68.2107L26.894 69.491L27.6039 70.7619Z" fill="#7D4E24"/>
<path d="M43.5109 93.0523L42.6819 91.8641L41.972 90.5932L41.574 89.2114L40.8735 88.0045L40.2278 86.7242L39.5822 85.4439L39.1842 84.0621L38.5386 82.7818L37.6453 81.603L37.0639 80.3134L36.4183 79.0331L35.8369 77.7434L35.3747 76.371L34.6742 75.1641L33.9736 73.9572L33.613 72.8318C33.384 73.0615 33.0907 73.3005 32.8524 73.466C31.9178 74.2565 31.1946 75.1471 30.49 76.1659L30.8963 77.1538L31.4134 78.4528L32.059 79.7331L32.8881 80.9213L33.2311 82.3765L33.8768 83.6568L34.6416 84.8543L35.4706 86.0425L35.8686 87.4243L36.6976 88.6125L37.3432 89.8928L37.7412 91.2746L38.4417 92.4814L38.8397 93.8632L39.4211 95.1529L40.1217 96.3597L40.8222 97.5666L41.33 98.8015C42.162 97.3061 42.8468 95.7012 43.3296 94.0603C43.2923 93.804 43.3285 93.6024 43.5026 93.4462C43.4933 93.3821 43.5482 93.3086 43.5389 93.2446L43.5109 93.0523Z" fill="#7D4E24"/>
<path d="M51.9808 111.125L51.5186 109.752L50.8729 108.472L50.2916 107.183L49.7744 105.884L48.8905 104.769L48.2448 103.488L47.5992 102.208L47.2655 100.817L46.5649 99.6102L46.0478 98.3112L45.882 98.0735C45.6903 98.5595 45.4344 99.0549 45.1692 99.4862C44.7578 100.266 44.2729 100.991 43.7238 101.725C43.6419 102.064 43.4959 102.413 43.414 102.752L44.0596 104.032L44.4576 105.414L45.1675 106.685L45.8131 107.965L46.4588 109.246L47.1044 110.526L47.6858 111.816L48.2671 113.105L48.9677 114.312L50.1915 115.508L51.8805 115.393L52.869 114.071L52.8191 112.377L51.9808 111.125Z" fill="#7D4E24"/>
<path d="M2.9445 19.4455L3.52589 20.7352L3.98811 22.1076L4.7529 23.3051L5.21512 24.6776L5.2887 24.7323C5.87516 24.2543 6.44297 23.6481 6.88228 23.0606L6.55067 22.5853L6.8543 22.8683L6.94653 23.0512C7.33093 22.5372 7.706 21.959 7.86969 21.2808C7.90594 21.0792 8.07069 20.8589 8.18984 20.7761L7.83957 20.1726L7.19395 18.8923L6.54832 17.612L5.84778 16.4052L5.44979 15.0234L4.68501 13.8259L3.50677 12.4922L1.92865 12.9183L0.774385 14.0025L1.08119 15.6594L1.54342 17.0318L2.30821 18.2293L2.9445 19.4455Z" fill="#7D4E24"/>
<path d="M38.292 118.942C38.2827 118.878 38.7049 118.62 38.6312 118.565C38.7049 118.62 38.3013 119.006 38.292 118.942Z" fill="#7D4E24"/>
<path d="M42.3956 102.966C41.6361 104.058 40.6828 104.72 40.1865 104.465C39.9751 104.365 39.6539 104.412 39.4798 104.568C39.1772 104.743 39.0778 105.412 38.6385 105.999C38.4188 106.293 37.8406 106.377 37.6303 106.735C37.5298 106.946 37.9806 107.339 37.8801 107.55C37.8345 107.687 37.5133 107.734 37.4677 107.871C37.6055 107.917 37.4314 108.073 37.5143 108.192C37.5423 108.384 37.533 108.32 37.4874 108.457C37.3776 108.604 37.2035 108.761 37.0294 108.917C36.9113 109.458 37.0139 110.162 36.9601 110.694C36.8244 111.564 36.8908 112.471 36.9571 113.377C37.0235 114.284 36.778 115.301 37.0371 116.18C37.2962 117.058 37.6931 117.982 38.2092 118.823C38.1263 118.704 38.52 118.254 38.3542 118.017C38.2526 117.77 37.5366 117.809 37.4257 117.498C37.2039 116.875 37.5324 115.977 37.4847 115.198C37.4463 114.484 37.4172 113.834 37.5447 113.357C37.6628 112.817 37.6161 112.496 37.8824 112.523C38.0751 112.495 38.1114 112.293 38.2212 112.146C38.4409 111.853 38.7061 111.421 38.8885 110.871C39.0346 110.523 39.4376 110.137 39.565 109.66C39.4821 109.541 38.8853 109.497 38.8666 109.369C38.7557 109.058 39.2966 108.718 39.5443 108.616C39.709 108.396 39.4427 108.369 39.479 108.168C39.5701 107.893 39.91 107.974 40.0105 107.763C40.1566 107.414 40.2291 107.011 40.3752 106.663C40.6674 105.966 41.0144 105.195 41.3709 104.489C41.7273 103.783 41.8723 102.976 42.2287 102.27C42.5851 101.564 43.3001 101.067 43.6565 100.361C43.584 100.764 43.1095 102.011 42.3956 102.966Z" fill="#7D4E24"/>
<path d="M44.1239 99.9651C44.0689 100.039 43.9952 99.9838 44.0046 100.048C43.9859 99.9196 44.1788 99.8915 44.1239 99.9651Z" fill="#7D4E24"/>
<path d="M37.968 105.901C38.0229 105.827 37.9586 105.837 38.0136 105.763C37.9586 105.837 37.9773 105.965 37.968 105.901Z" fill="#7D4E24"/>
<path d="M45.9554 90.0139C45.715 89.2636 45.4383 88.7149 45.1429 88.038C45.4383 88.7149 46.1658 89.656 46.2788 90.883C46.3907 91.652 46.3099 92.4491 46.1276 92.9992C45.9453 93.5492 45.4873 94.0086 45.2116 93.9178C45.0096 93.8818 45.0832 93.9365 44.9733 94.0834C44.6801 94.3224 44.4791 94.7443 44.1589 95.249C43.8388 95.7537 43.3352 96.3506 42.9881 97.121C42.5406 98.1023 41.8173 98.9929 41.3055 99.9837C40.7937 100.974 40.2083 101.91 39.6964 102.901C39.1846 103.892 38.535 104.837 38.0967 105.883C38.1423 105.745 38.2521 105.598 38.3526 105.387C38.4531 105.176 38.5443 104.901 38.6997 104.617C38.9463 104.057 39.8177 103.734 40.257 103.147C41.0072 101.99 41.6382 100.917 42.1345 101.172C42.2817 101.281 42.4744 101.253 42.6485 101.097C43.3179 100.738 44.2701 99.6175 45.0191 98.0033C45.0191 98.0033 45.3041 98.1581 45.3684 98.1488C45.7154 97.3784 45.7682 96.389 46.0417 95.5639C46.0967 95.4905 46.3536 95.4531 46.335 95.3249C46.3256 95.2608 46.2521 95.2061 46.2521 95.2061C46.2241 95.0138 46.4811 94.9764 46.6645 94.8843C46.8375 94.2701 46.5235 93.4651 46.4944 92.8149C46.4094 91.7802 46.2145 90.8923 45.9554 90.0139Z" fill="#7D4E24"/>
<path d="M44.7924 87.4342C44.8017 87.4984 45.3526 87.2216 45.3713 87.3499C45.3526 87.2216 44.7831 87.37 44.7924 87.4342Z" fill="#7D4E24"/>
<path d="M43.3411 95.0405C43.3317 94.9763 43.4697 95.0217 43.4604 94.9576C43.4697 95.0217 43.3504 95.1046 43.3411 95.0405Z" fill="#7D4E24"/>
<path d="M45.1425 87.5795C45.013 87.1403 44.7912 86.5181 44.5238 86.0335C44.3953 86.0522 44.0192 86.1724 43.9363 86.0536C43.7798 85.88 43.8067 85.6143 43.843 85.4127C43.8337 85.3487 44.0627 85.119 43.9984 85.1283L43.8243 85.2846C43.3456 84.6998 42.5923 84.4823 41.8845 84.1272C41.8203 84.1366 41.7643 83.7521 41.7 83.7614C41.4431 83.7989 41.3882 83.8723 41.2959 83.6894L41.1405 83.9738C40.2307 83.5827 39.3302 83.2557 38.4028 83.1944C37.4754 83.1331 36.52 82.8795 35.6755 82.937C34.7761 83.0679 34.0425 83.4365 33.2073 83.5581C33.4 83.53 33.8964 83.785 34.5482 83.7555C35.1264 83.6714 35.8413 83.1746 36.5667 83.1999C37.292 83.2252 37.9904 83.5162 38.4774 83.7071C38.9645 83.8979 39.0474 84.0167 38.9562 84.2918C38.9199 84.4934 39.5075 84.4733 39.6546 84.5828C39.8847 84.811 40.0422 85.4425 40.4837 85.7709C40.9251 86.0993 41.4857 86.3449 41.9645 86.9296C42.4339 87.4503 42.9769 88.0257 43.2722 88.7025C43.5676 89.3794 43.4961 90.2405 43.7273 90.9268C43.8941 91.6223 44.1252 92.3086 44.0258 92.9775C43.9906 93.637 43.7627 94.3246 43.5441 95.0763C43.5803 94.8747 43.9927 94.5529 44.1108 94.0122C44.2383 93.5355 44.0807 92.904 44.1252 92.3086C44.2143 91.1176 44.4142 90.2378 44.9095 90.0348C45.0929 89.9426 45.1654 89.5394 45.2017 89.3378C45.2742 88.9346 45.3736 88.2657 45.1425 87.5795Z" fill="#7D4E24"/>
<path d="M33.1702 83.7601C33.2345 83.7508 33.2532 83.8791 33.3175 83.8697C33.2532 83.8791 33.1059 83.7695 33.1702 83.7601Z" fill="#7D4E24"/>
<path d="M40.7035 85.9354C40.6391 85.9447 40.7491 85.7977 40.6754 85.7429C40.7491 85.7977 40.7678 85.926 40.7035 85.9354Z" fill="#7D4E24"/>
<path d="M39.6372 85.3709C39.1595 85.2441 38.5264 85.4017 37.8653 85.3671C36.598 85.2244 35.6975 84.8973 35.6229 84.3847C35.5949 84.1924 35.282 83.8453 35.0799 83.8093C34.7307 83.6638 34.0789 83.6933 33.4272 83.7227C32.7661 83.6881 32.0418 84.1207 31.2522 84.1048C31.2522 84.1048 31.2605 83.7109 31.1962 83.7203C30.4802 83.7591 29.7549 83.7338 29.1393 83.5616C29.0015 83.5162 28.9279 83.4615 28.8544 83.4068L28.7352 83.4896C28.7352 83.4896 28.4969 83.6551 28.4327 83.6645C28.4233 83.6004 28.4596 83.3988 28.4409 83.2706C28.4316 83.2065 28.6057 83.0503 28.5963 82.9862C28.587 82.9222 28.6968 82.7753 28.6875 82.7112C28.3631 81.3841 28.3506 79.9462 28.7971 78.5069C28.7608 78.7085 28.8262 79.1571 28.7081 79.6978C28.5806 80.1745 27.875 80.7353 27.8212 81.2667C27.7124 81.8715 27.6679 82.467 27.6689 82.9249C27.6057 83.3922 27.8545 83.7487 27.6068 83.8502C27.4234 83.9423 27.5706 84.0518 27.6079 84.3081C27.6359 84.5004 27.325 85.0691 27.5644 85.3615C27.8038 85.6539 28.4369 85.4963 28.7861 85.6417C29.1353 85.7872 29.5125 86.125 29.9166 86.197C30.0545 86.2424 30.155 86.0315 30.2928 86.0768C30.4762 85.9847 30.7332 85.9473 30.9352 85.9833C31.073 86.0287 31.0917 86.1569 31.1104 86.285C31.1746 86.2757 31.2844 86.1288 31.3487 86.1194C32.1932 86.0619 33.019 85.8763 33.8542 85.7547C34.7536 85.6237 35.6448 85.8867 36.4157 85.7744C37.8291 85.5687 39.3429 85.152 40.5284 85.6338C40.2983 85.4055 39.9771 85.4523 39.6372 85.3709Z" fill="#7D4E24"/>
<path d="M28.741 78.1221C28.7504 78.1863 28.907 78.3601 28.8427 78.3694C28.8334 78.3053 28.6861 78.1957 28.741 78.1221Z" fill="#7D4E24"/>
<path d="M28.9063 86.017C28.842 86.0264 28.9146 85.6227 28.8503 85.6321C28.924 85.6869 28.98 86.0718 28.9063 86.017Z" fill="#7D4E24"/>
<path d="M34.105 67.1983C34.1879 67.3171 34.0231 67.5374 34.0511 67.7296C34.162 68.0407 34.5392 68.3784 34.5403 68.8364C34.532 69.2302 34.2025 69.6709 34.0015 70.0928C33.8648 70.5054 33.8752 71.0274 33.6555 71.3211C33.1613 71.9821 32.381 72.0302 31.9686 72.352C31.5469 72.6097 31.2174 73.0504 30.9874 72.8221C30.8402 72.7126 30.7573 72.5938 30.5097 72.6953C30.1335 72.8155 29.5647 72.9638 29.0424 73.4324C28.5202 73.9011 28.1825 74.7356 27.7711 75.5153C27.5608 75.8732 27.0199 76.2137 26.8189 76.6356C26.8925 76.6903 26.9298 76.9467 26.9485 77.0748C26.9578 77.1389 27.2148 77.1015 27.1599 77.175C26.9765 77.2671 26.7837 77.2952 26.6097 77.4514C26.2356 78.4875 25.9352 79.5783 25.8368 80.7051C25.7747 81.6304 25.7955 82.6744 26.0546 83.5529C26.0919 83.8092 26.065 84.0749 26.1759 84.386C26.2868 84.6971 26.7096 84.8973 27.0132 85.1803C27.3168 85.4633 27.6111 85.6822 27.8867 85.773C28.1624 85.8637 28.4649 85.6888 28.7312 85.7155C28.5934 85.6701 28.3095 85.9732 28.0339 85.8825C27.7582 85.7917 27.6194 85.2884 27.2328 84.8865C27.0028 84.6583 26.5437 84.6597 26.4515 84.4768C26.35 84.2298 26.4411 83.9547 26.3489 83.7718C26.2929 83.3873 26.4297 82.9748 26.3737 82.5903C26.326 81.8119 26.0855 81.0616 26.2772 80.5756C26.3684 80.3005 26.7632 80.3085 26.8823 80.2257C26.9922 80.0788 27.0647 79.6756 27.2025 79.721C27.4046 79.757 27.2667 79.7117 27.4408 79.5554C27.734 79.3164 28.1558 79.0587 28.4759 78.554C28.7961 78.0493 29.0883 77.3523 29.4447 76.646L29.7296 76.8008C30.086 76.0945 30.3689 75.3335 30.7989 74.6819C31.2931 74.021 31.7231 73.3694 32.2267 72.7725C32.7302 72.1757 33.5643 71.5962 34.0026 70.5507C34.1943 70.0647 34.4957 69.4319 34.476 68.8457C34.649 68.2316 34.3723 67.6829 34.105 67.1983Z" fill="#7D4E24"/>
<path d="M33.9568 66.63C34.0398 66.7489 33.8562 66.8412 33.9392 66.9601C33.7825 66.7864 33.8738 66.511 33.9568 66.63Z" fill="#7D4E24"/>
<path d="M10.9748 14.219C10.9842 14.2831 10.9935 14.3473 11.0028 14.4115C10.9935 14.3473 10.9105 14.2283 10.9748 14.219Z" fill="#7D4E24"/>
<path d="M26.7513 0.0116674C26.5678 0.10381 26.228 0.0224046 25.9161 0.133253C25.3659 0.40968 24.6778 0.640729 24.0085 0.999946C23.3298 1.29508 22.6138 1.33387 22.0449 1.48213C21.5496 1.68512 21.1921 1.93349 21.0357 1.75995C20.8792 1.5864 20.76 1.66919 20.5124 1.77068C20.3196 1.79874 19.9518 1.52508 19.6492 1.70002C19.3373 1.81086 19.3021 2.47041 19.0089 2.70943C18.3489 3.13273 17.579 3.70291 16.9013 4.45598L16.5335 4.18232C15.9201 4.92605 15.8217 6.05289 15.2819 6.85135C14.7421 7.6498 13.7702 8.18395 13.3039 9.03714C12.8377 9.89032 12.6564 10.8984 12.2544 11.7422C11.8524 12.586 11.3955 13.5033 11.0577 14.3378C11.295 13.7142 11.8057 12.2656 12.6015 10.9718C13.4521 9.60454 14.3961 8.87814 14.8282 9.14245C14.9753 9.25191 15.397 8.99419 15.5711 8.83796C16.3047 8.46939 17.2839 7.08344 18.4557 5.66943C18.6754 5.37568 19.18 5.23678 19.4639 4.93368C19.381 4.81486 19.4173 4.61325 19.3893 4.421C19.3706 4.29283 19.2691 4.04585 19.3333 4.03649C19.526 4.00844 19.5903 3.99908 19.7374 4.10855C20.5342 3.27268 21.8004 2.95746 22.7537 2.29514C23.4687 1.7984 24.0914 1.11876 24.8799 0.676755C25.6684 0.234748 26.4943 0.0490783 27.3657 -0.274113C27.1087 -0.236702 26.9989 -0.0898279 26.7513 0.0116674Z" fill="#7D4E24"/>
<path d="M10.7914 14.3111C10.7364 14.3847 11.1317 14.3926 11.058 14.3378C10.9201 14.2924 10.7364 14.3847 10.7914 14.3111Z" fill="#7D4E24"/>
<path d="M17.3129 7.73364C17.3129 7.73364 17.3873 7.78898 17.3129 7.73364C17.3873 7.78898 17.3129 7.73364 17.3129 7.73364Z" fill="#7D4E24"/>
<path d="M17.0188 7.51472C16.9638 7.58825 16.9545 7.52408 16.8995 7.59761C16.9545 7.52408 17.0188 7.51472 17.0188 7.51472Z" fill="#7D4E24"/>
<path d="M17.3037 7.66998L17.2663 7.41333C17.34 7.46813 17.3037 7.66998 17.3037 7.66998Z" fill="#7D4E24"/>
<path d="M9.77541 23.5558C9.34542 24.2073 8.78694 24.8776 8.31964 25.2729C7.85233 25.6681 7.20056 25.6976 6.97984 25.5334C6.83269 25.4239 6.66689 25.1863 6.48348 25.2784C6.10735 25.3986 5.55714 25.675 4.95202 26.0249C4.34689 26.3748 3.88065 27.228 3.08279 27.6059L2.99056 27.423C2.80716 27.5151 2.51286 27.2962 2.32946 27.3883C2.13673 27.4164 1.97199 27.6367 1.77925 27.6648C1.65076 27.6835 1.71607 28.1321 1.58758 28.1508C1.45909 28.1695 1.30262 27.9959 1.23837 28.0053C1.04564 28.0333 0.880897 28.2537 0.688165 28.2817C-0.0920942 28.3299 -0.919 28.0576 -1.48893 27.7479C-1.7739 27.5931 -2.13243 27.3835 -2.29824 27.1459C-2.46405 26.9082 -2.52002 26.5237 -2.50243 26.1939C-2.53148 25.5437 -1.84451 24.8548 -1.47877 24.2125C-1.57927 24.4235 -2.20305 24.6452 -2.32115 25.1859C-2.43924 25.7266 -2.47444 26.3862 -2.40913 26.8348C-2.3345 27.3475 -1.93864 27.8134 -1.62569 28.1605C-1.31273 28.5076 -1.2205 28.6905 -1.31167 28.9655C-1.34793 29.1671 -1.10855 29.4595 -0.887826 29.6237C-0.584202 29.9067 0.141142 29.932 1.05922 29.9292C1.18771 29.9105 1.30793 30.2856 1.37217 30.2763C1.50066 30.2576 1.58356 30.3764 1.71205 30.3577C1.96903 30.3203 2.20735 30.1547 2.45499 30.0532C2.58348 30.0345 2.41768 29.7969 2.54616 29.7782C2.5275 29.65 3.06945 29.7674 3.11503 29.6299C3.21553 29.419 3.14196 29.3642 3.41759 29.455C3.61965 29.491 3.91289 29.252 4.00512 29.4349C4.06936 29.4255 4.05177 29.7553 4.11601 29.746C4.6113 29.543 5.00504 29.093 5.41743 28.7712C5.82982 28.4494 6.01216 27.8993 6.41522 27.5134C7.16643 26.8151 8.28551 26.3904 8.88957 25.5826C9.75887 24.3435 10.3981 22.8761 10.9918 21.5463C10.9918 21.5463 11.056 21.5369 11.0467 21.4729C10.7359 22.0416 10.2603 22.8308 9.77541 23.5558Z" fill="#7D4E24"/>
<path d="M14.4402 19.9969C13.9345 19.6778 13.2444 18.993 12.6009 18.6286C12.4548 18.977 12.2082 19.5365 12.0621 19.885C11.916 20.2334 11.5959 20.7381 11.3856 21.096C11.6705 21.2508 12.2954 21.4871 12.5803 21.6419C13.1575 21.0998 13.7802 20.4202 14.4402 19.9969Z" fill="#7D4E24"/>
<path d="M4.00551 17.7202C4.85002 17.6627 5.58469 17.7521 6.19088 17.8602C6.74215 18.0417 6.95354 18.1418 6.92661 18.4075C6.89036 18.6091 7.06549 18.9108 7.27688 19.0109C7.4976 19.1751 8.01262 19.5582 8.4354 19.7585C8.58149 19.41 8.47886 18.7051 8.62495 18.3566C8.67053 18.2191 9.18342 17.6863 9.27459 17.4112C8.3192 17.1577 7.18146 17.4542 6.1349 17.4757C5.07901 17.4331 4.12467 17.6374 3.11543 17.9153C2.35383 18.0916 1.60156 18.332 0.867944 18.7005C1.11559 18.599 1.34458 18.3694 1.65647 18.2585C2.33517 17.9634 3.16101 17.7777 4.00551 17.7202Z" fill="#7D4E24"/>
<path d="M14.9785 10.6257C14.1092 11.8648 13.3321 13.2868 12.8451 13.0959C12.6337 12.9958 12.7166 13.1146 12.5425 13.2709C12.1851 13.5192 11.8463 13.8958 11.4163 14.5473C10.9863 15.1989 10.5749 15.9787 10.2559 16.9413L10.0538 16.9053C9.95329 17.1163 9.71497 17.2818 9.61447 17.4928C9.66112 17.8132 9.72643 18.2618 9.57101 18.5462C9.27884 19.2432 8.83953 19.8307 8.53803 20.4635C8.53803 20.4635 8.54735 20.5276 8.55668 20.5917C8.36501 21.0777 8.32049 21.6732 8.11949 22.0951C7.70816 22.8748 7.30616 23.7187 6.82126 24.4437C6.32703 25.1046 5.56649 25.7389 4.92511 26.2903C4.98003 26.2169 5.1541 26.0607 5.32817 25.9045C5.50225 25.7482 5.66699 25.5279 5.89598 25.2983C6.35396 24.8389 6.64613 24.142 7.09477 23.6186C7.98274 22.5076 9.04477 21.2405 9.5318 21.4314C9.74319 21.5315 9.66029 21.4127 9.83436 21.2564C10.0727 21.0909 10.3752 20.9159 10.6498 20.5487C10.7234 20.6035 11.0819 20.8131 11.1462 20.8037C11.4197 19.9786 11.5554 19.1081 11.9667 18.3283L12.233 18.355C12.3335 18.144 11.8827 17.7516 11.9739 17.4765C12.3023 16.5779 13.1271 15.9343 13.5291 15.0905C13.8669 14.256 13.9839 13.2573 14.3859 12.4135C14.7879 11.5697 15.2635 10.7806 15.6748 10.0008C16.1504 9.21172 16.341 8.26778 16.8901 7.53341C16.5513 7.90994 15.7742 9.33192 14.9785 10.6257Z" fill="#7D4E24"/>
<path d="M7.65404 19.3489C7.04785 19.2409 6.25933 19.6829 5.53398 19.6576C4.80864 19.6323 4.18379 19.396 3.59627 19.4161C3.06366 19.3628 2.59529 19.3001 2.54864 18.9797C2.45641 18.7968 2.40043 18.4123 2.13413 18.3856C1.73 18.3135 0.968403 18.4899 0.161218 18.8037C-0.645967 19.1175 -1.54432 19.7064 -2.34112 20.5423C-2.56077 20.836 -2.70686 21.1845 -2.92652 21.4783C-2.96277 21.6799 -2.98037 22.0096 -3.15444 22.1659C-3.21869 22.1752 -3.43941 22.011 -3.50365 22.0204C-3.71398 22.3782 -3.69426 22.9643 -3.89526 23.3862C-4.04135 23.7347 -4.25167 24.0925 -4.33352 24.4317C-4.25994 24.4864 -4.49826 24.652 -4.4796 24.7802C-4.44228 25.0365 -4.45161 24.9724 -4.69926 25.0739L-4.34072 25.2835C-4.26608 25.7961 -4.40284 26.2087 -4.33753 26.6573C-4.29089 26.9777 -4.24424 27.2981 -4.13335 27.6092C-4.02246 27.9203 -3.96648 28.3048 -3.80067 28.5424C-3.39549 29.0724 -2.91673 29.6571 -2.35613 29.9027C-1.7862 30.2124 -1.05259 29.8439 -0.519975 29.8972C-0.115852 29.9693 0.270675 30.3711 0.65614 30.315C0.32559 30.2976 -0.142778 30.2349 -0.620475 30.1082C-1.0246 30.0361 -1.59347 30.1844 -2.01625 29.9841C-2.43903 29.7839 -2.77997 29.2446 -3.10226 28.8334C-3.47945 28.4957 -3.86598 28.0938 -3.99553 27.6546C-4.12508 27.2154 -3.85984 26.7841 -3.778 26.445C-3.7604 26.1152 -3.86196 25.8682 -3.68789 25.712C-3.57806 25.5651 -3.48583 25.748 -3.34801 25.7934C-3.14595 25.8294 -2.94495 25.4075 -2.83512 25.2606C-2.61546 24.9669 -2.35954 24.4715 -1.97514 23.9575C-1.59074 23.4434 -0.940031 22.956 -0.317311 22.2764L-0.326641 22.2123C0.241164 21.6061 0.974776 21.2375 1.70839 20.8689C2.43267 20.4363 3.08338 19.9489 3.90922 19.7632C4.73507 19.5776 5.59823 19.6482 6.38782 19.6642C6.98467 19.7082 7.68203 19.5412 8.28821 19.6493L8.3338 19.5118C8.14107 19.5398 7.92035 19.3756 7.65404 19.3489Z" fill="#7D4E24"/>
<path d="M4.93501 26.3545L4.46606 26.2917C4.62273 26.4655 4.94435 26.4187 4.93501 26.3545Z" fill="#7D4E24"/>
<path d="M5.0631 26.3357C4.99877 26.3451 4.92511 26.2903 4.92511 26.2903C4.92511 26.2903 4.99877 26.3451 5.0631 26.3357Z" fill="#7D4E24"/>
<path d="M1.19726 29.9742C1.26158 29.9649 1.05099 30.3231 1.11531 30.3138C1.02297 30.1307 1.19726 29.9742 1.19726 29.9742Z" fill="#7D4E24"/>
<path d="M1.27063 30.0291C1.33495 30.0197 1.63895 30.3031 1.62961 30.2389C1.6846 30.1654 1.34429 30.0839 1.27063 30.0291Z" fill="#7D4E24"/>
<path d="M0.89447 30.1494C1.02312 30.1307 1.10612 30.2496 1.17045 30.2403C1.10612 30.2496 1.02312 30.1307 0.89447 30.1494Z" fill="#7D4E24"/>
<path d="M0.170655 18.8679C0.106331 18.8773 0.0783081 18.6848 0.0783081 18.6848C0.151973 18.7396 0.0513486 18.9508 0.170655 18.8679Z" fill="#7D4E24"/>
<path d="M0.243272 18.4644C0.123965 18.5473 0.253676 18.9871 0.189352 18.9965C0.318 18.9777 0.178948 18.4738 0.243272 18.4644Z" fill="#7D4E24"/>
</g>
<defs>
<clipPath id="clip0_337_2">
<rect width="121" height="126" fill="white"/>
</clipPath>
</defs>
</svg>
