<svg width="96" height="80" viewBox="0 0 96 80" fill="none" xmlns="http://www.w3.org/2000/svg">
<path d="M14.6856 0C14.683 0 14.6801 0 14.6775 0C13.7695 0 12.9156 0.386064 12.2707 1.08768C11.6188 1.79705 11.2596 2.74159 11.2596 3.74712V59.9345C11.2596 61.995 12.8024 63.6753 14.6991 63.6806C22.6952 63.7014 36.0918 65.5192 45.3336 76.0685V17.2668C45.3336 16.5684 45.17 15.9122 44.8614 15.3693C37.2761 2.04491 22.6997 0.0204491 14.6856 0Z" fill="#FDC839"/>
<path d="M84.7401 59.9349V3.74712C84.7401 2.74159 84.381 1.79705 83.7291 1.08768C83.0842 0.386064 82.2296 0 81.3226 0C81.3197 0 81.3168 0 81.3142 0C73.3004 0.0208017 58.724 2.04526 51.1384 15.3696C50.8297 15.9126 50.6665 16.5687 50.6665 17.2671V76.0685C59.9083 65.5192 73.3049 63.7014 81.301 63.6806C83.1974 63.6753 84.7401 61.995 84.7401 59.9349Z" fill="#FDC839"/>
<path d="M92.5653 12.958H90.0745V59.9349C90.0745 65.1956 86.145 69.4853 81.3146 69.4983C74.5323 69.516 63.3492 70.9626 55.4291 79.139C69.1269 75.4808 83.5669 77.8588 91.7963 79.9045C92.8239 80.1597 93.8857 79.896 94.709 79.1803C95.5293 78.4663 96 77.3991 96 76.2536V16.7044C96.0003 14.6387 94.4591 12.958 92.5653 12.958Z" fill="#FDC839"/>
<path d="M5.92545 59.9349V12.958H3.43464C1.54116 12.958 0 14.6387 0 16.7044V76.2525C0 77.3984 0.470623 78.4653 1.29098 79.1792C2.1136 79.8946 3.17444 80.1594 4.20361 79.9034C12.433 77.8574 26.8734 75.4797 40.5706 79.138C32.6508 70.9619 21.4677 69.5156 14.6853 69.498C9.85529 69.4853 5.92545 65.1956 5.92545 59.9349Z" fill="#FDC839"/>
</svg>


