<svg width="80" height="80" viewBox="0 0 80 80" fill="none" xmlns="http://www.w3.org/2000/svg">
<path d="M75.2614 21.6516C75.2459 23.0441 75.0509 24.3957 74.6993 25.6848L54.1168 5.35173C55.4649 4.96849 56.8837 4.75508 58.3485 4.73881L58.2961 0C46.8491 0.127008 37.5691 9.5239 37.6094 20.9415L37.6277 37.6275L20.9472 37.6092C20.9221 37.609 20.8986 37.609 20.8735 37.609C9.48409 37.609 0.126535 46.8743 0 58.2959L4.73881 58.3484C4.75429 56.9541 4.9478 55.6014 5.29692 54.3118L25.8792 74.6443C24.5317 75.0299 23.1144 75.2451 21.6515 75.2612L21.7041 80C33.0972 79.8736 42.3775 70.4818 42.3913 59.0586L42.3722 42.3723L59.0641 42.3911C70.4816 42.3775 79.8735 33.0974 80 21.7042L75.2614 21.6516ZM42.3668 37.6329L42.3565 28.2606L51.8548 37.6436L42.3668 37.6329ZM20.8793 42.3482C20.8981 42.3482 20.9175 42.3483 20.9363 42.3483L21.3948 42.3488L37.6514 58.4082L37.6522 59.0586C37.6498 61.0299 37.2899 62.9227 36.6355 64.6759L15.1183 43.4195C16.9101 42.7281 18.8529 42.3482 20.8793 42.3482ZM30.4582 72.506L7.36933 49.6976C8.32079 48.2422 9.50004 46.9495 10.8543 45.8689L34.2387 68.9694C33.175 70.3391 31.8973 71.5347 30.4582 72.506ZM37.6438 51.739L28.1458 42.3562L37.633 42.367L37.6438 51.739ZM58.606 37.6515L42.3493 21.5919L42.3485 20.9306C42.3415 18.9568 42.6957 17.0616 43.3473 15.3069L64.8656 36.5644C63.0613 37.2639 61.1045 37.6495 59.0641 37.652L58.606 37.6515ZM69.1281 34.1135L45.7428 11.0117C46.8067 9.64411 48.0866 8.45064 49.5293 7.48149L72.6185 30.2907C71.6648 31.7423 70.4838 33.0333 69.1281 34.1135Z" fill="#CD609D"/>
</svg>

