<svg width="67" height="80" viewBox="0 0 67 80" fill="none" xmlns="http://www.w3.org/2000/svg">
<path d="M43.3319 6.66667H23.3319C21.4919 6.66667 19.9985 5.17333 19.9985 3.33333C19.9985 1.49333 21.4919 0 23.3319 0H43.3319C45.1719 0 46.6652 1.49333 46.6652 3.33333C46.6652 5.17333 45.1719 6.66667 43.3319 6.66667Z" fill="#2ECBB6"/>
<path d="M51.3945 80.0003H18.2412C7.81787 80.0003 0.494536 74.4237 0.0245355 66.1203C-0.158798 62.877 0.687869 59.7437 2.47787 57.0637L21.5745 29.3037C22.7212 27.627 23.3312 25.667 23.3312 23.6337V5.00033C23.3312 3.16033 24.8245 1.66699 26.6645 1.66699C28.5045 1.66699 29.9979 3.16033 29.9979 5.00033V23.6337C29.9979 27.0237 28.9812 30.2903 27.0612 33.0803L7.99454 60.8003C7.0412 62.2303 6.57787 63.9503 6.67787 65.7403C6.9412 70.3537 11.4779 73.3337 18.2412 73.3337H51.3979C55.8945 73.3337 59.7479 69.9303 59.9845 65.7437C60.0879 63.9537 59.6245 62.2337 58.6412 60.7637L39.6012 33.0803C37.6812 30.2903 36.6645 27.0237 36.6645 23.6337V5.00033C36.6645 3.16033 38.1579 1.66699 39.9979 1.66699C41.8379 1.66699 43.3312 3.16033 43.3312 5.00033V23.6337C43.3312 25.667 43.9412 27.627 45.0912 29.3003L64.1579 57.0203C65.9745 59.7403 66.8212 62.8737 66.6379 66.117C66.1979 73.9037 59.5012 80.0003 51.3945 80.0003Z" fill="#2ECBB6"/>
<path d="M49.4851 66.6663H17.1785C15.0585 66.6663 13.3318 65.0096 13.3318 62.9763C13.3318 62.1796 13.5918 61.423 14.0851 60.783C14.1285 60.7263 14.1751 60.6696 14.2251 60.6163L23.6485 48.3296C24.0951 47.7496 24.7718 47.393 25.5051 47.3563C26.1085 47.3263 26.6918 47.1863 27.1518 46.963L29.2318 45.9263C31.7318 44.7063 34.9385 44.703 37.4218 45.9163L39.5418 46.973C39.9785 47.183 40.5618 47.323 41.1651 47.3563C41.8951 47.393 42.5751 47.7496 43.0218 48.3296L52.4451 60.613C52.4951 60.6663 52.5418 60.723 52.5851 60.7796C53.0718 61.4196 53.3318 62.1796 53.3318 62.9763C53.3318 65.0096 51.6051 66.6663 49.4851 66.6663V66.6663Z" fill="#2ECBB6"/>
</svg>
