
<svg width="36" height="36" viewBox="0 0 36 36" fill="none" xmlns="http://www.w3.org/2000/svg">
<path d="M32.9506 7.98435L32.4121 8.15509L29.5438 8.41063L28.7337 9.70437L28.1458 9.51758L25.8632 7.45952L25.532 6.38924L25.0885 5.24791L23.6539 3.96105L21.9613 3.62988L21.9224 4.40452L23.5805 6.02255L24.3918 6.97824L23.4797 7.45494L22.7371 7.23607L21.6244 6.77198L21.6623 5.87473L20.2024 5.27427L19.7176 7.38389L18.2463 7.71735L18.3918 8.89421L20.3089 9.26319L20.6401 7.38275L22.2226 7.61651L22.9583 8.04738H24.1386L24.9464 9.66541L27.0882 11.8381L26.9312 12.6826L25.2043 12.4626L22.2203 13.9695L20.0717 16.5466L19.7921 17.6879H19.0209L17.584 17.0256L16.1882 17.6879L16.5354 19.1604L17.1428 18.4603L18.2108 18.4271L18.1363 19.7494L19.0209 20.0084L19.9044 21.0008L21.3471 20.5951L22.995 20.8552L24.9086 21.3698L25.8643 21.4821L27.4846 23.3212L30.6118 25.1604L28.5893 29.0245L26.4545 30.0168L25.6443 32.225L22.5549 34.2876L22.226 35.4771C30.1237 33.5749 35.9988 26.4805 35.9988 17.9985C35.9965 14.2937 34.8735 10.8457 32.9506 7.98435Z" fill="#F36B41"/>
<path d="M20.0707 27.4066L18.7598 24.9762L19.963 22.4689L18.7598 22.1091L17.4088 20.7523L14.4156 20.0808L13.4221 18.0021V19.2363H12.9844L10.4049 15.739V12.8662L8.51419 9.79167L5.5119 10.3268H3.48936L2.47179 9.65989L3.77011 8.63086L2.47523 8.92994C0.914494 11.5953 0.00463867 14.6882 0.00463867 18.001C0.00463867 27.9395 8.06155 35.9998 18.0012 35.9998C18.7667 35.9998 19.5172 35.9322 20.2598 35.8428L20.0719 33.6622C20.0719 33.6622 20.8981 30.4238 20.8981 30.3138C20.8969 30.2027 20.0707 27.4066 20.0707 27.4066Z" fill="#F36B41"/>
<path d="M6.69228 5.80405L9.88937 5.35829L11.363 4.55042L13.0212 5.02827L15.6705 4.88159L16.5781 3.45493L17.9016 3.67265L21.1159 3.37128L22.0017 2.39496L23.2507 1.56073L25.0177 1.82659L25.6617 1.72918C23.3344 0.63369 20.7446 0 18.0001 0C12.4138 0 7.41879 2.54622 4.12085 6.54431H4.13002L6.69228 5.80405ZM18.761 1.78992L20.5991 0.778075L21.7794 1.45989L20.0708 2.7605L18.439 2.92437L17.7045 2.44767L18.761 1.78992ZM13.3168 1.93774L14.1281 2.27578L15.1904 1.93774L15.7691 2.94041L13.3168 3.58442L12.1377 2.89458C12.1365 2.89458 13.2904 2.15202 13.3168 1.93774Z" fill="#F36B41"/>
</svg>
