<svg width="81" height="60" viewBox="0 0 81 60" fill="none" xmlns="http://www.w3.org/2000/svg">
<path d="M5.3 0.200195C2.66875 0.200195 0.5 2.36895 0.5 5.0002V53.0002C0.5 55.6314 2.66875 57.8002 5.3 57.8002H36.95C37.8313 58.7752 39.0875 59.4002 40.5 59.4002C41.9125 59.4002 43.1688 58.7752 44.05 57.8002H75.7C78.3313 57.8002 80.5 55.6314 80.5 53.0002V5.0002C80.5 2.36895 78.3313 0.200195 75.7 0.200195H43.7C42.475 0.200195 41.35 0.681445 40.5 1.4502C39.65 0.681445 38.525 0.200195 37.3 0.200195H5.3ZM5.3 3.4002H37.3C38.2063 3.4002 38.9 4.09395 38.9 5.0002V54.6002H5.3C4.39375 54.6002 3.7 53.9064 3.7 53.0002V5.0002C3.7 4.09395 4.39375 3.4002 5.3 3.4002ZM43.7 3.4002H75.7C76.6063 3.4002 77.3 4.09395 77.3 5.0002V53.0002C77.3 53.9064 76.6063 54.6002 75.7 54.6002H42.1V5.0002C42.1 4.09395 42.7938 3.4002 43.7 3.4002ZM9.65 11.4002C8.76875 11.5252 8.15 12.3439 8.275 13.2252C8.4 14.1064 9.21875 14.7252 10.1 14.6002H22.9C23.475 14.6064 24.0125 14.3064 24.3063 13.8064C24.5938 13.3064 24.5938 12.6939 24.3063 12.1939C24.0125 11.6939 23.475 11.3939 22.9 11.4002H10.1C10.05 11.4002 10 11.4002 9.95 11.4002C9.9 11.4002 9.85 11.4002 9.8 11.4002C9.75 11.4002 9.7 11.4002 9.65 11.4002ZM29.3 11.4002C28.4188 11.4002 27.7 12.1189 27.7 13.0002C27.7 13.8814 28.4188 14.6002 29.3 14.6002C30.1813 14.6002 30.9 13.8814 30.9 13.0002C30.9 12.1189 30.1813 11.4002 29.3 11.4002ZM34.1 11.4002C33.2188 11.4002 32.5 12.1189 32.5 13.0002C32.5 13.8814 33.2188 14.6002 34.1 14.6002C34.9813 14.6002 35.7 13.8814 35.7 13.0002C35.7 12.1189 34.9813 11.4002 34.1 11.4002ZM48.05 11.4002C47.1688 11.5252 46.55 12.3439 46.675 13.2252C46.8 14.1064 47.6188 14.7252 48.5 14.6002H61.3C61.875 14.6064 62.4125 14.3064 62.7063 13.8064C62.9938 13.3064 62.9938 12.6939 62.7063 12.1939C62.4125 11.6939 61.875 11.3939 61.3 11.4002H48.5C48.45 11.4002 48.4 11.4002 48.35 11.4002C48.3 11.4002 48.25 11.4002 48.2 11.4002C48.15 11.4002 48.1 11.4002 48.05 11.4002ZM67.7 11.4002C66.8188 11.4002 66.1 12.1189 66.1 13.0002C66.1 13.8814 66.8188 14.6002 67.7 14.6002C68.5813 14.6002 69.3 13.8814 69.3 13.0002C69.3 12.1189 68.5813 11.4002 67.7 11.4002ZM72.5 11.4002C71.6188 11.4002 70.9 12.1189 70.9 13.0002C70.9 13.8814 71.6188 14.6002 72.5 14.6002C73.3813 14.6002 74.1 13.8814 74.1 13.0002C74.1 12.1189 73.3813 11.4002 72.5 11.4002ZM9.65 19.4002C8.76875 19.5252 8.15 20.3439 8.275 21.2252C8.4 22.1064 9.21875 22.7252 10.1 22.6002H22.9C23.475 22.6064 24.0125 22.3064 24.3063 21.8064C24.5938 21.3064 24.5938 20.6939 24.3063 20.1939C24.0125 19.6939 23.475 19.3939 22.9 19.4002H10.1C10.05 19.4002 10 19.4002 9.95 19.4002C9.9 19.4002 9.85 19.4002 9.8 19.4002C9.75 19.4002 9.7 19.4002 9.65 19.4002ZM29.3 19.4002C28.4188 19.4002 27.7 20.1189 27.7 21.0002C27.7 21.8814 28.4188 22.6002 29.3 22.6002C30.1813 22.6002 30.9 21.8814 30.9 21.0002C30.9 20.1189 30.1813 19.4002 29.3 19.4002ZM34.1 19.4002C33.2188 19.4002 32.5 20.1189 32.5 21.0002C32.5 21.8814 33.2188 22.6002 34.1 22.6002C34.9813 22.6002 35.7 21.8814 35.7 21.0002C35.7 20.1189 34.9813 19.4002 34.1 19.4002ZM48.05 19.4002C47.1688 19.5252 46.55 20.3439 46.675 21.2252C46.8 22.1064 47.6188 22.7252 48.5 22.6002H61.3C61.875 22.6064 62.4125 22.3064 62.7063 21.8064C62.9938 21.3064 62.9938 20.6939 62.7063 20.1939C62.4125 19.6939 61.875 19.3939 61.3 19.4002H48.5C48.45 19.4002 48.4 19.4002 48.35 19.4002C48.3 19.4002 48.25 19.4002 48.2 19.4002C48.15 19.4002 48.1 19.4002 48.05 19.4002ZM67.7 19.4002C66.8188 19.4002 66.1 20.1189 66.1 21.0002C66.1 21.8814 66.8188 22.6002 67.7 22.6002C68.5813 22.6002 69.3 21.8814 69.3 21.0002C69.3 20.1189 68.5813 19.4002 67.7 19.4002ZM72.5 19.4002C71.6188 19.4002 70.9 20.1189 70.9 21.0002C70.9 21.8814 71.6188 22.6002 72.5 22.6002C73.3813 22.6002 74.1 21.8814 74.1 21.0002C74.1 20.1189 73.3813 19.4002 72.5 19.4002ZM9.65 27.4002C8.76875 27.5252 8.15 28.3439 8.275 29.2252C8.4 30.1064 9.21875 30.7252 10.1 30.6002H22.9C23.475 30.6064 24.0125 30.3064 24.3063 29.8064C24.5938 29.3064 24.5938 28.6939 24.3063 28.1939C24.0125 27.6939 23.475 27.3939 22.9 27.4002H10.1C10.05 27.4002 10 27.4002 9.95 27.4002C9.9 27.4002 9.85 27.4002 9.8 27.4002C9.75 27.4002 9.7 27.4002 9.65 27.4002ZM34.1 27.4002C33.2188 27.4002 32.5 28.1189 32.5 29.0002C32.5 29.8814 33.2188 30.6002 34.1 30.6002C34.9813 30.6002 35.7 29.8814 35.7 29.0002C35.7 28.1189 34.9813 27.4002 34.1 27.4002ZM48.05 27.4002C47.1688 27.5252 46.55 28.3439 46.675 29.2252C46.8 30.1064 47.6188 30.7252 48.5 30.6002H61.3C61.875 30.6064 62.4125 30.3064 62.7063 29.8064C62.9938 29.3064 62.9938 28.6939 62.7063 28.1939C62.4125 27.6939 61.875 27.3939 61.3 27.4002H48.5C48.45 27.4002 48.4 27.4002 48.35 27.4002C48.3 27.4002 48.25 27.4002 48.2 27.4002C48.15 27.4002 48.1 27.4002 48.05 27.4002ZM72.5 27.4002C71.6188 27.4002 70.9 28.1189 70.9 29.0002C70.9 29.8814 71.6188 30.6002 72.5 30.6002C73.3813 30.6002 74.1 29.8814 74.1 29.0002C74.1 28.1189 73.3813 27.4002 72.5 27.4002ZM9.65 35.4002C8.76875 35.5252 8.15 36.3439 8.275 37.2252C8.4 38.1064 9.21875 38.7252 10.1 38.6002H22.9C23.475 38.6064 24.0125 38.3064 24.3063 37.8064C24.5938 37.3064 24.5938 36.6939 24.3063 36.1939C24.0125 35.6939 23.475 35.3939 22.9 35.4002H10.1C10.05 35.4002 10 35.4002 9.95 35.4002C9.9 35.4002 9.85 35.4002 9.8 35.4002C9.75 35.4002 9.7 35.4002 9.65 35.4002ZM29.3 35.4002C28.4188 35.4002 27.7 36.1189 27.7 37.0002C27.7 37.8814 28.4188 38.6002 29.3 38.6002C30.1813 38.6002 30.9 37.8814 30.9 37.0002C30.9 36.1189 30.1813 35.4002 29.3 35.4002ZM34.1 35.4002C33.2188 35.4002 32.5 36.1189 32.5 37.0002C32.5 37.8814 33.2188 38.6002 34.1 38.6002C34.9813 38.6002 35.7 37.8814 35.7 37.0002C35.7 36.1189 34.9813 35.4002 34.1 35.4002ZM9.65 43.4002C8.76875 43.5252 8.15 44.3439 8.275 45.2252C8.4 46.1064 9.21875 46.7252 10.1 46.6002H22.9C23.475 46.6064 24.0125 46.3064 24.3063 45.8064C24.5938 45.3064 24.5938 44.6939 24.3063 44.1939C24.0125 43.6939 23.475 43.3939 22.9 43.4002H10.1C10.05 43.4002 10 43.4002 9.95 43.4002C9.9 43.4002 9.85 43.4002 9.8 43.4002C9.75 43.4002 9.7 43.4002 9.65 43.4002ZM34.1 43.4002C33.2188 43.4002 32.5 44.1189 32.5 45.0002C32.5 45.8814 33.2188 46.6002 34.1 46.6002C34.9813 46.6002 35.7 45.8814 35.7 45.0002C35.7 44.1189 34.9813 43.4002 34.1 43.4002Z" fill="#333333"/>
</svg>
