<svg width="80" height="52" viewBox="0 0 80 52" fill="none" xmlns="http://www.w3.org/2000/svg">
<path d="M30.4 0.400391C27.7687 0.400391 25.6 2.56914 25.6 5.20039V14.8004H4.8C2.16875 14.8004 0 16.9691 0 19.6004V49.7004C0 50.5816 0.71875 51.3004 1.6 51.3004H78.4C79.2813 51.3004 80 50.5816 80 49.7004V26.0004C80 23.3691 77.8313 21.2004 75.2 21.2004H54.4V5.20039C54.4 2.56914 52.2313 0.400391 49.6 0.400391H30.4ZM30.4 3.60039H49.6C50.4875 3.60039 51.2 4.31289 51.2 5.20039V22.8004C51.2 23.6816 51.9187 24.4004 52.8 24.4004H75.2C76.0875 24.4004 76.8 25.1129 76.8 26.0004V48.1004H3.2V19.6004C3.2 18.7129 3.9125 18.0004 4.8 18.0004H27.2C28.0813 18.0004 28.8 17.2816 28.8 16.4004V5.20039C28.8 4.31289 29.5125 3.60039 30.4 3.60039ZM39.7 8.40039C39.5375 9.20039 39.1813 9.68164 38.7 10.0004C38.2188 10.3191 37.45 10.5004 36.65 10.5004H36.5V12.2504H39.05V21.2004H41.6V8.40039H39.7ZM15.2 22.8004C13.7625 22.8004 12.7875 23.1129 12.15 23.7504C11.5125 24.3879 11.2 25.2191 11.2 26.5004V26.9504H13.75V26.0004C13.75 25.6816 13.7375 25.3629 13.9 25.2004L14.4 24.7004C14.5625 24.5379 14.8812 24.5504 15.2 24.5504C16 24.5504 16.5 25.0316 16.5 26.1504V27.1004C16.5 27.2629 16.4625 27.5879 16.3 27.7504C16.1375 27.9129 16.0125 28.2379 15.85 28.4004L15.2 29.0504L14.1 30.0004C13.6188 30.4816 13.1188 30.8191 12.8 31.3004C12.3188 31.6191 12.0125 32.0691 11.85 32.5504L11.35 34.0004C11.1875 34.4816 11.2 34.9629 11.2 35.6004H19.2V33.5004H14.4C14.4 33.3379 14.55 33.0191 14.55 32.7004L17.9 29.3504C18.2188 29.0316 18.3875 28.7191 18.55 28.4004C18.7125 28.0816 18.9 27.7691 18.9 27.4504C19.0625 27.1316 19.05 26.7816 19.05 26.3004C19.05 25.1816 18.7375 24.3879 18.1 23.7504C17.4625 23.1129 16.4812 22.8004 15.2 22.8004ZM64.95 29.2004C63.8313 29.2004 62.8875 29.5129 62.25 30.1504C61.6125 30.7879 61.3 31.7691 61.3 33.0504H63.7V32.2504C63.7 32.0879 63.6875 31.7629 63.85 31.6004L64.3 31.1004C64.4625 30.9379 64.6313 30.9504 64.95 30.9504C65.4313 30.9504 65.7375 30.9816 65.9 31.3004C66.0625 31.4629 66.25 31.9129 66.25 32.5504C66.25 32.8691 66.1 33.0316 66.1 33.3504C65.9375 33.6691 65.9125 33.8379 65.75 34.0004L65.3 34.5004C65.1375 34.6629 64.9688 34.6504 64.65 34.6504H63.85V36.4004H64.65C64.9688 36.4004 65.2875 36.3879 65.45 36.5504L65.9 37.0504C66.0625 37.2129 66.25 37.3816 66.25 37.7004V39.3004C66.25 39.4629 66.2625 39.7379 66.1 39.9004L65.6 40.4004C65.4375 40.5629 65.1188 40.5504 64.8 40.5504C64.3188 40.5504 63.8625 40.2191 63.7 39.9004C63.5375 39.4191 63.3813 38.9816 63.7 38.5004H61.1C61.1 39.7816 61.4625 40.7129 62.1 41.3504C62.5813 41.9879 63.5188 42.3004 64.8 42.3004C65.6 42.3004 66.4188 42.1629 66.9 42.0004C67.3813 41.6816 67.8313 41.3691 68.15 41.0504C68.4688 40.5691 68.6375 40.2316 68.8 39.7504C68.9625 39.2691 68.95 38.9816 68.95 38.5004C68.95 37.7004 68.8188 36.8816 68.5 36.4004C68.1812 35.9191 67.5 35.6129 66.7 35.4504C67.3375 35.2879 67.8313 34.9816 68.15 34.5004C68.4688 34.0191 68.65 33.3504 68.65 32.5504C68.65 31.2691 68.3375 30.4816 67.7 30.0004C67.0625 29.5191 66.0688 29.2004 64.95 29.2004Z" fill="#333333"/>
</svg>
