<svg width="20" height="20" viewBox="0 0 20 20" fill="none" xmlns="http://www.w3.org/2000/svg">
<path d="M17.4999 9.78265C17.4976 9.62001 17.4319 9.4647 17.3168 9.34971L11.4835 3.51637C11.4259 3.45639 11.3569 3.4085 11.2806 3.37551C11.2043 3.34252 11.1221 3.3251 11.039 3.32425C10.9558 3.32341 10.8733 3.33916 10.7964 3.37059C10.7194 3.40202 10.6494 3.4485 10.5906 3.5073C10.5318 3.56609 10.4854 3.63603 10.4539 3.71302C10.4225 3.79 10.4067 3.87249 10.4076 3.95564C10.4084 4.03879 10.4259 4.12093 10.4589 4.19726C10.4918 4.27359 10.5397 4.34257 10.5997 4.40016L15.3661 9.1666L3.12494 9.1666C3.04212 9.16543 2.95989 9.18073 2.88304 9.21161C2.80618 9.2425 2.73623 9.28835 2.67725 9.3465C2.61827 9.40465 2.57143 9.47395 2.53947 9.55036C2.5075 9.62677 2.49104 9.70877 2.49104 9.7916C2.49104 9.87443 2.5075 9.95643 2.53947 10.0328C2.57143 10.1093 2.61827 10.1785 2.67725 10.2367C2.73623 10.2949 2.80618 10.3407 2.88304 10.3716C2.95989 10.4025 3.04212 10.4178 3.12494 10.4166L15.3661 10.4166L10.5997 15.183C10.5397 15.2406 10.4918 15.3096 10.4589 15.3859C10.4259 15.4623 10.4084 15.5444 10.4076 15.6276C10.4067 15.7107 10.4225 15.7932 10.4539 15.8702C10.4854 15.9472 10.5318 16.0171 10.5906 16.0759C10.6494 16.1347 10.7194 16.1812 10.7964 16.2126C10.8733 16.244 10.9558 16.2598 11.039 16.2589C11.1221 16.2581 11.2043 16.2407 11.2806 16.2077C11.3569 16.1747 11.4259 16.1268 11.4835 16.0668L17.3168 10.2335C17.3759 10.1744 17.4226 10.1041 17.4541 10.0266C17.4855 9.94918 17.5011 9.86622 17.4999 9.78265Z" fill="#5F3C07"/>
</svg>
