<svg width="25" height="22" viewBox="0 0 25 22" fill="none" xmlns="http://www.w3.org/2000/svg">
<path d="M9.89013e-05 10.6528C0.00390393 10.3926 0.109 10.1441 0.293068 9.96012L9.6264 0.626782C9.71855 0.530811 9.82891 0.45419 9.95104 0.401407C10.0732 0.348624 10.2046 0.32074 10.3376 0.319387C10.4707 0.318035 10.6027 0.343241 10.7258 0.39353C10.849 0.443819 10.9609 0.51818 11.055 0.612258C11.1491 0.706336 11.2234 0.818239 11.2737 0.941415C11.324 1.06459 11.3492 1.19656 11.3479 1.3296C11.3465 1.46264 11.3186 1.59407 11.2658 1.7162C11.2131 1.83833 11.1364 1.9487 11.0405 2.04084L3.41416 9.66715L23.0001 9.66715C23.1326 9.66527 23.2642 9.68975 23.3871 9.73917C23.5101 9.78858 23.622 9.86194 23.7164 9.95499C23.8108 10.048 23.8857 10.1589 23.9369 10.2812C23.988 10.4034 24.0143 10.5346 24.0143 10.6671C24.0143 10.7997 23.988 10.9309 23.9369 11.0531C23.8857 11.1754 23.8108 11.2863 23.7164 11.3793C23.622 11.4724 23.5101 11.5457 23.3871 11.5951C23.2642 11.6445 23.1326 11.669 23.0001 11.6671L3.41416 11.6671L11.0405 19.2934C11.1364 19.3856 11.2131 19.496 11.2658 19.6181C11.3186 19.7402 11.3465 19.8717 11.3479 20.0047C11.3492 20.1377 11.324 20.2697 11.2737 20.3929C11.2234 20.5161 11.1491 20.628 11.055 20.722C10.9609 20.8161 10.849 20.8905 10.7258 20.9408C10.6027 20.9911 10.4707 21.0163 10.3376 21.0149C10.2046 21.0136 10.0732 20.9857 9.95104 20.9329C9.82892 20.8801 9.71855 20.8035 9.6264 20.7075L0.293068 11.3742C0.198486 11.2796 0.123826 11.1671 0.0735048 11.0432C0.0231834 10.9193 -0.0017774 10.7865 9.89013e-05 10.6528Z" fill="#333333"/>
</svg>
