<svg width="25" height="25" viewBox="0 0 25 25" fill="none" xmlns="http://www.w3.org/2000/svg">
<path d="M24.7855 6.42934L18.5706 0.214527C18.2846 -0.071509 17.8208 -0.071509 17.5348 0.214527L14.3296 3.41962C14.0436 3.70565 14.0436 4.16937 14.3296 4.45541L14.6469 4.7727L6.26401 8.96412C6.10355 9.04434 5.97811 9.18067 5.91151 9.34722L0.05459 23.9892C0.0537111 23.9914 0.052881 23.9935 0.0520509 23.9956C0.0445313 24.0144 0.038037 24.0334 0.0321776 24.0524C0.0194821 24.0939 0.00947218 24.1418 0.00444281 24.1877C-0.0170907 24.3846 0.040625 24.5726 0.156447 24.7197C0.160744 24.7252 0.164992 24.7307 0.169484 24.7361C0.345805 24.9477 0.616463 25.0357 0.870227 24.9869C0.888977 24.9833 0.907483 24.9785 0.925989 24.9734C0.929847 24.9724 0.933802 24.9717 0.937659 24.9706C0.962367 24.9634 0.986732 24.9548 1.01071 24.945L15.6528 19.0883C15.8193 19.0217 15.9556 18.8962 16.0359 18.7358L20.2273 10.3529L20.5446 10.6702C20.6877 10.8132 20.8751 10.8848 21.0625 10.8848C21.2499 10.8848 21.4374 10.8133 21.5804 10.6702L24.7855 7.46514C25.0715 7.17915 25.0715 6.71543 24.7855 6.42934ZM14.8502 17.8316L3.77315 22.2624L10.0394 15.9963C10.3262 16.1338 10.6473 16.211 10.9861 16.211C12.1977 16.211 13.1834 15.2253 13.1834 14.0137C13.1834 12.8022 12.1977 11.8165 10.9861 11.8165C9.77451 11.8165 8.7888 12.8022 8.7888 14.0137C8.7888 14.3525 8.866 14.6737 9.00355 14.9605L2.73734 21.2266L7.16812 10.1497L15.7388 5.8645L19.1354 9.26114L14.8502 17.8316ZM10.2537 14.0137C10.2537 13.6099 10.5822 13.2813 10.9861 13.2813C11.39 13.2813 11.7185 13.6099 11.7185 14.0137C11.7185 14.4176 11.39 14.7462 10.9861 14.7462C10.5822 14.7462 10.2537 14.4176 10.2537 14.0137ZM21.0625 9.11651L20.5352 8.58921C20.5347 8.58877 20.5343 8.58833 20.5338 8.58789L16.4121 4.46615C16.4115 4.46562 16.411 4.46508 16.4104 4.46454L15.8834 3.93754L18.0527 1.76829L23.2317 6.94731L21.0625 9.11651Z" fill="black"/>
</svg>
