<svg width="31" height="31" viewBox="0 0 31 31" fill="none" xmlns="http://www.w3.org/2000/svg">
<g clip-path="url(#clip0_25_775)">
<path d="M25.8533 0H5.14648C3.21017 0 1.63477 1.5754 1.63477 3.51172V25.9138C1.63477 26.9155 2.44955 27.7302 3.45117 27.7302H11.4029C11.7373 27.7302 12.0084 27.4592 12.0084 27.1248C12.0084 26.7903 11.7373 26.5193 11.4029 26.5193H3.45117C3.11722 26.5193 2.8457 26.2478 2.8457 25.9138V3.51172C2.8457 2.24307 3.87784 1.21094 5.14648 1.21094H23.2036C22.6675 1.82776 22.3416 2.63213 22.3416 3.51172V23.0239C22.3416 23.5825 21.8872 24.0369 21.3286 24.0369C20.892 24.0369 20.5058 23.7585 20.3674 23.3444L19.4549 20.6065C19.1974 19.8336 18.4767 19.3145 17.6622 19.3145C16.6201 19.3145 15.7725 20.1621 15.7725 21.2039V21.6755H12.6342C12.2998 21.6755 12.0287 21.9468 12.0287 22.281C12.0287 22.6154 12.2998 22.8865 12.6342 22.8865H15.7725V25.8987C15.7725 26.7927 15.9468 27.6645 16.2907 28.4894L17.1814 30.6273C17.2783 30.8597 17.5033 31 17.7405 31C17.818 31 17.897 30.9851 17.973 30.9534C18.2818 30.8247 18.4278 30.4702 18.2991 30.1616L17.4084 28.0237C17.1265 27.3471 16.9834 26.6321 16.9834 25.8989V21.2042C16.9834 20.8298 17.2878 20.5254 17.6622 20.5254C17.9548 20.5254 18.2137 20.7118 18.3062 20.9894L19.2187 23.7273C19.5219 24.6367 20.3698 25.2478 21.3286 25.2478C22.5549 25.2478 23.5525 24.2502 23.5525 23.0239V12.6432L24.3616 13.4506C25.8053 14.8915 26.6002 16.8084 26.6002 18.8478V25.284C26.6002 26.9512 26.2225 28.6285 25.5082 30.1348C25.3649 30.4369 25.4938 30.798 25.7958 30.9413C26.0978 31.0847 26.459 30.956 26.6023 30.6537C27.393 28.9863 27.8111 27.1295 27.8111 25.284V18.8478C27.8111 16.4844 26.8899 14.2633 25.2171 12.5935L23.5525 10.932V10.3535H27.5486C28.5502 10.3535 29.365 9.53873 29.365 8.53711V3.51172C29.365 1.5754 27.7898 0 25.8533 0V0ZM28.1541 8.53711C28.1541 8.87083 27.8825 9.14258 27.5486 9.14258H23.5525V3.51172C23.5525 2.24307 24.5846 1.21094 25.8533 1.21094C27.1219 1.21094 28.1541 2.24307 28.1541 3.51172V8.53711Z" fill="black"/>
<path d="M14.0469 26.5193C13.8875 26.5193 13.7314 26.5841 13.6188 26.6967C13.5062 26.8095 13.4414 26.9656 13.4414 27.1248C13.4414 27.2842 13.5062 27.4403 13.6188 27.5528C13.7314 27.6654 13.8875 27.7302 14.0469 27.7302C14.206 27.7302 14.3621 27.6654 14.475 27.5528C14.5875 27.4403 14.6523 27.2842 14.6523 27.1248C14.6523 26.9656 14.5875 26.8095 14.475 26.6967C14.3621 26.5841 14.206 26.5193 14.0469 26.5193Z" fill="black"/>
<path d="M9.97015 4.48047C9.97015 3.8128 9.42689 3.26953 8.75922 3.26953H6.09515C5.42725 3.26953 4.88422 3.8128 4.88422 4.48047V7.14453C4.88422 7.8122 5.42725 8.35547 6.09515 8.35547H8.75922C9.42689 8.35547 9.97015 7.8122 9.97015 7.14453V4.48047ZM8.75922 7.14453H6.09515V4.48047H8.75922L8.75993 7.14453C8.75993 7.14453 8.75969 7.14453 8.75922 7.14453Z" fill="black"/>
<path d="M9.97015 11.7461C9.97015 11.0784 9.42689 10.5352 8.75922 10.5352H6.09515C5.42725 10.5352 4.88422 11.0784 4.88422 11.7461V14.4102C4.88422 15.0778 5.42725 15.6211 6.09515 15.6211H8.75922C9.42689 15.6211 9.97015 15.0778 9.97015 14.4102V11.7461ZM8.75922 14.4102H6.09515V11.7461H8.75922L8.75993 14.4102C8.75993 14.4102 8.75969 14.4102 8.75922 14.4102Z" fill="black"/>
<path d="M8.75922 17.8008H6.09515C5.42725 17.8008 4.88422 18.3438 4.88422 19.0117V21.6755C4.88422 22.3435 5.42725 22.8865 6.09515 22.8865H8.75922C9.42689 22.8865 9.97015 22.3435 9.97015 21.6755V19.0117C9.97015 18.3438 9.42689 17.8008 8.75922 17.8008ZM8.75922 21.6755H6.09515V19.0117H8.75922L8.75993 21.6755C8.75993 21.6755 8.75969 21.6755 8.75922 21.6755Z" fill="black"/>
<path d="M19.5767 8.35547C19.9111 8.35547 20.1822 8.08443 20.1822 7.75C20.1822 7.41557 19.9111 7.14453 19.5767 7.14453H15.4028C15.0683 7.14453 14.7973 7.41557 14.7973 7.75C14.7973 8.08443 15.0683 8.35547 15.4028 8.35547H19.5767Z" fill="black"/>
<path d="M12.6342 8.35547C12.7936 8.35547 12.9497 8.29066 13.0623 8.17809C13.1749 8.06551 13.2397 7.90917 13.2397 7.75C13.2397 7.59083 13.1749 7.43449 13.0623 7.32191C12.9497 7.20934 12.7936 7.14453 12.6342 7.14453C12.4743 7.14453 12.3187 7.20934 12.2061 7.32191C12.0931 7.43449 12.0287 7.59083 12.0287 7.75C12.0287 7.90917 12.0931 8.06551 12.2061 8.17809C12.3187 8.29066 12.4743 8.35547 12.6342 8.35547Z" fill="black"/>
<path d="M12.634 15.6211H19.5768C19.9112 15.6211 20.1822 15.3501 20.1822 15.0156C20.1822 14.6812 19.9112 14.4102 19.5768 14.4102H12.634C12.2998 14.4102 12.0285 14.6812 12.0285 15.0156C12.0285 15.3501 12.2998 15.6211 12.634 15.6211Z" fill="black"/>
</g>
<defs>
<clipPath id="clip0_25_775">
<rect width="31" height="31" fill="white"/>
</clipPath>
</defs>
</svg>
