<svg id="SvgjsSvg1001" width="288" height="288" xmlns="http://www.w3.org/2000/svg" version="1.1" xmlns:xlink="http://www.w3.org/1999/xlink" xmlns:svgjs="http://svgjs.com/svgjs"><defs id="SvgjsDefs1002"></defs><g id="SvgjsG1008" transform="matrix(1,0,0,1,0,0)"><svg xmlns="http://www.w3.org/2000/svg" width="288" height="288" fill="none" viewBox="0 0 177 212"><path fill="#e2dede" d="M16.3857 157.818C17.103 155.353 17.7178 152.991 18.3326 150.629C18.9474 148.473 18.9474 148.678 21.0992 148.473C23.6608 148.268 26.2225 147.754 28.8866 147.343C29.2965 147.241 29.8088 147.035 30.2187 146.727C26.6324 146.111 23.046 146.625 19.3573 147.241C20.177 144.674 20.8942 142.209 21.8164 139.745C24.2756 132.967 26.5299 126.19 29.2965 119.515C31.5507 114.176 34.6247 109.041 37.3913 103.907C37.6987 103.394 38.3135 103.085 38.9283 102.88C45.2812 100.518 51.8391 98.2592 58.0895 95.6921C61.5733 94.2544 64.8523 92.3034 68.2337 90.6604C68.4386 90.5577 68.5411 90.455 68.6435 90.147C59.0117 93.5356 49.4823 97.027 39.4406 100.518C40.7727 98.5673 41.8998 96.8216 43.1294 95.1786C51.4292 83.3697 60.0364 71.8687 69.2583 60.7786C71.7175 57.8007 74.2792 54.9254 76.8408 52.0502C77.1482 51.6395 77.763 51.2287 76.6359 50.818C73.4594 54.412 70.078 57.9034 67.1065 61.7028C59.9339 71.0473 52.7612 80.4944 45.6911 89.9416C41.5924 95.2813 37.8012 100.826 34.6247 106.782C30.9359 113.56 27.657 120.645 24.8904 127.936C20.4844 139.334 16.8981 150.937 13.6191 162.541C10.7501 172.502 7.9835 182.565 5.11445 192.526C4.90951 193.244 4.70458 193.963 4.60211 194.682C4.19225 196.428 2.86019 198.276 0.91333 199.611C1.0158 196.941 1.0158 194.477 1.3232 192.012C2.24539 185.235 4.60212 178.766 6.54897 172.296C11.0575 156.38 16.4882 140.772 22.8411 125.471C24.3781 121.672 26.5299 118.078 28.4768 114.381C34.1124 103.702 40.4653 93.5356 47.5355 83.7804C54.913 73.5117 63.1103 63.8592 71.615 54.412C72.7422 53.1798 73.9718 51.8448 75.0989 50.6126C75.3038 50.4072 75.5088 50.0992 75.8162 49.6884C74.3816 49.7911 63.2128 62.0108 55.0155 71.9714C48.4577 79.8783 42.5146 88.1959 37.0839 96.9243C31.6532 105.55 26.6324 114.381 22.0214 123.52C21.9189 123.52 21.714 123.52 21.6115 123.52C20.177 117.77 18.7425 112.019 17.5129 106.269C17.2055 104.728 17.4104 103.086 18.2301 101.648C22.0214 94.5625 25.6077 87.3744 29.5014 80.3917C31.3458 77.1058 33.805 74.2305 35.9568 71.1499C36.0592 71.0472 36.2642 70.9446 36.5716 70.6365C36.879 74.5386 37.0839 78.1326 37.2888 81.7267C37.3913 81.7267 37.4938 81.7267 37.5962 81.7267C37.6987 81.0079 37.6987 80.1864 37.9036 79.4676C38.3135 76.5923 38.7234 73.6144 39.3382 70.7392C39.953 68.0693 41.3875 65.8102 43.2319 63.8592C51.0193 55.7469 59.0117 47.8401 67.6189 40.652C67.8238 40.4466 68.0287 40.3439 68.1312 40.2412C68.1312 39.8305 68.1312 39.7278 68.1312 39.7278C65.8769 38.701 64.9547 36.4418 63.2128 35.0042C61.3684 33.4639 59.729 31.7183 57.8846 30.0753C57.3722 29.5618 56.5525 29.2538 56.0402 28.9457C55.0155 27.8162 54.0933 26.5839 53.0686 25.5571C51.4292 23.9141 49.6873 22.1684 47.9453 20.6281C47.1256 19.9093 46.2034 19.4985 45.2812 18.9851C45.0763 18.8824 44.7689 18.677 44.7689 18.5744C44.8713 17.4448 43.8467 17.0341 43.2319 16.4179C42.1048 15.2884 40.8752 14.1588 39.5431 13.132C38.5184 12.3105 37.6987 11.0782 36.0593 10.9755C35.7519 10.9755 35.5469 10.5648 35.2395 10.3594C36.4691 6.45733 39.0308 3.58211 42.3097 1.22031C42.7196 0.912252 43.3344 0.706879 43.9492 0.706879C44.359 0.706879 44.7689 1.11763 45.0763 1.42569C45.6911 2.24718 46.1009 3.17136 46.7157 4.19823C47.1256 3.58211 47.3305 3.27405 47.5355 2.96599C48.5601 1.73375 49.4823 1.63106 50.6095 2.76061C51.3267 3.47942 51.4292 4.19823 50.7119 4.91703C49.6873 5.9439 49.8922 6.76539 50.8144 7.58689C53.4785 10.0514 56.0402 12.5158 58.7043 14.9803C59.1142 15.2884 59.729 15.3911 59.9339 15.4938C60.6512 16.4179 61.1635 17.2394 61.7783 17.8556C63.9301 19.9093 66.0819 22.0657 68.2337 24.0168C68.746 24.5302 69.5657 24.7356 70.283 25.1463C70.4879 25.249 70.7953 25.4544 71.0002 25.7624C71.4101 26.3785 71.7175 27.0974 72.2298 27.6108C73.8693 29.2538 75.7137 30.7941 77.4556 32.3344C82.6814 28.4323 87.9072 24.4275 93.133 20.5254C93.2354 20.6281 93.3379 20.6281 93.3379 20.7308C92.5182 25.249 91.596 29.8699 90.7762 34.3881C90.8787 34.3881 90.9812 34.4908 91.0836 34.4908C91.2886 34.0801 91.4935 33.772 91.596 33.3612C92.8256 29.5618 94.0551 25.7624 95.3872 21.8603C96.3094 19.0878 97.9489 16.9314 100.818 16.1099C103.994 15.1857 107.273 14.4669 110.655 13.8508C112.704 13.5427 114.651 14.1588 114.856 17.2394C115.676 25.249 113.729 32.2317 108.195 38.1875C106.658 39.8305 104.814 40.7547 102.56 40.9601C98.6661 41.3708 94.7724 41.7816 90.4688 42.1923C91.9034 43.4245 92.7231 44.9648 94.7724 44.7595C98.6661 44.3487 102.56 44.0407 106.556 43.7326C106.863 43.7326 107.171 43.6299 107.683 43.6299C105.122 46.2998 102.765 48.9696 100.203 51.6395C107.786 58.7249 115.266 65.7076 122.438 72.3822C123.463 72.2795 124.488 71.9714 125.205 72.2795C125.512 72.3822 125.41 73.7171 125.41 74.3332C127.767 76.7977 130.021 79.3649 132.378 81.8294C133.505 83.0616 134.324 82.9589 135.554 81.7267C136.579 80.6998 137.603 79.5702 138.628 78.338C139.345 78.9541 139.96 79.4676 140.575 80.1864C141.19 80.8025 140.677 81.4186 140.267 81.932C139.14 83.1643 138.013 84.3965 136.784 85.7315C139.243 87.7852 141.702 89.8389 144.161 91.8927C145.083 92.7141 146.006 93.5356 146.825 94.3571C147.44 94.9733 147.952 95.1786 148.772 94.8706C150.104 94.4598 151.334 94.0491 152.666 93.8437C153.588 93.741 154.613 94.0491 155.74 94.1518C154.51 96.4109 152.256 96.5135 150.207 97.8485C150.719 98.1565 151.129 98.3619 151.436 98.5673C160.453 108.014 167.728 118.694 172.339 131.016C174.389 136.561 175.208 142.414 175.721 148.268C176.028 151.554 176.233 154.84 176.233 158.126C176.438 165.416 175.003 172.399 172.852 179.279C171.93 182.36 170.597 185.235 169.573 188.213C169.368 188.726 169.06 189.342 169.163 189.856C169.47 192.012 167.831 193.039 166.704 194.374C166.499 194.579 165.782 194.579 165.372 194.477C163.937 194.066 162.503 193.552 161.068 192.936C159.531 192.32 158.301 192.628 157.072 193.861C155.74 195.401 154.203 195.709 152.666 194.887C151.231 194.066 150.514 192.526 151.026 190.677C151.539 188.726 150.924 187.186 149.387 185.954C148.465 185.235 147.543 184.619 146.62 183.9C145.801 183.284 144.878 182.668 144.059 181.949C143.034 181.127 142.727 179.998 143.136 178.663C145.186 171.372 147.235 164.081 148.977 156.688C150.412 150.732 151.129 144.674 150.617 138.512C150.514 137.075 150.207 135.637 149.899 134.2C148.465 134.405 147.235 134.61 145.903 134.713C139.755 135.226 134.222 133.891 129.713 129.579C127.562 127.525 125.41 125.574 123.258 123.52C121.209 121.569 120.799 119.207 121.516 116.64C122.233 113.868 123.463 111.3 125.717 109.452C126.23 109.041 126.742 108.528 127.152 107.912C128.176 106.68 128.074 105.858 126.639 105.139C124.59 104.01 122.336 103.085 120.287 101.956C116.393 100.005 112.806 97.4377 109.425 94.5625C109.22 94.3571 109.015 94.2544 108.4 93.8437C109.732 93.433 110.757 93.1249 111.782 92.9195C113.216 92.6115 114.343 91.79 115.061 90.5577C115.471 89.8389 115.573 89.2228 114.753 88.6067C113.934 87.9906 113.319 86.9637 111.884 87.0664C111.679 87.0664 111.269 86.2449 111.269 85.7315C111.372 85.1153 111.782 84.6019 112.192 83.8831C105.122 77.2085 97.9489 70.4311 90.6738 63.5511C89.2392 65.3995 87.9072 67.2478 86.5751 69.0962C84.5258 71.8687 82.5789 74.6413 80.5296 77.5165C80.1197 78.03 79.8123 78.6461 79.6074 79.2622C78.7877 81.4186 77.1482 82.8562 74.9964 83.4723C74.0742 83.7804 73.6644 84.1912 73.4594 85.1153C71.82 91.5846 69.0534 97.6431 65.672 103.394C61.8807 109.863 57.8846 116.127 54.0933 122.596C52.2489 125.779 49.4823 127.73 46.1009 128.757C42.0023 129.989 37.8012 130.811 33.7025 131.838C33.2927 131.94 32.8828 132.043 32.4729 132.146C33.7025 132.659 38.416 132.865 41.1826 132.249C43.9492 131.632 46.7157 130.708 49.5848 129.887C49.1749 131.119 48.7651 132.454 48.2527 133.686C46.9207 136.972 45.5886 140.258 43.3344 143.031C41.5924 145.29 39.2357 146.317 36.3666 146.317C35.9568 146.317 35.342 146.625 35.2395 146.83C33.9075 151.04 31.0384 153.71 26.8373 155.148C23.8658 156.585 20.2795 157.407 16.3857 157.818ZM144.981 96.6162C145.083 96.4109 145.186 96.3082 145.391 96.1028C142.829 96.5135 140.78 98.0538 140.472 99.7995C141.907 98.3619 143.034 96.8216 144.981 96.6162C144.981 96.7189 144.878 96.8216 144.776 96.8216C143.854 97.335 143.649 97.9512 144.264 98.8753C144.878 99.5941 145.698 99.6968 146.518 98.8753C147.03 98.3619 147.338 97.6431 147.85 97.1297C148.157 96.8216 148.67 96.6162 148.977 96.3082C149.08 96.4109 149.182 96.6162 149.284 96.7189C148.977 96.9243 148.567 97.1297 148.26 97.335C148.362 97.4377 148.465 97.6431 148.567 97.7458C149.08 97.335 149.592 97.027 150.104 96.6162C151.231 97.027 151.231 97.027 151.744 95.8974C152.051 96.0001 152.461 96.2055 152.871 96.3082C152.666 95.6921 152.461 95.2813 152.256 94.8706C153.178 94.9733 153.895 94.9733 154.613 95.0759C153.178 94.0491 151.949 94.2544 151.436 95.384C151.334 95.2813 151.334 95.1786 151.231 95.0759C150.719 95.384 150.104 95.5894 149.489 96.0001C148.362 95.4867 148.055 95.5894 147.338 96.8216C147.03 97.335 146.723 97.8485 146.415 98.2592C146.006 98.7727 145.391 98.978 144.571 98.4646C145.186 98.3619 145.698 98.2592 146.21 98.0539C146.313 97.9512 146.313 97.8485 146.415 97.7458C145.903 97.335 145.493 96.9243 144.981 96.6162ZM146.825 129.579C145.083 127.73 143.341 125.882 140.472 126.498C140.165 126.601 139.858 126.498 139.448 126.498C138.116 126.293 136.886 126.293 135.759 127.32C134.939 128.038 133.915 127.833 133.197 127.011C132.48 126.19 132.275 125.369 132.992 124.444C133.607 123.52 134.529 123.52 135.349 123.931C135.656 124.034 135.861 124.136 136.066 124.342C137.603 125.677 140.882 124.958 142.624 123.315C144.059 121.877 144.366 119.823 142.932 117.77C141.702 115.921 140.267 114.176 138.73 112.635C137.398 111.403 135.759 110.376 134.017 109.555C131.865 108.631 130.226 109.144 128.791 110.992C128.074 111.917 127.357 112.841 126.844 113.765C124.897 117.154 125 120.542 127.562 123.623C128.894 125.266 130.431 126.703 132.07 128.141C136.374 131.735 141.804 132.249 146.825 129.579ZM168.856 161.925C170.393 159.05 169.675 144.776 167.523 136.253C164.859 125.677 159.838 116.332 153.178 107.501C151.334 110.479 150.104 113.97 145.493 113.046C146.21 114.381 146.723 115.408 147.235 116.332C149.797 120.748 153.178 124.444 156.867 127.936C157.482 128.449 157.994 129.168 158.199 129.887C158.506 131.119 158.609 132.454 158.711 133.789C159.736 142.928 162.912 151.348 167.319 159.358C167.728 160.282 168.241 161.001 168.856 161.925ZM167.523 189.24C166.601 187.699 167.011 186.159 167.626 184.721C168.036 183.9 168.446 182.976 168.753 182.154C174.081 167.778 174.184 153.094 170.597 138.307C170.393 137.28 169.88 136.253 169.47 135.329C169.47 137.28 169.778 139.231 170.085 141.08C171.52 149.5 171.93 157.92 170.7 166.34C169.983 171.577 168.241 176.506 165.679 181.025C163.937 184.003 161.785 184.824 158.404 183.9C157.687 183.695 156.969 183.386 156.355 183.181C155.432 182.873 154.51 182.462 153.486 182.154C157.687 185.235 162.298 187.597 167.523 189.24ZM116.803 79.7756C117.11 79.3649 117.315 79.1595 117.52 78.9541C118.75 77.7219 118.852 77.7219 117.52 76.5923C117.315 76.387 117.11 76.1816 116.905 75.9762C114.036 73.3064 111.167 70.5338 108.298 67.864C104.404 64.2699 100.408 60.5732 96.5143 56.9792C96.1045 57.4926 95.7971 57.8007 95.3872 58.2114C95.5921 58.5195 95.8995 58.8275 96.1045 59.1356L96.002 59.2383C95.6946 59.0329 95.3872 58.8275 95.0798 58.5195C94.9773 58.6222 94.8749 58.6222 94.7724 58.7249C94.9773 59.0329 95.1823 59.4437 95.4897 59.7517C102.457 66.4264 109.63 73.101 116.803 79.7756ZM98.3587 54.3093C98.4612 54.5147 98.5637 54.6174 98.6661 54.7201C105.839 61.3947 113.011 68.172 120.287 74.8467C120.491 75.052 121.209 74.9493 121.516 74.744C122.233 74.1279 122.131 73.5117 121.414 72.8956C119.877 71.5607 118.237 70.1231 116.7 68.6855C111.372 63.7565 106.146 58.7249 100.818 53.7959C100.408 53.4878 100.101 53.0771 99.5883 52.769C99.1785 53.2825 98.7686 53.7959 98.3587 54.3093ZM170.802 128.963C169.06 121.569 156.764 103.291 150.821 99.1834C151.231 100.21 151.641 101.237 152.358 102.059C159.224 109.041 164.347 117.256 169.06 125.677C169.675 126.703 170.29 127.833 170.802 128.963ZM146.518 94.1518C143.239 91.4819 140.063 88.9147 136.886 86.2449C136.681 86.5529 136.476 86.861 136.271 87.0664C138.833 89.3255 141.292 91.5846 143.751 93.8437C144.469 94.6652 145.288 94.8706 146.518 94.1518ZM131.968 95.2813C130.021 96.0001 129.099 97.2324 129.099 98.67C129.099 100.313 130.021 101.34 131.968 101.853C131.968 99.5942 131.968 97.5404 131.968 95.2813ZM137.398 84.1912C135.861 82.6508 134.734 82.9589 134.119 84.91C134.017 85.3207 134.017 85.8341 133.812 86.2449C133.402 87.0664 132.992 87.7852 132.378 88.504C131.968 89.1201 131.455 89.0174 131.25 88.6067C131.763 88.1959 132.48 87.8879 132.582 87.3744C132.685 87.0664 131.968 86.1422 131.763 86.1422C131.148 86.2449 130.431 86.6556 130.226 87.1691C129.611 88.1959 130.226 89.2228 131.455 89.4282C132.89 89.7362 134.017 88.812 134.529 86.7583C134.734 85.9368 134.939 85.218 135.247 84.3965C135.349 84.0885 135.964 83.9858 136.271 83.8831C136.374 83.9858 136.374 84.0885 136.476 84.1912C136.066 84.6019 135.759 85.0126 135.247 85.5261C136.681 85.9368 136.886 84.91 137.398 84.1912ZM132.582 82.9589C132.685 82.8562 132.787 82.6509 132.787 82.5482C130.226 80.3917 127.767 78.2353 125.102 75.9762C124.59 76.387 124.18 76.7977 123.668 77.2085C124.693 77.9273 125.512 78.4407 126.23 78.9541C127.357 79.8783 128.484 80.9052 129.611 81.7267C130.533 82.3428 131.558 82.5482 132.582 82.9589ZM133.3 101.853C134.939 101.134 135.861 100.005 135.759 98.2592C135.656 97.027 134.734 96.0001 133.197 95.5894C133.197 97.6431 132.378 99.6968 133.3 101.853ZM106.044 20.7308C105.941 20.6281 105.839 20.5254 105.634 20.4227C102.97 23.1953 100.306 25.9678 97.6415 28.7403C94.465 32.129 91.1861 35.415 88.0096 38.701C87.8047 38.9063 87.7022 39.3171 87.4973 39.6251C87.5998 39.7278 87.7022 39.7278 87.8047 39.8305C93.9527 33.4639 99.9982 27.0974 106.044 20.7308ZM124.18 113.97C124.078 113.868 123.873 113.868 123.77 113.765C123.463 114.176 123.053 114.484 123.053 114.894C122.746 116.743 122.438 118.694 122.336 120.542C122.336 120.953 122.848 121.364 123.053 121.672C123.258 121.261 123.565 120.748 123.565 120.337C123.77 118.797 123.873 117.256 123.975 115.716C123.975 115.203 124.078 114.586 124.18 113.97ZM152.154 185.029C152.051 185.132 151.539 185.44 151.539 185.851C151.436 186.672 152.973 187.905 153.998 187.802C154.305 187.802 154.715 187.391 154.715 187.083C154.818 186.159 153.486 185.029 152.154 185.029ZM90.8787 44.7595C88.9318 42.603 88.6244 42.5004 86.8825 43.5272C87.8047 44.9648 89.3417 44.5541 90.8787 44.7595ZM143.649 108.117C144.878 107.398 146.006 106.782 147.133 106.063C145.391 105.139 144.059 105.858 143.649 108.117ZM144.571 100.621C143.956 99.9022 143.546 99.3888 142.932 98.67C142.419 99.4915 142.009 100.21 141.599 100.929C141.702 101.032 141.702 101.134 141.804 101.237C142.624 101.032 143.546 100.826 144.571 100.621ZM132.48 83.9858C128.381 84.3965 127.152 85.7314 128.279 88.504C128.381 87.9906 128.381 87.5798 128.381 87.2718C128.586 85.5261 128.894 85.218 130.636 84.7046C131.25 84.4992 131.865 84.1911 132.48 83.9858ZM122.438 77.3111C121.106 77.6192 118.647 80.3917 118.647 81.5213C119.979 80.0837 121.209 78.7488 122.438 77.3111ZM130.021 127.833C130.943 129.681 132.378 130.914 134.734 131.53C132.992 130.195 131.455 128.963 130.021 127.833ZM157.174 193.039C156.764 192.628 156.457 192.32 156.15 192.012C155.74 192.423 155.228 192.731 155.125 193.244C155.023 193.45 155.637 193.963 155.842 194.271C156.252 193.963 156.662 193.552 157.174 193.039ZM129.099 89.2228C128.176 90.455 128.279 91.3792 129.406 91.5846C129.816 91.6873 130.328 91.1738 130.738 90.8658C130.841 90.7631 130.738 90.455 130.738 90.2497C130.431 90.455 130.123 90.5577 129.816 90.7631C129.713 90.7631 129.713 90.8658 129.508 90.8658C129.406 90.6604 129.201 90.455 129.201 90.2497C129.099 89.9416 129.099 89.7362 129.099 89.2228ZM47.433 10.2567C47.3305 10.2567 47.1256 10.1541 47.0231 10.1541C46.6133 11.797 46.1009 13.5427 45.6911 15.1857C45.896 15.1857 45.9985 15.2884 46.2034 15.2884C46.7157 13.6454 47.1256 11.8997 47.433 10.2567ZM67.3115 35.723C67.4139 35.723 67.6189 35.723 67.7213 35.8257C68.2337 33.9774 68.6435 32.2317 69.1559 30.3833C69.0534 30.3833 68.9509 30.2806 68.746 30.2806C68.3361 32.0263 67.8238 33.8747 67.3115 35.723ZM137.706 81.1105C137.603 81.2132 137.501 81.4186 137.398 81.5213C137.808 81.8294 138.321 82.2401 138.935 82.6508C139.243 81.8294 139.448 81.2132 139.755 80.3917C138.73 80.6998 138.218 80.9052 137.706 81.1105ZM56.7574 24.9409C56.8599 24.9409 56.9624 25.0436 57.1673 25.0436C57.5772 23.4006 57.987 21.7576 58.4994 20.1147C58.3969 20.1147 58.2944 20.012 58.0895 20.012C57.5772 21.7576 57.1673 23.2979 56.7574 24.9409ZM147.747 123.007C147.645 122.904 147.543 122.801 147.44 122.699C146.108 122.904 146.006 124.136 145.186 124.855C145.288 124.958 145.391 125.06 145.391 125.06C146.108 124.342 146.928 123.726 147.747 123.007ZM142.419 105.55C142.009 105.242 141.702 104.934 141.599 104.934C141.292 105.037 140.985 105.345 140.78 105.653C140.78 105.755 141.19 106.269 141.292 106.269C141.599 106.166 141.907 105.858 142.419 105.55ZM134.632 125.266C134.632 125.471 134.529 125.677 134.529 125.882C134.939 126.087 135.452 126.293 135.861 126.498C135.964 126.19 135.964 125.779 136.066 125.471C135.452 125.369 135.042 125.369 134.632 125.266ZM49.1749 3.78748C49.1749 3.89017 49.1749 4.09554 49.0725 4.19823C49.3799 4.4036 49.6873 4.71166 49.9947 4.81435C50.1996 4.81435 50.507 4.30091 50.6095 4.09554C50.7119 3.99285 50.4045 3.58211 50.3021 3.58211C49.9947 3.47942 49.5848 3.68479 49.1749 3.78748ZM82.374 46.1971C82.6814 45.581 82.8863 45.0675 83.1937 44.4514C82.9888 44.4514 82.5789 44.4514 82.4765 44.5541C82.2715 44.9648 81.2469 45.2729 82.374 46.1971ZM144.673 103.907C144.981 103.394 145.288 103.086 145.288 102.675C145.288 102.572 144.776 102.161 144.673 102.161C144.366 102.264 144.059 102.572 144.059 102.88C143.956 103.188 144.264 103.394 144.673 103.907ZM86.78 41.0627C86.6776 40.8574 86.5751 40.7547 86.4726 40.5493C85.9603 40.9601 85.448 41.3708 84.8332 41.9869C86.1653 42.3977 86.2677 41.2681 86.78 41.0627ZM144.981 111.3C145.698 111.403 146.108 111.506 146.62 111.608C146.62 111.198 146.62 110.787 146.62 110.376C146.518 110.376 146.313 110.376 146.21 110.274C145.903 110.582 145.596 110.787 144.981 111.3ZM38.3135 6.14927C38.416 6.14927 38.416 6.14927 38.3135 6.14927C39.3382 5.32778 40.2604 4.4036 41.285 3.47942C41.1826 3.37673 41.1826 3.37673 41.0801 3.27405C40.1579 4.19823 39.2357 5.22509 38.3135 6.14927ZM142.829 110.171C142.932 109.966 142.932 109.863 143.034 109.657C142.727 109.452 142.317 109.247 142.009 109.041C141.907 109.349 141.702 109.657 141.599 110.068C142.009 110.171 142.419 110.171 142.829 110.171Z" class="color5F3C07 svgShape"></path><path fill="#e2dede" d="M80.6321 203.616C80.6321 196.017 80.6321 188.521 80.6321 180.922 82.0666 180.922 83.3987 180.922 84.8332 180.922 84.8332 188.624 84.8332 196.222 84.8332 204.027 85.7554 204.027 86.4727 204.129 87.4973 204.129 86.6776 206.491 85.8579 208.75 85.0381 211.215 84.8332 210.907 84.7307 210.701 84.6283 210.393 84.1159 209.366 83.5011 208.339 82.9888 207.415 82.2716 206.286 81.3494 205.772 79.9148 205.875 74.1767 205.978 68.3361 205.875 62.598 205.875 62.0857 205.875 61.6758 205.875 61.061 205.875 61.061 197.455 61.061 189.24 61.061 180.922 62.4956 180.922 63.8276 180.922 65.2622 180.922 65.2622 188.521 65.2622 196.017 65.2622 203.616 67.209 203.616 68.9509 203.616 70.8978 203.616 70.8978 196.017 70.8978 188.521 70.8978 180.922 72.3323 180.922 73.6644 180.922 75.0989 180.922 75.0989 188.521 75.0989 196.017 75.0989 203.616 76.8408 203.616 78.6852 203.616 80.6321 203.616zM8.90572 130.4C9.31559 130.708 9.52052 130.914 9.82792 131.119 10.6476 123.725 10.2378 116.024 14.029 109.041 14.6438 110.89 15.0537 112.43 15.771 113.868 17.308 117.256 19.0499 120.645 20.6893 124.034 20.8943 124.547 20.9967 125.163 20.7918 125.677 17.2055 135.74 13.5167 145.803 9.82792 155.866 9.72545 156.072 9.62299 156.38 9.41805 156.791 6.44653 153.71 4.49967 149.808.605957 147.754 1.63062 147.651 2.55282 147.549 3.67994 147.446 3.16761 146.625 2.65528 145.803 2.14295 144.879 2.55282 145.084 2.75775 145.187 3.27008 145.495 2.34788 143.852 1.52815 142.517.708423 141.08.81089 141.08.81089 140.977.913356 140.977 2.04048 142.517 3.27008 144.057 4.39721 145.598 4.49967 145.495 4.70461 145.495 4.80707 145.392 4.29474 143.955 3.78241 142.517 3.27008 140.874 3.57748 141.08 3.78241 141.182 4.08981 141.285 4.08981 139.847 4.08981 138.512 4.08981 137.177 7.4712 140.053 8.39339 144.263 10.2378 147.96 10.4427 148.268 10.5452 148.576 10.6476 148.986 10.7501 148.986 10.8526 148.986 11.0575 148.986 10.955 148.37 11.0575 147.754 10.8526 147.241 9.93039 144.982 8.90572 142.723 7.98353 140.463 7.88106 140.155 7.98353 139.642 7.98353 139.231 7.98353 139.128 8.18846 138.923 8.29093 138.82 8.59832 138.615 8.80326 138.41 9.21312 138.204 9.41805 138.512 9.62299 138.923 9.93039 139.437 10.0329 139.437 10.1353 139.437 10.2378 139.334 9.72545 136.459 9.31559 133.583 8.90572 130.4zM22.9434 180.819C27.7593 180.819 32.4727 180.819 37.2886 180.819 37.2886 189.137 37.2886 197.352 37.2886 205.669 35.9566 205.669 34.522 205.669 33.0875 205.669 33.0875 198.276 33.0875 190.78 33.0875 183.284 31.1407 183.284 29.2963 183.284 27.2469 183.284 27.2469 190.677 27.2469 198.173 27.2469 205.669 25.7099 205.669 24.3779 205.669 22.9434 205.669 22.9434 197.455 22.9434 189.137 22.9434 180.819zM42.3098 180.819C43.7443 180.819 45.0764 180.819 46.5109 180.819 46.5109 184.927 46.5109 189.034 46.5109 193.039 46.6134 193.039 46.7159 193.142 46.8183 193.142 48.5603 190.883 50.1997 188.726 51.8392 186.467 52.1466 186.056 51.9416 185.44 51.9416 184.927 51.9416 183.592 51.9416 182.36 51.9416 180.922 53.3762 180.922 54.8107 180.922 56.2452 180.922 56.2452 189.24 56.2452 197.455 56.2452 205.669 54.8107 205.669 53.4786 205.669 52.0441 205.669 52.0441 200.33 52.0441 195.093 52.0441 189.445 50.8145 190.985 49.9948 192.423 48.8677 193.552 46.9208 195.606 46.2035 197.865 46.5109 200.741 46.7159 202.383 46.5109 204.026 46.5109 205.669 45.0764 205.669 43.7443 205.669 42.3098 205.669 42.3098 197.455 42.3098 189.137 42.3098 180.819zM108.708 205.67C108.708 197.352 108.708 189.137 108.708 180.922 113.011 180.922 117.315 180.922 121.619 180.922 122.438 185.235 121.004 188.726 117.11 191.088 122.848 194.579 122.438 200.124 122.438 205.67 117.93 205.67 113.319 205.67 108.708 205.67zM113.011 191.91C113.011 195.504 113.011 198.995 113.011 202.589 113.011 203 113.011 203.308 113.114 203.718 114.856 203.718 116.495 203.718 118.135 203.718 119.057 197.249 116.393 192.526 113.011 191.91zM113.011 189.856C116.085 189.958 117.93 186.878 117.315 182.976 115.88 182.976 114.446 182.976 113.011 182.976 113.011 185.235 113.011 187.494 113.011 189.856zM142.727 205.567C138.116 205.567 133.505 205.567 128.791 205.567 128.791 198.379 128.791 191.293 128.791 184.003 127.357 184.003 126.127 184.003 124.693 184.003 124.693 182.77 124.693 181.743 124.693 180.717 127.459 180.717 130.123 180.717 132.992 180.717 132.992 183.284 132.992 185.748 132.992 188.213 132.992 189.24 133.197 189.548 134.222 189.856 139.653 191.088 142.214 194.066 142.624 199.611 142.829 201.459 142.727 203.41 142.727 205.567zM133.095 203.41C134.939 203.41 136.681 203.41 138.423 203.41 139.345 197.455 136.681 191.807 133.095 191.704 133.095 195.503 133.095 199.406 133.095 203.41zM88.4197 194.169C88.4197 189.958 89.5468 187.289 91.3912 184.927 92.3134 183.695 93.4405 182.668 94.4652 181.641 96.5145 179.792 96.5145 179.792 98.7688 181.435 106.044 186.672 106.966 195.606 100.921 202.178 99.7934 203.308 98.5638 204.335 97.3342 205.361 97.0268 205.669 96.2071 205.669 95.7972 205.464 91.1863 202.692 88.7271 198.584 88.4197 194.169zM100.921 195.093C100.921 191.704 99.3836 187.905 96.8219 185.646 95.2849 184.105 94.6701 184.208 93.6455 186.159 93.543 186.262 93.543 186.364 93.4405 186.467 91.1863 190.985 93.2356 198.379 97.5392 201.151 98.2564 201.562 98.7688 201.459 99.1786 200.843 100.408 199.098 100.921 197.146 100.921 195.093zM33.3949 153.813C31.858 155.045 30.321 156.277 28.6815 157.509 29.1938 157.612 29.6037 157.715 30.4234 157.92 28.0667 158.228 26.0174 158.536 23.9681 158.742 23.9681 158.844 23.9681 158.947 23.9681 159.05 25.3001 159.358 26.7346 159.563 28.0667 159.871 28.0667 159.974 28.0667 159.974 28.0667 160.077 23.9681 160.077 19.8694 160.077 15.7708 160.077 15.7708 158.844 16.1806 158.536 17.3077 158.536 21.7138 158.331 26.1198 157.817 30.0136 155.558 31.0382 154.942 32.0629 154.121 33.0875 153.402 33.19 153.505 33.2925 153.607 33.3949 153.813zM2.55283 151.143C3.37256 151.964 4.19229 152.786 5.01202 153.607 6.24162 154.84 7.47121 155.969 8.70081 157.201 8.90574 157.407 8.90574 157.817 9.0082 158.125 8.70081 158.125 8.29094 158.228 8.08601 158.125 7.36875 157.612 6.65148 156.996 6.13915 156.38 4.80709 154.737 3.5775 153.094 2.3479 151.348 2.45037 151.348 2.55283 151.245 2.55283 151.143zM163.835 140.771C164.244 140.258 164.552 139.745 164.859 139.334 166.806 140.771 166.396 141.798 164.04 143.133 162.4 141.696 162.093 140.258 163.22 138.512 163.732 137.794 164.244 137.177 164.757 136.459 165.679 135.226 165.679 134.508 164.757 133.378 163.937 132.351 163.015 131.53 162.093 130.605 162.4 129.989 162.81 129.373 162.912 128.757 163.015 128.244 162.707 127.525 162.298 127.319 161.99 127.114 161.068 127.217 160.761 127.525 160.248 128.038 160.351 128.757 161.068 129.271 161.273 128.654 161.375 128.244 161.478 127.73 162.4 128.654 162.4 128.757 161.273 129.887 159.531 128.654 159.429 128.244 160.248 126.293 160.248 126.19 160.351 126.087 160.351 125.985 162.298 122.288 159.736 119.618 156.559 119.515 156.355 119.515 156.15 119.413 155.842 119.413 156.047 119.002 156.15 118.591 156.355 118.283 157.277 116.127 156.559 113.97 154.613 112.738 153.793 112.225 152.973 112.43 152.461 113.354 151.949 114.278 152.153 115.408 152.973 115.716 153.383 115.819 153.895 115.613 154.408 115.613 154.305 115.1 154.305 114.689 154.1 114.176 154.1 113.97 153.793 113.868 153.588 113.662 153.383 113.97 153.178 114.176 152.871 114.792 152.973 114.176 152.871 113.765 153.076 113.662 153.383 113.457 153.895 113.354 154.203 113.457 155.432 113.765 156.252 115.408 156.047 116.948 155.842 118.078 155.535 119.207 154.305 119.515 153.076 119.823 151.026 119.105 150.514 118.078 150.309 117.667 150.309 117.256 150.207 116.845 151.334 117.462 152.358 118.18 153.588 118.591 154.613 119.002 155.022 117.975 155.432 117.153 154.92 116.64 154.408 115.819 153.383 116.64 153.69 116.948 153.998 117.256 154.305 117.564 154.1 117.564 153.793 117.77 153.588 117.667 153.281 117.462 152.871 117.051 152.768 116.64 152.563 115.613 151.641 114.484 150.821 114.484 149.899 114.586 149.284 115.819 149.489 117.051 149.797 118.591 150.924 119.721 152.768 119.926 154.1 120.131 155.432 119.926 156.764 120.029 158.506 120.029 159.941 121.158 160.453 122.699 160.761 123.725 160.453 124.444 159.531 124.958 158.506 125.574 157.379 125.574 156.559 124.855 155.842 124.136 155.637 123.315 156.15 122.391 156.662 121.466 157.379 121.466 158.096 121.877 159.019 122.391 158.609 123.007 158.096 123.623 157.789 123.315 157.584 123.007 157.277 122.596 156.355 123.315 157.174 123.623 157.584 123.931 158.199 124.444 158.814 124.342 159.224 123.623 159.736 122.699 159.429 121.877 158.711 121.261 157.892 120.542 156.457 120.645 155.842 121.466 155.125 122.391 155.125 123.417 155.535 124.547 155.945 125.574 156.662 126.087 157.789 126.087 158.301 126.087 158.711 126.19 159.531 126.19 158.814 126.601 158.301 126.909 157.789 127.319 153.383 123.623 149.797 119.207 146.825 113.868 150.309 113.868 151.744 111.403 153.178 108.733 164.654 123.828 170.187 140.566 168.446 159.563 167.728 158.228 167.011 156.893 166.294 155.456 165.577 154.121 164.962 152.786 164.244 151.245 164.757 151.348 165.167 151.348 165.577 151.451 165.781 152.478 165.577 153.813 167.114 153.813 167.626 153.813 168.138 153.094 168.651 152.786 168.343 152.375 168.036 151.964 167.728 151.656 167.626 151.759 167.523 151.759 167.421 151.862 167.523 152.272 167.523 152.683 167.626 153.094 166.294 152.888 165.986 152.17 166.909 150.835 167.216 150.937 167.523 151.04 168.241 151.348 167.933 150.219 167.626 149.294 167.318 148.37 166.191 148.576 165.372 150.219 164.347 148.576 163.835 147.651 163.937 146.83 165.269 145.392 165.577 145.598 165.884 145.7 166.191 145.906 166.499 146.008 166.909 146.111 167.216 146.317 167.318 146.214 167.421 146.111 167.421 146.008 166.396 145.29 165.372 144.571 164.347 143.852 165.064 143.236 165.679 142.825 166.294 142.209 167.114 141.388 167.216 140.361 166.499 139.437 166.191 139.026 165.474 138.718 164.962 138.82 164.142 139.128 163.732 139.745 163.835 140.771zM166.704 155.353C167.114 155.969 167.421 156.482 167.831 157.099 167.831 156.174 167.831 155.558 167.831 154.737 167.421 155.045 167.114 155.25 166.704 155.353z" class="color5F3C07 svgShape"></path><path fill="#e2dede" d="M158.301 128.038C158.506 128.038 158.711 127.936 158.711 127.936C159.224 128.654 159.633 129.373 160.146 129.784C161.068 130.605 162.093 131.324 162.912 132.248C163.527 132.762 164.039 133.481 164.347 134.2C164.757 134.918 164.757 135.74 163.937 136.253C163.117 136.767 162.298 136.767 161.58 136.151C161.273 135.842 160.966 135.534 160.863 135.226C160.761 134.713 160.658 133.994 160.966 133.686C161.17 133.378 161.99 133.686 162.503 133.686C162.195 134.405 161.99 134.918 161.785 135.329C161.888 135.432 162.093 135.534 162.195 135.534C162.4 135.329 162.707 135.021 162.81 134.713C163.015 134.302 163.322 133.481 163.117 133.378C162.707 132.967 161.888 132.557 161.478 132.762C160.863 132.967 160.146 133.686 159.941 134.302C159.736 134.918 160.146 135.842 160.556 136.356C160.966 136.972 161.785 137.177 162.503 137.691C160.966 140.566 162.298 142.928 164.244 145.187C163.425 146.419 162.503 147.857 163.63 149.294C164.142 149.911 165.064 150.116 165.781 150.629C165.269 150.732 164.654 150.835 163.732 151.04C163.322 149.911 162.81 148.678 162.4 147.446C160.556 141.696 159.224 135.842 158.711 129.784C158.814 129.168 158.506 128.654 158.301 128.038ZM162.298 137.896C161.888 137.588 161.683 137.28 161.478 137.28C161.17 137.383 160.966 137.691 160.658 137.896C160.863 138.102 161.068 138.615 161.273 138.615C161.58 138.615 161.888 138.307 162.298 137.896Z" class="color5F3C07 svgShape"></path></svg></g></svg>