<svg width="124" height="32" viewBox="0 0 124 32" fill="none" xmlns="http://www.w3.org/2000/svg">
<path d="M59.7064 24.153C59.7064 16.3056 59.7064 8.56421 59.7064 0.716797C61.1911 0.716797 62.5698 0.716797 64.0545 0.716797C64.0545 8.67025 64.0545 16.5177 64.0545 24.5772C65.0089 24.5772 65.7513 24.6832 66.8118 24.6832C65.9634 27.1223 65.115 29.4553 64.2666 32.0004C64.0545 31.6822 63.9484 31.4702 63.8424 31.152C63.3121 30.0916 62.6758 29.0311 62.1455 28.0767C61.4032 26.9102 60.4487 26.3799 58.964 26.486C53.0252 26.592 46.9803 26.486 41.0414 26.486C40.5112 26.486 40.087 26.486 39.4507 26.486C39.4507 17.7902 39.4507 9.30653 39.4507 0.716797C40.9354 0.716797 42.3141 0.716797 43.7988 0.716797C43.7988 8.56421 43.7988 16.3056 43.7988 24.153C45.8137 24.153 47.6166 24.153 49.6316 24.153C49.6316 16.3056 49.6316 8.56421 49.6316 0.716797C51.1163 0.716797 52.4949 0.716797 53.9796 0.716797C53.9796 8.56421 53.9796 16.3056 53.9796 24.153C55.7825 24.153 57.6914 24.153 59.7064 24.153Z" fill="#84530A"/>
<path d="M0 0.611328C4.98439 0.611328 9.86272 0.611328 14.8471 0.611328C14.8471 9.20106 14.8471 17.6847 14.8471 26.2745C13.4684 26.2745 11.9837 26.2745 10.499 26.2745C10.499 18.6392 10.499 10.8978 10.499 3.15643C8.48406 3.15643 6.57515 3.15643 4.45413 3.15643C4.45413 10.7917 4.45413 18.5331 4.45413 26.2745C2.86337 26.2745 1.48471 26.2745 0 26.2745C0 17.7908 0 9.20106 0 0.611328Z" fill="#84530A"/>
<path d="M20.0435 0.611328C21.5282 0.611328 22.9068 0.611328 24.3915 0.611328C24.3915 4.85317 24.3915 9.09501 24.3915 13.2308C24.4976 13.2308 24.6036 13.3369 24.7097 13.3369C26.5126 11.0038 28.2094 8.77687 29.9062 6.44386C30.2243 6.01968 30.0122 5.3834 30.0122 4.85317C30.0122 3.47457 30.0122 2.20203 30.0122 0.717381C31.4969 0.717381 32.9817 0.717381 34.4664 0.717381C34.4664 9.30711 34.4664 17.7908 34.4664 26.2745C32.9817 26.2745 31.603 26.2745 30.1183 26.2745C30.1183 20.7601 30.1183 15.3517 30.1183 9.51919C28.8457 11.1099 27.9973 12.5945 26.8307 13.761C24.8157 15.882 24.0734 18.215 24.3915 21.1843C24.6036 22.881 24.3915 24.5777 24.3915 26.2745C22.9068 26.2745 21.5282 26.2745 20.0435 26.2745C20.0435 17.7908 20.0435 9.20106 20.0435 0.611328Z" fill="#84530A"/>
<path d="M88.7642 26.2739C88.7642 17.6842 88.7642 9.20049 88.7642 0.716797C93.2183 0.716797 97.6724 0.716797 102.127 0.716797C102.975 5.17073 101.49 8.7763 97.4603 11.2154C103.399 14.8209 102.975 20.5474 102.975 26.2739C98.3087 26.2739 93.5364 26.2739 88.7642 26.2739ZM93.2183 12.0637C93.2183 15.7753 93.2183 19.3809 93.2183 23.0925C93.2183 23.5167 93.2183 23.8348 93.3243 24.259C95.1272 24.259 96.824 24.259 98.5208 24.259C99.4753 17.5781 96.718 12.7 93.2183 12.0637ZM93.2183 9.94281C96.3998 10.0489 98.3087 6.86747 97.6724 2.83772C96.1877 2.83772 94.703 2.83772 93.2183 2.83772C93.2183 5.17073 93.2183 7.50375 93.2183 9.94281Z" fill="#84530A"/>
<path d="M123.975 26.1681C119.202 26.1681 114.43 26.1681 109.552 26.1681C109.552 18.7448 109.552 11.4276 109.552 3.89837C108.067 3.89837 106.794 3.89837 105.31 3.89837C105.31 2.62582 105.31 1.56534 105.31 0.504883C108.173 0.504883 110.93 0.504883 113.9 0.504883C113.9 3.15604 113.9 5.70115 113.9 8.24625C113.9 9.30671 114.112 9.62486 115.172 9.943C120.793 11.2156 123.444 14.2909 123.868 20.0174C124.081 21.9262 123.975 23.9411 123.975 26.1681ZM114.006 23.9411C115.915 23.9411 117.718 23.9411 119.52 23.9411C120.475 17.7904 117.718 11.9579 114.006 11.8518C114.006 15.7755 114.006 19.8053 114.006 23.9411Z" fill="#84530A"/>
<path d="M67.7666 14.3969C67.7666 10.049 68.9332 7.29183 70.8421 4.85277C71.7965 3.58022 72.9631 2.51976 74.0236 1.4593C76.1446 -0.449527 76.1446 -0.449524 78.4777 1.24721C86.0073 6.65556 86.9618 15.8816 80.7048 22.6685C79.5382 23.835 78.2656 24.8955 76.993 25.9559C76.6749 26.2741 75.8265 26.2741 75.4023 26.062C70.63 23.1987 68.0848 18.9569 67.7666 14.3969ZM80.7048 15.3513C80.7048 11.8518 79.114 7.9281 76.4628 5.59509C74.872 4.0044 74.2357 4.11045 73.1752 6.12532C73.0691 6.23137 73.0691 6.33742 72.9631 6.44346C70.63 11.1095 72.751 18.7448 77.2051 21.6081C77.9475 22.0322 78.4777 21.9262 78.9019 21.2899C80.1745 19.4871 80.7048 17.4722 80.7048 15.3513Z" fill="#84530A"/>
</svg>
