<svg id="SvgjsSvg1001" width="288" height="288" xmlns="http://www.w3.org/2000/svg" version="1.1" xmlns:xlink="http://www.w3.org/1999/xlink" xmlns:svgjs="http://svgjs.com/svgjs"><defs id="SvgjsDefs1002"></defs><g id="SvgjsG1008"><svg xmlns="http://www.w3.org/2000/svg" width="288" height="288" fill="none" viewBox="0 0 144 38"><path fill="#ffffff" d="M69.3368 28.1105C69.3368 18.9773 69.3368 9.96764 69.3368.834503 71.061.834503 72.6621.834503 74.3862.834503 74.3862 10.0911 74.3862 19.2242 74.3862 28.6042 75.4946 28.6042 76.3567 28.7276 77.5883 28.7276 76.603 31.5663 75.6178 34.2815 74.6326 37.2436 74.3862 36.8734 74.2631 36.6265 74.1399 36.2563 73.5241 35.022 72.7852 33.7878 72.1694 32.677 71.3073 31.3194 70.1989 30.7023 68.4748 30.8257 61.578 30.9491 54.5582 30.8257 47.6614 30.8257 47.0456 30.8257 46.553 30.8257 45.8141 30.8257 45.8141 20.7052 45.8141 10.8316 45.8141.834503 47.5383.834503 49.1393.834503 50.8635.834503 50.8635 9.96764 50.8635 18.9773 50.8635 28.1105 53.2034 28.1105 55.2971 28.1105 57.637 28.1105 57.637 18.9773 57.637 9.96764 57.637.834503 59.3612.834503 60.9623.834503 62.6864.834503 62.6864 9.96764 62.6864 18.9773 62.6864 28.1105 64.7801 28.1105 66.9969 28.1105 69.3368 28.1105zM0 .71106C5.78832.71106 11.4535.71106 17.2418.71106 17.2418 10.7081 17.2418 20.5818 17.2418 30.5789 15.6408 30.5789 13.9166 30.5789 12.1924 30.5789 12.1924 21.6926 12.1924 12.6829 12.1924 3.67315 9.85246 3.67315 7.63566 3.67315 5.17254 3.67315 5.17254 12.5594 5.17254 21.5692 5.17254 30.5789 3.32521 30.5789 1.72418 30.5789 0 30.5789 0 20.7052 0 10.7081 0 .71106zM23.2765.71106C25.0007.71106 26.6017.71106 28.3259.71106 28.3259 5.64789 28.3259 10.5847 28.3259 15.3981 28.449 15.3981 28.5722 15.5215 28.6953 15.5215 30.789 12.8063 32.7595 10.2145 34.73 7.4992 35.0995 7.00552 34.8531 6.26499 34.8531 5.64789 34.8531 4.04342 34.8531 2.56238 34.8531.834488 36.5773.834488 38.3015.834488 40.0257.834488 40.0257 10.8316 40.0257 20.7052 40.0257 30.5789 38.3015 30.5789 36.7005 30.5789 34.9763 30.5789 34.9763 24.161 34.9763 17.8665 34.9763 11.0784 33.4984 12.9297 32.5132 14.6576 31.1585 16.0152 28.8185 18.4836 27.9564 21.1989 28.3259 24.6547 28.5722 26.6294 28.3259 28.6041 28.3259 30.5789 26.6017 30.5789 25.0007 30.5789 23.2765 30.5789 23.2765 20.7052 23.2765 10.7081 23.2765.71106zM103.081 30.5789C103.081 20.5818 103.081 10.7082 103.081.834503 108.254.834503 113.427.834503 118.599.834503 119.584 6.01818 117.86 10.2145 113.18 13.0532 120.077 17.2495 119.584 23.9142 119.584 30.5789 114.165 30.5789 108.623 30.5789 103.081 30.5789zM108.254 14.0405C108.254 18.3603 108.254 22.5566 108.254 26.8763 108.254 27.37 108.254 27.7402 108.377 28.2339 110.471 28.2339 112.441 28.2339 114.412 28.2339 115.52 20.4584 112.318 14.781 108.254 14.0405zM108.254 11.5721C111.949 11.6955 114.165 7.99291 113.427 3.30292 111.702 3.30292 109.978 3.30292 108.254 3.30292 108.254 6.01818 108.254 8.73343 108.254 11.5721zM143.969 30.4555C138.427 30.4555 132.885 30.4555 127.22 30.4555 127.22 21.816 127.22 13.3 127.22 4.5371 125.496 4.5371 124.018 4.5371 122.294 4.5371 122.294 3.05605 122.294 1.82182 122.294.587616 125.619.587616 128.821.587616 132.269.587616 132.269 3.67314 132.269 6.63524 132.269 9.59734 132.269 10.8315 132.516 11.2018 133.747 11.5721 140.275 13.0531 143.353 16.6323 143.846 23.2971 144.092 25.5186 143.969 27.8636 143.969 30.4555zM132.393 27.8636C134.609 27.8636 136.703 27.8636 138.797 27.8636 139.905 20.7052 136.703 13.9171 132.393 13.7937 132.393 18.3602 132.393 23.0502 132.393 27.8636zM78.6967 16.7557C78.6967 11.6955 80.0514 8.48653 82.2682 5.64785 83.3766 4.16681 84.7313 2.9326 85.9628 1.6984 88.426-.523178 88.426-.523174 91.1354 1.45156 99.8795 7.74601 100.988 18.4836 93.7217 26.3825 92.367 27.7402 90.8891 28.9744 89.4112 30.2086 89.0417 30.5788 88.0565 30.5788 87.5639 30.332 82.0219 26.9996 79.0661 22.0628 78.6967 16.7557zM93.7217 17.8665C93.7217 13.7936 91.8743 9.22705 88.7954 6.5118 86.9481 4.66048 86.2092 4.78391 84.9776 7.1289 84.8544 7.25232 84.8544 7.37574 84.7313 7.49917 82.0219 12.9297 84.485 21.816 89.6575 25.1483 90.5196 25.642 91.1354 25.5186 91.628 24.7781 93.1059 22.6799 93.7217 20.3349 93.7217 17.8665z" class="color84530A svgShape"></path></svg></g></svg>