<svg width="232" height="211" viewBox="0 0 232 211" fill="none" xmlns="http://www.w3.org/2000/svg">
<path d="M193.69 126.397C195.59 119.397 205.589 113.297 205.589 105.797C205.589 98.2977 195.59 92.0979 193.69 85.1981C191.79 77.9983 197.29 67.6987 193.69 61.3989C189.991 54.9991 178.292 54.6991 173.092 49.4992C167.892 44.2994 167.592 32.5998 161.193 28.8999C154.893 25.3 144.594 30.7998 137.395 28.8999C130.396 26.9999 124.296 17.0002 116.797 17.0002C109.297 17.0002 103.098 26.9999 96.1983 28.8999C88.9989 30.7998 78.6997 25.3 72.4003 28.8999C66.0008 32.5998 65.7008 44.2994 60.5012 49.4992C55.3017 54.6991 43.6026 54.9991 39.9029 61.3989C36.3032 67.6987 41.8028 77.9983 39.9029 85.1981C38.0031 92.0979 28.0039 98.1977 28.0039 105.797C28.0039 113.297 38.0031 119.497 39.9029 126.397C41.8028 133.597 36.3032 143.896 39.9029 150.196C43.6026 156.596 55.3017 156.896 60.5012 162.096C65.7008 167.296 66.0008 178.995 72.4003 182.695C78.6997 186.295 88.9989 180.795 96.1983 182.695C103.198 184.595 109.297 194.595 116.797 194.595C124.296 194.595 130.495 184.595 137.395 182.695C144.594 180.795 154.893 186.295 161.193 182.695C167.592 178.995 167.892 167.296 173.092 162.096C178.292 156.896 189.991 156.596 193.69 150.196C197.29 143.896 191.79 133.597 193.69 126.397ZM116.797 173.895C79.1997 173.895 48.6022 143.396 48.6022 105.697C48.6022 68.0986 79.0997 37.4996 116.797 37.4996C154.494 37.4996 184.991 67.9987 184.991 105.697C184.891 143.396 154.394 173.895 116.797 173.895Z" fill="#E1C08D"/>
<path d="M116.496 168.195C150.845 168.195 178.691 140.348 178.691 105.997C178.691 71.6458 150.845 43.7988 116.496 43.7988C82.1468 43.7988 54.3011 71.6458 54.3011 105.997C54.3011 140.348 82.1468 168.195 116.496 168.195Z" fill="#E1C08D"/>
<path d="M68.2736 145.895L65.8225 143.444L79.5149 129.751L81.966 132.202C84.079 134.315 84.1635 137.612 82.2196 139.556L75.6269 146.149C73.683 148.093 70.3866 148.008 68.2736 145.895ZM67.0903 143.36L68.9498 145.219C70.7247 146.994 73.4294 147.163 75.0353 145.557L81.6279 138.964C83.2338 137.358 83.0648 134.653 81.2898 132.878L79.4304 131.019L67.0903 143.36Z" fill="#575756"/>
<path d="M8.52131 193.312L40.0471 161.787L48.161 159.082C49.9359 158.491 51.3727 157.392 52.387 155.871L70.6432 127.811L76.8976 134.065C68.8683 141.756 63.628 150.715 62.7829 162.717C62.6138 165.421 61.177 167.872 58.895 169.309L56.2748 170.915C55.2606 171.591 54.3309 172.352 53.6547 173.366L26.1859 209.623C25.8478 210.131 25.0026 210.131 24.6645 209.623C20.5231 203.961 15.1138 199.059 8.60583 194.748C8.09871 194.41 8.09871 193.734 8.52131 193.312Z" fill="#7D4E24"/>
<path opacity="0.1" d="M14.5224 197.284C13.001 196.1 11.4796 194.917 9.87366 193.818L39.1182 164.575C13.6771 192.043 12.2403 191.452 14.5224 197.284Z" fill="white"/>
<path d="M54.4996 156.798L65.6565 139.555C66.2482 140.147 67.0089 140.739 67.9386 140.992C63.459 147.501 61.1769 154.516 60.5852 162.546C60.5007 162.63 60.3316 165.335 57.7115 165.082C53.908 164.659 51.7949 161.193 54.4996 156.798Z" fill="#CA9E67"/>
<path d="M78.4159 140.486L79.4301 139.472C76.3874 139.979 73.9363 139.387 72.4994 137.274L70.7245 139.049C72.5839 140.74 75.0351 141.331 78.4159 140.486Z" fill="#575756"/>
<path d="M65.4848 136.852L68.7811 133.556L64.8086 129.414L63.4563 132.457L58.1314 131.527L57.9624 132.541C61.0897 132.795 63.6253 134.316 65.4848 136.852Z" fill="#575756"/>
<path d="M84.3316 124.596L115.519 93.4075C119.069 89.8576 119.069 84.11 115.519 80.5601L115.434 80.4755L77.8237 118.088L84.3316 124.596Z" fill="#7D4E24"/>
<path d="M66.5831 133.386L193.442 6.5213L189.3 2.3798L66.4985 125.188C64.2166 127.47 64.3011 131.104 66.5831 133.386Z" fill="#3C3C3B"/>
<path d="M68.7809 139.641C69.7951 139.979 70.8094 139.979 71.8236 139.472C71.9082 139.388 72.1617 139.303 72.2463 139.219L76.8104 133.978L92.1087 116.65L89.7421 114.284L87.629 112.171L66.3298 133.471C64.8084 136.007 66.5834 138.796 68.7809 139.641Z" fill="#878787"/>
<path d="M89.7417 116.65L87.7132 114.622L67.8508 134.485C67.0901 135.922 68.1043 137.105 68.3579 137.359C68.9495 137.951 70.0483 138.373 70.978 137.782L89.7417 116.65Z" fill="#DADADA"/>
<path d="M188.23 5.00416C188.088 4.0243 187.178 3.34565 186.198 3.48837C185.218 3.63108 184.539 4.54111 184.682 5.52097C184.825 6.50083 185.735 7.17947 186.714 7.03676C187.694 6.89405 188.373 5.98402 188.23 5.00416Z" fill="#3C3C3B"/>
<path opacity="0.1" d="M26.1863 209.623L53.74 173.281C54.5007 172.351 55.3459 171.506 56.3601 170.83L58.9803 169.224C61.2623 167.787 62.6992 165.336 62.8682 162.632C63.5444 153.335 66.7562 145.897 71.9119 139.389C70.8977 139.896 69.8834 139.896 68.8692 139.558L68.7847 139.643C55.5149 162.209 41.3155 188.748 20.2699 204.383C21.8758 205.989 23.3126 207.764 24.6649 209.623C25.003 210.131 25.8482 210.131 26.1863 209.623Z" fill="#1D1D1B"/>
<path opacity="0.1" d="M92.2761 116.651L115.519 93.4076C118.054 90.8719 118.815 87.2374 117.716 83.941C108.926 94.7599 99.7138 104.649 89.8251 114.2L92.2761 116.651Z" fill="#1D1D1B"/>
<path opacity="0.15" d="M65.7381 130.006L190.653 5.08453L189.301 3.73221L67.4284 125.611C66.4142 126.625 65.6536 128.062 65.7381 129.499C65.7381 129.668 65.7381 129.837 65.7381 130.006Z" fill="white"/>
<path d="M164.604 145.397L167.079 142.922L153.387 129.229L150.912 131.704C148.778 133.838 148.677 137.151 150.621 139.095L157.214 145.688C159.158 147.632 162.47 147.531 164.604 145.397ZM165.806 142.843L163.928 144.721C162.136 146.513 159.417 146.696 157.811 145.091L151.218 138.498C149.613 136.892 149.796 134.173 151.588 132.38L153.465 130.503L165.806 142.843Z" fill="#575756"/>
<path d="M224.418 192.754L192.893 161.228L184.753 158.549C182.973 157.964 181.534 156.866 180.523 155.343L162.315 127.234L156 133.55C164.03 141.239 169.252 150.217 170.043 162.273C170.2 164.99 171.631 167.446 173.917 168.879L176.542 170.48C177.558 171.154 178.489 171.914 179.163 172.93L206.588 209.232C206.925 209.74 207.775 209.736 208.117 209.225C212.306 203.514 217.765 198.561 224.326 194.198C224.837 193.856 224.84 193.176 224.418 192.754Z" fill="#7D4E24"/>
<path opacity="0.1" d="M218.368 196.775C219.903 195.578 221.437 194.382 223.056 193.27L193.813 164.025C219.243 191.505 220.69 190.903 218.368 196.775Z" fill="white"/>
<path d="M178.393 156.286L167.266 139.013C166.669 139.611 165.902 140.209 164.966 140.468C169.436 146.987 171.695 154.025 172.25 162.092C172.335 162.176 172.491 164.893 175.126 164.626C178.95 164.182 181.09 160.69 178.393 156.286Z" fill="#CA9E67"/>
<path d="M154.439 140.011L153.425 138.997C156.48 139.492 158.946 138.885 160.4 136.755L162.175 138.53C160.299 140.238 157.833 140.844 154.439 140.011Z" fill="#575756"/>
<path d="M167.45 136.296L164.154 132.999L168.166 128.818L169.51 131.869L174.866 130.909L175.03 131.927C171.887 132.197 169.331 133.738 167.45 136.296Z" fill="#575756"/>
<path d="M148.572 124.073L117.385 92.8844C113.835 89.3344 113.863 83.5588 117.448 79.9742L117.533 79.8889L155.144 117.501L148.572 124.073Z" fill="#7D4E24"/>
<path d="M166.365 132.819L39.5061 5.9543L43.6878 1.77238L166.49 124.58C168.772 126.863 168.669 130.515 166.365 132.819Z" fill="#3C3C3B"/>
<path d="M164.125 139.115C163.104 139.459 162.085 139.464 161.068 138.96C160.983 138.875 160.729 138.791 160.645 138.707L156.084 133.463L140.795 116.125L143.185 113.736L145.319 111.602L166.618 132.902C168.134 135.443 166.337 138.255 164.125 139.115Z" fill="#878787"/>
<path d="M143.174 116.114L145.222 114.066L165.085 133.929C165.842 135.369 164.817 136.563 164.561 136.819C163.963 137.417 162.857 137.847 161.926 137.257L143.174 116.114Z" fill="#DADADA"/>
<path d="M44.7504 4.40425C44.8986 3.41887 45.8164 2.73244 46.8003 2.87106C47.7842 3.00968 48.4618 3.92087 48.3136 4.90624C48.1654 5.89162 47.2477 6.57805 46.2637 6.43943C45.2798 6.30081 44.6023 5.38963 44.7504 4.40425Z" fill="#3C3C3B"/>
<path opacity="0.1" d="M206.588 209.232L179.078 172.845C178.318 171.914 177.473 171.069 176.457 170.395L173.832 168.794C171.546 167.361 170.114 164.905 169.958 162.188C169.324 152.848 166.133 145.39 160.984 138.875C162 139.38 163.019 139.375 164.04 139.03L164.125 139.115C177.349 161.727 191.487 188.327 212.558 203.937C210.937 205.559 209.484 207.349 208.117 209.225C207.774 209.736 206.925 209.74 206.588 209.232Z" fill="#1D1D1B"/>
<path opacity="0.1" d="M140.628 116.128L117.385 92.8842C114.85 90.3485 114.103 86.7 115.223 83.3822C124.003 94.211 133.213 104.103 143.103 113.653L140.628 116.128Z" fill="#1D1D1B"/>
<path opacity="0.15" d="M167.23 129.418L42.3156 4.4969L43.6811 3.13138L165.553 125.01C166.567 126.024 167.325 127.464 167.233 128.908C167.232 129.078 167.231 129.248 167.23 129.418Z" fill="white"/>
</svg>
