<svg width="141" height="140" viewBox="0 0 141 140" fill="none" xmlns="http://www.w3.org/2000/svg">
<path d="M131.119 86.2387C132.617 80.7207 140.5 75.9122 140.5 70C140.5 64.0878 132.617 59.2004 131.119 53.7613C129.621 48.0856 133.957 39.9662 131.119 35C128.202 29.955 118.98 29.7185 114.88 25.6194C110.781 21.5203 110.545 12.2973 105.5 9.38063C100.534 6.54279 92.4144 10.8784 86.7387 9.38063C81.2208 7.88288 76.4122 0 70.5001 0C64.588 0 59.7006 7.88288 54.2614 9.38063C48.5858 10.8784 40.4665 6.54279 35.5003 9.38063C30.4553 12.2973 30.2188 21.5203 26.1197 25.6194C22.0206 29.7185 12.7977 29.955 9.88107 35C7.04324 39.9662 11.3788 48.0856 9.88107 53.7613C8.38333 59.2004 0.500488 64.009 0.500488 70C0.500488 75.9122 8.38333 80.7995 9.88107 86.2387C11.3788 91.9144 7.04324 100.034 9.88107 105C12.7977 110.045 22.0206 110.282 26.1197 114.381C30.2188 118.48 30.4553 127.703 35.5003 130.619C40.4665 133.457 48.5858 129.122 54.2614 130.619C59.7794 132.117 64.588 140 70.5001 140C76.4122 140 81.2996 132.117 86.7387 130.619C92.4144 129.122 100.534 133.457 105.5 130.619C110.545 127.703 110.781 118.48 114.88 114.381C118.98 110.282 128.202 110.045 131.119 105C133.957 100.034 129.621 91.9144 131.119 86.2387ZM70.5001 123.682C40.8606 123.682 16.7391 99.6396 16.7391 69.9212C16.7391 40.2815 40.7818 16.1599 70.5001 16.1599C100.218 16.1599 124.261 40.2027 124.261 69.9212C124.182 99.6396 100.14 123.682 70.5001 123.682Z" fill="#E1C08D"/>
<path d="M70.2634 119.19C97.3428 119.19 119.295 97.2372 119.295 70.1577C119.295 43.0782 97.3428 21.126 70.2634 21.126C43.1841 21.126 21.2319 43.0782 21.2319 70.1577C21.2319 97.2372 43.1841 119.19 70.2634 119.19Z" fill="#E1C08D"/>
<g clip-path="url(#clip0_1692_2173)">
<path d="M79.6738 65.3742C79.8105 65.0277 79.9147 64.7792 79.8289 64.5117C79.7306 64.4793 79.5798 64.4079 79.4814 64.3756C78.8264 64.3775 78.5589 64.7897 78.3046 65.2933C77.9904 65.3857 77.6629 65.3866 77.3288 65.3419C77.2829 65.3485 77.2829 65.3485 77.2371 65.3552C76.8704 65.4085 76.5037 65.4618 76.137 65.5152C75.9995 65.5351 75.8095 65.5161 75.672 65.5361C75.5345 65.5561 75.4037 65.6218 75.207 65.5571C75.0103 65.4923 74.8403 65.6104 74.6045 65.598C74.3228 65.5923 74.0545 65.678 73.7728 65.6723C73.5369 65.6599 73.2686 65.7456 73.0328 65.7332C72.7969 65.7208 72.5744 65.7998 72.3386 65.7875C72.1027 65.7751 71.8802 65.8541 71.6902 65.8351C71.4544 65.8227 71.2777 65.895 71.0877 65.876C70.5768 65.9036 70.066 65.9312 69.5226 66.0569C69.2276 65.9598 68.9726 66.1369 68.6976 66.1768C68.5142 66.2035 68.3242 66.1845 68.1409 66.2111C67.9576 66.2378 67.7875 66.3558 67.5842 66.2454L67.5384 66.2521C67.0933 66.4101 66.6217 66.3854 66.17 66.4977C64.7691 66.8414 63.414 67.1784 61.9606 67.4831C61.9406 67.346 61.8748 67.2155 61.8548 67.0784C61.8223 67.1765 61.8156 67.1308 61.7698 67.1375C61.3964 67.1451 61.0956 67.3288 60.788 67.4669C60.6838 67.7153 60.6321 68.0029 60.3313 68.1866C59.8404 68.3513 59.3629 68.6074 58.8653 68.7264C58.3745 68.8911 57.8969 69.1472 57.4127 69.3576C56.9285 69.568 56.4443 69.7784 56.0126 70.0278C55.5284 70.2382 55.1558 70.5724 54.6258 70.7894C54.6975 70.639 54.7758 70.5343 54.8083 70.4362C54.7492 70.3515 54.6967 70.3125 54.6375 70.2277C54.5459 70.2411 54.4083 70.2611 54.2775 70.3267C54.2383 70.3791 54.2058 70.4772 54.1341 70.6276C54.1341 70.6276 54.1474 70.719 54.1541 70.7647C54.0824 70.9151 54.0499 71.0131 54.0241 71.1569C53.8932 71.2226 53.7624 71.2883 53.5857 71.3606C53.1998 71.6034 52.8139 71.8462 52.4281 72.0889C52.0814 72.2793 51.8397 72.5478 51.493 72.7382C51.4079 72.7972 51.2771 72.8629 51.1854 72.8762C51.0804 72.7982 51.0213 72.7135 50.9163 72.6354C50.8379 72.7401 50.7596 72.8448 50.6354 72.9562C50.5429 72.643 50.418 72.4279 50.5155 72.1337C50.4031 71.6834 50.5265 71.2455 50.5057 70.7818C50.4857 70.6447 50.5049 70.4553 50.5307 70.3115C50.5433 70.0764 50.6083 69.8803 50.6208 69.6451C50.5867 69.0901 50.651 68.5675 50.761 68.0381C50.7935 67.9401 50.8194 67.7963 50.8061 67.7049C50.6744 67.4441 50.8703 67.1823 50.837 66.9538C50.8037 66.7253 50.8621 66.4835 50.8746 66.2484C50.8938 66.0589 50.8671 65.8761 50.8797 65.641C50.8981 65.125 50.6873 64.6423 50.804 64.1587C50.7974 64.113 50.7974 64.113 50.7907 64.0673C50.7241 63.6104 50.6117 63.1601 50.5975 62.7421C50.576 61.952 50.2794 61.2018 50.1203 60.4316C49.9612 59.6614 49.7563 58.8979 49.5973 58.1278C49.5706 57.945 49.3606 57.7888 49.3732 57.5537C49.3465 57.3709 49.3132 57.1424 49.2407 56.9663C48.9975 56.5817 48.97 56.0724 48.6809 55.6944C48.6284 55.6554 48.6609 55.5573 48.6542 55.5116C48.5551 55.1527 48.456 54.7938 48.3177 54.4873C48.2452 54.3112 48.2119 54.0827 48.1003 53.9589C47.9361 53.7961 48.0011 53.6 47.8828 53.4306C47.7578 53.2154 47.6262 52.9546 47.5012 52.7394C47.4354 52.609 47.3763 52.5242 47.3104 52.3938C47.1655 52.0416 46.8897 51.755 46.7447 51.4028C46.6064 51.0962 46.3698 50.7573 46.1857 50.4574C46.0015 50.1576 45.8107 49.812 45.6724 49.5054C45.6658 49.4597 45.6133 49.4207 45.6066 49.375C45.265 48.958 44.9692 48.5344 44.6209 48.0717C44.5093 47.948 44.3584 47.8766 44.2926 47.7461C43.846 47.2511 43.3602 46.8084 42.8744 46.3657C42.6053 46.1249 42.3753 45.8317 42.1062 45.5908C41.7387 45.3176 41.4562 44.9853 41.0954 44.7578C40.8854 44.6017 40.6363 44.4979 40.4655 44.2894C40.4588 44.2437 40.413 44.2504 40.413 44.2504C40.013 44.0752 39.7372 43.7887 39.3305 43.5678C39.1797 43.4964 39.0155 43.3336 38.9039 43.2099C38.7464 43.0928 38.6347 42.969 38.4839 42.8976C38.3264 42.7805 38.2148 42.6567 38.0181 42.592C37.7689 42.4882 37.5131 42.3388 37.2898 42.0913C37.1782 41.9675 37.0732 41.8894 36.9157 41.7723C36.804 41.6486 36.6532 41.5772 36.5415 41.4534C36.5415 41.4534 36.5349 41.4077 36.4824 41.3687C36.4949 41.1335 36.6058 40.9308 36.8083 40.7147C37.22 40.3281 37.6776 39.935 38.096 39.5941C38.3902 39.3647 38.6844 39.1353 39.0311 38.9449C39.502 38.6431 39.9729 38.3413 40.4438 38.0395C40.7446 37.8558 41.0322 37.5806 41.3922 37.4816C41.438 37.475 41.4772 37.4226 41.5164 37.3702C41.8114 37.4673 42.1122 37.2836 42.3939 37.2893C42.5114 37.1322 42.6681 36.9228 42.8315 36.759C43.0082 36.6867 43.1782 36.5686 43.3549 36.4963C43.5382 36.4696 43.7082 36.3516 43.9307 36.2725C44.3233 36.0755 44.7683 35.9174 45.1675 35.7661C45.4359 35.6804 45.75 35.588 45.9726 35.509C46.3651 35.312 46.7843 35.2977 47.1376 35.153C47.4843 34.9626 47.9035 34.9483 48.3027 34.7969C48.3619 34.8816 48.4277 35.0121 48.5393 35.1358C48.5852 35.1292 48.631 35.1225 48.631 35.1225C48.7094 35.0178 48.8994 35.0368 48.8727 34.854C48.8661 34.8083 49.3369 34.5065 49.4286 34.4932C49.9261 34.3742 50.3778 34.2619 50.8687 34.0972C51.3596 33.9325 51.8638 33.8592 52.3613 33.7402C53.7164 33.4031 55.0781 33.1118 56.3874 32.7815C56.6165 32.7481 56.8457 32.7148 57.0815 32.7272C57.3107 32.6939 57.5266 32.5691 57.7691 32.6272C57.8674 32.6596 57.9524 32.6006 58.0899 32.5806C58.7183 32.3959 59.4258 32.433 60.0475 32.2026C60.3884 32.293 60.6892 32.1093 61.0559 32.056C61.2392 32.0293 61.3834 32.055 61.5668 32.0284C61.7501 32.0017 61.9201 31.8837 62.0776 32.0008C62.1234 31.9941 62.1693 31.9874 62.2151 31.9808C62.6276 31.9208 62.9877 31.8218 63.4068 31.8075C63.7277 31.7609 64.1077 31.7989 64.4285 31.7523C64.5927 31.9151 64.7886 31.6533 64.9919 31.7637C65.3519 31.6647 65.7452 31.7942 66.1577 31.7342C66.1777 31.8713 66.1519 32.015 66.1652 32.1064C66.3094 32.1321 66.401 32.1188 66.5452 32.1445C66.8461 31.9608 67.1011 31.7837 67.5269 31.8151C68.0511 31.8789 68.6145 31.8903 69.1778 31.9017C69.6036 31.9331 70.0295 31.9645 70.4553 31.996C70.737 32.0017 71.0187 32.0074 71.307 32.0588C71.5953 32.1102 71.877 32.1159 72.1129 32.1283C72.3945 32.134 72.722 32.133 72.9645 32.1911C73.2529 32.2425 73.5345 32.2482 73.8229 32.2996C74.1637 32.3901 74.5304 32.3367 74.8646 32.3815C75.2379 32.3739 75.6113 32.3663 75.9913 32.4043C76.4629 32.4291 76.9804 32.4472 77.4913 32.4196C77.8188 32.4186 78.1855 32.3653 78.5197 32.41C78.7097 32.4291 78.8797 32.311 79.0763 32.3757C79.6722 32.2891 80.2947 32.3853 80.9497 32.3834C81.4147 32.3624 81.8864 32.3872 82.3973 32.3595C82.7706 32.3519 83.144 32.3443 83.4715 32.3434C83.8448 32.3357 84.2573 32.2758 84.6373 32.3138C85.1548 32.3319 85.6982 32.2062 86.2224 32.27C86.3666 32.2957 86.4974 32.23 86.5891 32.2167C86.6349 32.21 86.7332 32.2424 86.7857 32.2814C86.7665 32.4709 86.6032 32.6346 86.5248 32.7394C86.6298 32.8174 86.7282 32.8498 86.8331 32.9279C86.9182 32.8688 87.0032 32.8098 87.0882 32.7508C87.2841 32.489 87.5849 32.3052 87.8991 32.2129C87.9449 32.2062 88.0366 32.1929 88.0758 32.1405C88.285 31.9701 88.4942 31.7997 88.7892 31.8968C88.8417 31.9359 88.9267 31.8768 88.9725 31.8702C89.385 31.8102 89.7909 31.7045 90.1642 31.6969C90.5376 31.6893 90.8451 31.5512 91.1726 31.5503C92.096 31.4627 92.9794 31.1009 93.9486 31.0067C94.7278 30.8934 95.5395 30.682 96.312 30.523C97.1304 30.3574 97.8963 30.1527 98.6622 29.948C98.8455 29.9213 99.0155 29.8033 99.1922 29.7309C99.3689 29.6586 99.5589 29.6776 99.7356 29.6053C100.121 29.3625 100.547 29.3939 101.032 29.1835C100.96 29.3339 100.921 29.3863 100.888 29.4844C100.876 29.7195 101.066 29.7385 101.216 29.8099C101.334 29.6529 101.616 29.6586 101.726 29.4558C101.844 29.2987 101.962 29.1416 102.132 29.0236C102.341 28.8532 102.458 28.6961 102.753 28.7932C103.113 28.6942 103.454 28.7846 103.788 28.8294C103.978 28.8484 104.037 28.9331 104.182 28.9588C104.202 29.0959 104.274 29.272 104.287 29.3634C104.177 29.8927 104.015 30.383 103.99 30.8533C104.003 30.9447 103.971 31.0428 103.931 31.0951C103.69 31.6901 103.64 32.3042 103.589 32.9182C103.563 33.062 103.544 33.2514 103.57 33.4342C103.604 33.6627 103.545 33.9045 103.578 34.133C103.566 34.3681 103.599 34.5966 103.639 34.8708C103.672 35.0993 103.614 35.3411 103.693 35.5629C103.72 35.7457 103.806 36.0132 103.741 36.2093C103.689 36.4968 103.866 36.751 103.769 37.0452C103.736 37.1432 103.704 37.2413 103.671 37.3394C103.6 37.4898 103.574 37.6335 103.509 37.8296C103.339 37.9477 103.241 38.2419 103.078 38.4056C103.072 38.6864 103.059 38.9216 103.014 39.2548C102.936 39.3595 102.864 39.5099 102.786 39.6147C102.799 39.706 102.813 39.7974 102.872 39.8822C103.069 39.9469 103.259 39.9659 103.481 39.8869C103.644 39.7232 103.755 39.5204 103.919 39.3567C103.925 39.4024 103.978 39.4414 103.984 39.4871C103.959 39.9574 104.118 40.401 104.04 40.8323C104.047 40.878 104.047 40.878 104.053 40.9237C104.212 41.3673 104.141 41.8443 104.299 42.2879C104.398 42.6468 104.36 43.0257 104.466 43.4303C104.617 43.8282 104.671 44.1938 104.73 44.6051C104.83 44.964 104.981 45.3619 104.989 45.7341C105.009 46.1978 105.115 46.6024 105.228 47.0527C105.34 47.503 105.4 47.9142 105.558 48.3579C105.631 48.534 105.703 48.7101 105.782 48.9319C105.855 49.1081 105.842 49.3432 105.915 49.5193C106.112 49.9106 106.31 50.3019 106.37 50.7131C106.534 50.8759 106.561 51.0587 106.594 51.2872C106.614 51.4243 106.595 51.6137 106.615 51.7508C106.66 51.7442 106.759 51.7765 106.805 51.7699C106.956 52.1678 107.115 52.6114 107.312 53.0027C107.384 53.1788 107.581 53.2436 107.614 53.472C107.641 53.6548 107.753 53.7786 107.825 53.9547C107.891 54.0851 108.127 54.0975 108.108 54.287C108.344 54.6259 108.496 55.0238 108.818 55.3037C108.707 55.5065 108.589 55.6636 108.511 55.7683C108.498 56.0034 108.466 56.1015 108.486 56.2386C108.663 56.4928 108.912 56.27 109.102 56.289C109.141 56.2367 109.173 56.1386 109.258 56.0796C109.304 56.0729 109.357 56.112 109.357 56.112C109.422 56.2424 109.541 56.4118 109.607 56.5423C109.666 56.627 109.672 56.6727 109.732 56.7574C109.555 56.8298 109.431 56.9412 109.405 57.0849C109.36 57.4181 109.098 57.5495 108.896 57.7656C108.53 58.1454 108.098 58.3949 107.614 58.6053C107.136 58.8614 106.665 59.1632 106.188 59.4193C106.018 59.5373 105.802 59.662 105.586 59.7867C105.442 59.761 105.291 59.6896 105.094 59.6249C104.984 59.8277 104.741 59.7696 104.584 59.979C104.467 60.1361 104.244 60.2151 104.238 60.496C104.023 60.6207 103.807 60.7454 103.584 60.8244C103.408 60.8968 103.133 60.9368 103.015 61.0939C102.852 61.2576 102.655 61.1929 102.492 61.3566C102.367 61.468 102.132 61.4556 101.962 61.5737C101.746 61.6984 101.425 61.745 101.209 61.8698C101.078 61.9354 100.947 62.0011 100.816 62.0668C100.686 62.1325 100.594 62.1458 100.463 62.2115C100.247 62.3362 100.018 62.3696 99.7956 62.4486C99.3505 62.6066 98.9713 62.8951 98.513 62.9617C98.2188 63.1912 97.8454 63.1988 97.4854 63.2978C96.4903 63.5358 95.4953 63.7738 94.4085 64.0251C94.5261 63.8681 94.6044 63.7633 94.6303 63.6196C94.3678 63.4244 94.3678 63.4244 94.0278 63.6605C94.0019 63.8043 93.9302 63.9547 93.911 64.1441C93.6427 64.2298 93.3218 64.2765 93.0535 64.3622C92.7785 64.4021 92.5168 64.5335 92.2351 64.5278C91.9534 64.5221 91.6392 64.6145 91.3709 64.7001C91.2659 64.6221 91.1609 64.544 91.0626 64.5116C90.6175 64.6697 90.2117 64.7754 89.8517 64.8744C89.6291 64.9534 89.4391 64.9343 89.2033 64.922C89.02 64.9486 88.8041 65.0733 88.6008 64.9629C88.5483 64.9239 88.4633 64.9829 88.3716 64.9962C88.0574 65.0886 87.7232 65.0438 87.4416 65.0381C87.0749 65.0914 86.6949 65.0534 86.3215 65.061C85.994 65.0619 85.634 65.1609 85.2932 65.0705C85.149 65.0448 84.9723 65.1172 84.7823 65.0981C84.5398 65.04 84.324 65.1648 84.0423 65.1591C83.8065 65.1467 83.5839 65.2257 83.3481 65.2133C83.1123 65.2009 82.8964 65.3257 82.6931 65.2152C82.2872 65.3209 81.8547 65.2438 81.4422 65.3038C80.5972 65.2866 80.1647 65.2095 79.6738 65.3742ZM48.8233 49.6073C48.5934 49.3141 48.4226 49.1056 48.2517 48.8971C47.9168 48.5258 47.5885 48.2002 47.2927 47.7766C46.8719 47.1378 46.3728 46.6037 45.9195 46.063C45.4138 45.4832 44.8296 45.0082 44.2389 44.4874C43.9697 44.2466 43.7531 44.0447 43.4839 43.8039C43.3531 43.8696 43.1831 43.9876 43.0522 44.0533C43.0589 44.099 43.1114 44.138 43.118 44.1837C43.4463 44.5093 43.7813 44.8806 44.1096 45.2062C44.3329 45.4537 44.517 45.7536 44.7795 45.9487C45.042 46.1439 45.2261 46.4438 45.4036 46.698C45.5811 46.9522 45.7977 47.154 45.9752 47.4082C46.1527 47.6624 46.4218 47.9032 46.4684 48.2231C46.9151 48.7181 47.185 49.2855 47.5924 49.8329C47.8749 50.1652 48.0265 50.5631 48.1781 50.961C48.2573 51.1829 48.3823 51.398 48.5072 51.6132C48.7047 52.0044 48.9938 52.3824 49.0213 52.8917C49.0479 53.0745 49.1137 53.2049 49.1404 53.3877C49.3437 53.4981 49.4162 53.6743 49.4495 53.9027C49.5553 54.3073 49.7069 54.7053 49.8127 55.1099L49.8193 55.1556C50.1609 55.5726 50.2342 56.0752 50.3992 56.5646C50.6366 57.23 50.6907 57.9221 50.9739 58.5809C51.1796 59.6709 51.562 60.6886 51.8202 61.8177C52.0035 61.7911 52.2135 61.9472 52.4752 61.8158C52.3827 61.5026 52.3428 61.2284 52.257 60.9609C52.217 60.6867 52.177 60.4126 52.1371 60.1384C52.123 59.7204 51.9713 59.3225 51.8656 58.9179C51.7139 58.52 51.7915 58.0887 51.6791 57.6384C51.5599 57.1424 51.4408 56.6464 51.3217 56.1504C51.2093 55.7001 51.0902 55.2041 50.9319 54.7605C50.7211 54.2778 50.6937 53.7685 50.5746 53.2725C50.5546 53.1354 50.4888 53.005 50.4688 52.8679C50.7054 53.2068 50.8504 53.5591 50.9953 53.9113C51.1403 54.2635 51.2853 54.6158 51.4827 55.0071C51.6735 55.3526 51.7335 55.7639 51.9243 56.1095C52.0618 56.0895 52.1926 56.0238 52.3301 56.0038C52.3101 55.8667 52.251 55.782 52.2377 55.6906C52.1311 54.9595 51.802 54.3073 51.6496 53.5829C51.6296 53.4458 51.6488 53.2563 51.5438 53.1783C51.3796 53.0155 51.438 52.7736 51.3197 52.6042C51.2014 52.4347 51.1681 52.2063 51.0889 51.9844C51.0689 51.8473 51.0031 51.7169 50.9898 51.6255C50.8781 51.5018 50.7598 51.3323 50.6548 51.2542C50.4515 51.1438 50.5557 50.8953 50.3591 50.8306C50.2607 50.7982 50.2799 50.6088 50.2208 50.5241C50.0433 50.2699 49.9116 50.009 49.7342 49.7548C49.3792 49.2465 49.116 48.7248 48.7152 48.2231C48.6035 48.0993 48.5444 48.0146 48.4785 47.8842C48.3469 47.6233 48.1303 47.4215 47.9595 47.213C47.8219 47.233 47.7303 47.2463 47.5994 47.312C47.8035 47.749 48.0535 48.1793 48.2968 48.5639C48.5334 48.9028 48.7109 49.157 48.8233 49.6073ZM52.0118 62.4898C52.0459 63.0449 52.1325 63.6389 52.1207 64.2006C52.2849 64.3634 52.4091 64.252 52.5399 64.1863C52.5266 64.0949 52.5133 64.0035 52.5524 63.9512C52.5783 63.8074 52.6041 63.6637 52.5775 63.4809C52.5442 63.2524 52.5567 63.0172 52.5693 62.7821C52.5884 62.5926 52.5226 62.4622 52.3718 62.3908C52.2343 62.4108 52.0968 62.4308 52.0118 62.4898ZM100.787 52.5515C100.538 52.4477 100.44 52.7419 100.296 52.7162C100.224 52.8666 100.146 52.9713 100.068 53.0761C99.9959 53.2265 100.009 53.3179 99.9834 53.4616C99.99 53.5073 99.9967 53.553 100.049 53.5921C100.187 53.5721 100.318 53.5064 100.455 53.4864C100.559 53.2379 100.794 52.9237 100.787 52.5515ZM52.3954 66.7272C52.4922 66.1065 52.4514 65.5058 52.5415 64.8394C52.404 64.8594 52.3123 64.8727 52.1815 64.9384C52.1298 65.2259 52.2054 66.7082 52.2579 66.7472C52.3037 66.7405 52.3037 66.7405 52.3954 66.7272ZM41.6407 42.7186C41.8773 43.0575 42.1465 43.2984 42.4156 43.5392C42.5531 43.5192 42.684 43.4535 42.8215 43.4336C42.8081 43.3422 42.8015 43.2965 42.8015 43.2965C42.5323 43.0556 42.3157 42.8538 42.0532 42.6586C41.909 42.6329 41.824 42.692 41.6407 42.7186ZM52.1092 56.7359C52.215 57.1405 52.3207 57.5451 52.3807 57.9564C52.4724 57.943 52.5182 57.9364 52.6099 57.9231C52.7333 57.4851 52.49 57.1005 52.43 56.6892C52.2859 56.6635 52.1942 56.6769 52.1092 56.7359ZM67.0255 62.7334C66.803 62.8125 66.5671 62.8001 66.4104 63.0095C66.3779 63.1076 66.3912 63.199 66.3587 63.297C66.4637 63.3751 66.5687 63.4532 66.6212 63.4922C66.7062 63.4332 66.7912 63.3742 66.8304 63.3218C66.9154 63.2628 67.0137 63.2951 67.0988 63.2361C67.2554 63.0267 67.2288 62.8439 67.0255 62.7334ZM61.1477 50.9886C61.246 51.0209 61.3377 51.0076 61.436 51.04C61.4427 51.0857 61.4427 51.0857 61.4035 51.138C61.626 51.059 61.8943 50.9733 62.1169 50.8943C62.1427 50.7506 62.1752 50.6525 62.1619 50.5611C61.9061 50.4116 61.6902 50.5364 61.4611 50.5697C61.3302 50.6354 61.2585 50.7858 61.1477 50.9886ZM46.5013 45.5584C46.5146 45.6498 46.4754 45.7022 46.4821 45.7479C46.4888 45.7936 46.5413 45.8326 46.5479 45.8783C46.6662 46.0477 46.7779 46.1715 46.8962 46.341C46.9687 46.5171 47.0803 46.6408 47.2312 46.7122C47.3228 46.6989 47.4603 46.6789 47.5453 46.6199C47.3745 46.4114 47.2562 46.242 47.0921 46.0792C46.9346 45.9621 46.8029 45.7012 46.5013 45.5584ZM40.2558 41.5667C40.4333 41.8209 40.6499 42.0227 40.9057 42.1722C40.9907 42.1131 41.0299 42.0608 41.0624 41.9627C40.7608 41.8199 40.59 41.6114 40.2558 41.5667ZM63.233 35.7526C63.318 35.6936 63.403 35.6346 63.4422 35.5822C63.4814 35.5299 63.468 35.4385 63.5005 35.3404C63.2714 35.3737 63.1405 35.4394 62.9572 35.4661C62.9247 35.5641 62.8855 35.6165 62.8988 35.7079C63.0888 35.7269 63.1805 35.7136 63.233 35.7526ZM52.7188 59.6338C52.6722 59.3139 52.8548 58.9607 52.664 58.6152C52.6181 58.6218 52.5789 58.6742 52.4873 58.6875C52.7172 58.9807 52.4889 59.3406 52.7188 59.6338ZM54.6715 65.323C54.5931 65.4277 54.5606 65.5258 54.4823 65.6305C54.5281 65.6238 54.6264 65.6562 54.7706 65.6819C54.8031 65.5838 54.8356 65.4858 54.8681 65.3877C54.7632 65.3097 54.7173 65.3163 54.6715 65.323ZM83.8076 49.4205C83.9126 49.4985 83.9718 49.5833 84.0243 49.6223C84.1093 49.5633 84.1485 49.5109 84.2335 49.4519C84.2268 49.4062 84.2268 49.4062 84.2201 49.3605C84.0826 49.3805 83.991 49.3938 83.8076 49.4205ZM94.0185 38.2295C93.9926 38.3733 93.816 38.4457 93.9801 38.6084C94.0651 38.5494 94.1435 38.4447 94.2285 38.3857C94.176 38.3466 94.1235 38.3076 94.0185 38.2295ZM45.818 44.7245C45.8905 44.9006 45.8905 44.9006 46.0805 44.9196C45.9822 44.8873 45.923 44.8025 45.818 44.7245ZM52.2211 67.7792C52.2211 67.7792 52.2669 67.7725 52.2211 67.7792C52.2603 67.7268 52.2603 67.7268 52.2078 67.6878C52.2078 67.6878 52.2078 67.6878 52.1619 67.6945C52.2144 67.7335 52.2144 67.7335 52.2211 67.7792ZM52.3253 67.5307C52.2728 67.4917 52.2728 67.4917 52.2336 67.544C52.2336 67.544 52.2336 67.544 52.2403 67.5897C52.2795 67.5374 52.2795 67.5374 52.3253 67.5307ZM45.7197 44.6921C45.7197 44.6921 45.7655 44.6854 45.7197 44.6921C45.7589 44.6397 45.7589 44.6397 45.7064 44.6007C45.7064 44.6007 45.7064 44.6007 45.6606 44.6074C45.7131 44.6464 45.7197 44.6921 45.7197 44.6921Z" fill="white"/>
<path d="M47.0296 75.5339L47.4444 76.4535L47.9043 77.0399C48.3617 76.6468 48.6616 76.1366 49.119 75.7434C49.4981 75.455 49.8314 75.1733 50.2105 74.8849L49.7307 74.1614L49.3158 73.2418L48.9401 72.2699L48.3945 71.416L47.9405 70.5488L47.6565 69.5635L47.1566 68.703L46.7809 67.7311L46.1895 66.8838L45.8138 65.9119L45.4448 64.9857L44.9383 64.0794L44.3926 63.2255L44.1544 62.2336L43.6938 61.3207L43.1481 60.4668L42.7333 59.5472L42.2334 58.6867L41.7728 57.7737L41.3579 56.8542L41.0281 55.8756L40.345 55.0417L39.9301 54.1221L39.6852 53.0845L39.1396 52.2306L38.6331 51.3243L38.1724 50.4114L37.7118 49.4985L37.3819 48.5199L36.9671 47.6004L36.3756 46.7531L35.9149 45.8402L35.5851 44.8616L35.0394 44.0077L34.5788 43.0948L34.3939 42.4684C34.1331 42.9263 33.8198 43.3451 33.454 43.7249L33.6581 44.1619L34.4862 45.348L34.9793 46.1629L35.4267 46.9844L35.7957 47.9106L36.328 48.6731L36.5071 49.5803L37.0919 50.3819L37.4609 51.3081L37.9607 52.1687L38.4731 52.7941L38.9204 53.6156L39.1453 54.5161L39.9733 55.7023L40.4532 56.4258L40.7631 57.2673L41.0138 58.0241L41.3103 58.7742L41.6335 59.7071L42.1267 60.5219L42.489 61.4025L42.8064 62.6162L43.4703 63.6395L43.8268 64.8009L44.275 65.9489L44.7232 67.097L44.9281 67.8604L45.2638 68.5582L45.8435 69.967L45.8643 70.4306L45.3645 69.5701L44.858 68.6638L44.6656 67.6653L44.12 66.8114L43.7835 65.7871L43.4469 64.7628L42.7572 63.8832L42.5714 62.9303L42.0716 62.0697L41.7026 61.1435L41.2877 60.2239L40.8337 59.3567L40.2614 58.3201L39.9049 57.1587L39.281 56.4095L38.9644 55.5223L38.5238 54.7465L38.2139 53.905L37.8257 53.1682L37.4375 52.4314L37.056 51.7402L36.7386 50.5265L36.1597 49.4442L35.4957 48.4208L34.7926 47.4498L34.5744 46.595L34.0946 45.8715L33.7522 45.1281L33.6781 44.2989L33.389 43.921C33.0299 44.3465 32.6708 44.772 32.2592 45.1584L32.3908 45.4193L32.9823 46.2665L33.3971 47.1861L33.6812 48.1713L34.0502 49.0976L34.6808 49.8924L35.1415 50.8054L35.5105 51.7316L35.9254 52.6512L36.301 53.6231L36.8467 54.477L37.2224 55.4489L37.5914 56.3751L38.222 57.17L38.5519 58.1486L39.0125 59.0615L39.4732 59.9744L39.8489 60.9464L40.4012 61.846L40.901 62.7065L41.1851 63.6918L41.7307 64.5457L42.2763 65.3996L42.5604 66.3848L43.1519 67.232L43.4817 68.2106L43.8116 69.1892L44.488 69.9774L44.8179 70.956L45.3635 71.8099L45.6934 72.7885L46.0624 73.7147L46.5231 74.6277L47.0296 75.5339Z" fill="#7D4E24"/>
<path d="M58.3777 91.4258L57.7862 90.5786L57.2797 89.6723L56.9957 88.6871L56.4958 87.8265L56.0352 86.9136L55.5745 86.0007L55.2904 85.0154L54.8298 84.1025L54.1925 83.2619L53.7776 82.3424L53.317 81.4294L52.9021 80.5099L52.5722 79.5313L52.0724 78.6707L51.5726 77.8102L51.3152 77.0077C51.1519 77.1714 50.9428 77.3418 50.7728 77.4598C50.1062 78.0233 49.5905 78.6582 49.0881 79.3845L49.378 80.0889L49.747 81.0152L50.2076 81.9281L50.7991 82.7753L51.044 83.8129L51.5047 84.7258L52.0503 85.5797L52.6418 86.427L52.9258 87.4122L53.5173 88.2595L53.978 89.1724L54.262 90.1576L54.7619 91.0182L55.0459 92.0034L55.4607 92.923L55.9606 93.7836L56.4604 94.6441L56.8228 95.5247C57.416 94.4586 57.9043 93.3144 58.2485 92.1445C58.2218 91.9617 58.2477 91.818 58.3718 91.7066C58.3652 91.6609 58.4043 91.6086 58.3977 91.5629L58.3777 91.4258Z" fill="#7D4E24"/>
<path d="M64.4211 104.31L64.0912 103.331L63.6305 102.418L63.2157 101.499L62.8466 100.572L62.216 99.7775L61.7553 98.8646L61.2946 97.9517L61.0564 96.9598L60.5565 96.0992L60.1875 95.173L60.0692 95.0035C59.9325 95.35 59.7501 95.7032 59.5609 96.0106C59.2676 96.5665 58.9218 97.0834 58.5302 97.6069C58.4718 97.8487 58.3677 98.0972 58.3094 98.339L58.77 99.2519L59.0541 100.237L59.5606 101.143L60.0213 102.056L60.4819 102.969L60.9426 103.882L61.3575 104.802L61.7723 105.721L62.2722 106.582L63.1453 107.435L64.3501 107.353L65.055 106.411L65.0192 105.203L64.4211 104.31Z" fill="#7D4E24"/>
<path d="M29.4349 38.946L29.8497 39.8656L30.1796 40.8442L30.7253 41.6981L31.0552 42.6767L31.1077 42.7158C31.526 42.375 31.9309 41.9428 32.2442 41.524L32.0076 41.1851L32.2242 41.3869L32.2901 41.5173C32.5642 41.1509 32.8317 40.7387 32.9484 40.2551C32.9742 40.1114 33.0917 39.9543 33.1767 39.8953L32.9267 39.465L32.466 38.5521L32.0054 37.6391L31.5055 36.7786L31.2214 35.7933L30.6757 34.9394L29.8351 33.9883L28.7095 34.2919L27.8862 35.0649L28.1053 36.2462L28.4352 37.2248L28.9808 38.0788L29.4349 38.946Z" fill="#7D4E24"/>
<path d="M54.655 109.883C54.6483 109.837 54.9495 109.653 54.8969 109.614C54.9495 109.653 54.6616 109.929 54.655 109.883Z" fill="#7D4E24"/>
<path d="M57.581 98.4931C57.0396 99.2717 56.3598 99.7438 56.0058 99.5619C55.855 99.4905 55.6259 99.5238 55.5018 99.6351C55.286 99.7598 55.2152 100.237 54.902 100.656C54.7454 100.865 54.333 100.925 54.1831 101.18C54.1114 101.33 54.433 101.61 54.3614 101.761C54.3289 101.859 54.0998 101.892 54.0673 101.99C54.1656 102.022 54.0415 102.134 54.1006 102.219C54.1206 102.356 54.114 102.31 54.0815 102.408C54.0032 102.513 53.8791 102.624 53.7549 102.735C53.6708 103.121 53.7442 103.624 53.7058 104.002C53.6092 104.623 53.6568 105.27 53.7043 105.916C53.7518 106.562 53.5769 107.288 53.7618 107.914C53.9468 108.541 54.2301 109.199 54.5983 109.799C54.5392 109.714 54.8199 109.394 54.7016 109.224C54.6291 109.048 54.1184 109.076 54.0393 108.854C53.881 108.41 54.115 107.769 54.0809 107.214C54.0533 106.705 54.0325 106.242 54.1233 105.902C54.2074 105.516 54.1741 105.288 54.364 105.307C54.5015 105.287 54.5273 105.143 54.6056 105.038C54.7622 104.829 54.9513 104.521 55.0812 104.129C55.1854 103.881 55.4728 103.606 55.5636 103.266C55.5044 103.181 55.0787 103.15 55.0654 103.058C54.9862 102.837 55.3719 102.594 55.5485 102.521C55.666 102.364 55.476 102.345 55.5019 102.202C55.5668 102.006 55.8093 102.064 55.8809 101.913C55.985 101.665 56.0367 101.377 56.1408 101.129C56.349 100.632 56.5964 100.083 56.8505 99.5792C57.1046 99.0756 57.2078 98.5006 57.4619 97.9971C57.716 97.4935 58.2258 97.1395 58.4798 96.6359C58.4282 96.9234 58.09 97.8125 57.581 98.4931Z" fill="#7D4E24"/>
<path d="M58.8159 96.3546C58.7767 96.407 58.7241 96.368 58.7308 96.4137C58.7174 96.3222 58.8551 96.3022 58.8159 96.3546Z" fill="#7D4E24"/>
<path d="M54.424 100.586C54.4632 100.533 54.4173 100.54 54.4565 100.487C54.4173 100.54 54.4307 100.631 54.424 100.586Z" fill="#7D4E24"/>
<path d="M60.1207 89.2587C59.9491 88.7236 59.7516 88.3323 59.5408 87.8496C59.7516 88.3323 60.2707 89.0035 60.3515 89.8784C60.4316 90.4268 60.3741 90.9951 60.2441 91.3873C60.1142 91.7795 59.7876 92.107 59.591 92.0422C59.4469 92.0165 59.4994 92.0555 59.4211 92.1602C59.212 92.3306 59.0687 92.6314 58.8404 92.9912C58.6122 93.351 58.2531 93.7765 58.0057 94.3258C57.6867 95.0254 57.171 95.6603 56.8061 96.3666C56.4413 97.073 56.0239 97.7402 55.659 98.4466C55.2942 99.1529 54.831 99.8268 54.5186 100.572C54.5511 100.474 54.6294 100.369 54.701 100.219C54.7727 100.069 54.8377 99.8725 54.9485 99.6698C55.1242 99.2709 55.7457 99.0406 56.0589 98.6218C56.5938 97.7975 57.0436 97.0321 57.3977 97.214C57.5027 97.2921 57.6401 97.2721 57.7643 97.1608C58.2416 96.9048 58.9206 96.1061 59.4545 94.9553C59.4545 94.9553 59.6578 95.0657 59.7036 95.0591C59.951 94.5098 59.9885 93.8044 60.1834 93.2161C60.2226 93.1637 60.4059 93.1371 60.3925 93.0457C60.3859 93 60.3334 92.961 60.3334 92.961C60.3134 92.8239 60.4966 92.7973 60.6274 92.7316C60.7507 92.2937 60.5266 91.7196 60.5057 91.256C60.4449 90.5182 60.3057 89.8851 60.1207 89.2587Z" fill="#7D4E24"/>
<path d="M59.2934 87.4191C59.3 87.4649 59.693 87.2675 59.7064 87.359C59.693 87.2675 59.2867 87.3733 59.2934 87.4191Z" fill="#7D4E24"/>
<path d="M58.2572 92.8436C58.2505 92.7979 58.3489 92.8303 58.3423 92.7845C58.3489 92.8303 58.2638 92.8894 58.2572 92.8436Z" fill="#7D4E24"/>
<path d="M59.5416 87.5244C59.4491 87.2112 59.2908 86.7675 59.0999 86.4219C59.0083 86.4352 58.74 86.5208 58.6808 86.4361C58.5692 86.3123 58.5883 86.1228 58.6142 85.9791C58.6075 85.9334 58.7708 85.7697 58.725 85.7763L58.6008 85.8877C58.2592 85.4706 57.7218 85.3154 57.2169 85.062C57.1711 85.0687 57.131 84.7945 57.0852 84.8012C56.9019 84.8278 56.8628 84.8801 56.7969 84.7497L56.6861 84.9525C56.0371 84.6734 55.3947 84.44 54.7331 84.3961C54.0716 84.3522 53.39 84.1712 52.7876 84.2121C52.1461 84.3053 51.6229 84.5679 51.0272 84.6545C51.1646 84.6345 51.5187 84.8164 51.9837 84.7955C52.3961 84.7356 52.906 84.3816 53.4234 84.3997C53.9408 84.4179 54.439 84.6255 54.7865 84.7617C55.1339 84.8979 55.1931 84.9827 55.1281 85.1788C55.1023 85.3225 55.5214 85.3083 55.6264 85.3864C55.7905 85.5492 55.903 85.9996 56.218 86.2338C56.5329 86.4681 56.9328 86.6433 57.2745 87.0604C57.6094 87.4318 57.9969 87.8422 58.2077 88.3249C58.4185 88.8076 58.3677 89.4217 58.5327 89.911C58.6519 90.4071 58.8169 90.8965 58.7461 91.3734C58.7211 91.8437 58.5587 92.334 58.4029 92.87C58.4287 92.7262 58.7228 92.4968 58.807 92.1113C58.8978 91.7714 58.7853 91.3211 58.8169 90.8965C58.8802 90.0472 59.0226 89.4199 59.3759 89.2752C59.5067 89.2095 59.5583 88.922 59.5841 88.7783C59.6358 88.4908 59.7066 88.0138 59.5416 87.5244Z" fill="#7D4E24"/>
<path d="M51.0003 84.8009C51.0462 84.7943 51.0595 84.8858 51.1054 84.8791C51.0595 84.8858 50.9544 84.8076 51.0003 84.8009Z" fill="#7D4E24"/>
<path d="M56.3755 86.3521C56.3297 86.3588 56.4081 86.254 56.3555 86.2149C56.4081 86.254 56.4214 86.3455 56.3755 86.3521Z" fill="#7D4E24"/>
<path d="M55.6146 85.9505C55.2738 85.86 54.8222 85.9723 54.3505 85.9475C53.4464 85.8454 52.804 85.612 52.7506 85.2464C52.7306 85.1093 52.5073 84.8617 52.3631 84.836C52.114 84.7321 51.649 84.753 51.184 84.7739C50.7124 84.749 50.1958 85.0575 49.6325 85.0459C49.6325 85.0459 49.6383 84.765 49.5925 84.7717C49.0817 84.7992 48.5642 84.781 48.1251 84.6581C48.0268 84.6258 47.9743 84.5867 47.9218 84.5477L47.8368 84.6067C47.8368 84.6067 47.6668 84.7247 47.621 84.7314C47.6143 84.6857 47.6401 84.5419 47.6268 84.4505C47.6201 84.4048 47.7443 84.2934 47.7376 84.2477C47.7309 84.202 47.8092 84.0973 47.8026 84.0516C47.5709 83.1051 47.5617 82.0796 47.8799 81.0532C47.8541 81.197 47.9008 81.5169 47.8166 81.9025C47.7258 82.2424 47.2225 82.6423 47.1842 83.0212C47.1068 83.4525 47.0751 83.8772 47.076 84.2038C47.031 84.537 47.2085 84.7913 47.0318 84.8636C46.901 84.9293 47.006 85.0074 47.0327 85.1902C47.0527 85.3273 46.8311 85.7329 47.0019 85.9415C47.1727 86.15 47.6244 86.0377 47.8735 86.1416C48.1227 86.2454 48.3918 86.4863 48.6801 86.5378C48.7785 86.5702 48.8501 86.4198 48.9484 86.4522C49.0793 86.3865 49.2626 86.3599 49.4067 86.3856C49.5051 86.418 49.5184 86.5094 49.5317 86.6008C49.5776 86.5941 49.6559 86.4894 49.7017 86.4828C50.3042 86.4419 50.8933 86.3097 51.4891 86.2231C52.1307 86.1299 52.7665 86.3176 53.3165 86.2377C54.3247 86.0912 55.4046 85.7943 56.2504 86.1382C56.0862 85.9754 55.8571 86.0086 55.6146 85.9505Z" fill="#7D4E24"/>
<path d="M47.84 80.7804C47.8467 80.8261 47.9584 80.95 47.9126 80.9567C47.9059 80.911 47.8008 80.8328 47.84 80.7804Z" fill="#7D4E24"/>
<path d="M47.9585 86.4103C47.9127 86.4169 47.9644 86.1291 47.9185 86.1358C47.971 86.1749 48.0111 86.4493 47.9585 86.4103Z" fill="#7D4E24"/>
<path d="M51.6646 72.9929C51.7238 73.0776 51.6063 73.2347 51.6263 73.3718C51.7055 73.5936 51.9746 73.8345 51.9754 74.161C51.9696 74.4419 51.7347 74.756 51.5914 75.0568C51.494 75.3509 51.5015 75.7232 51.3449 75.9326C50.9925 76.4038 50.436 76.4379 50.1419 76.6673C49.8411 76.851 49.6062 77.1651 49.4421 77.0023C49.3371 76.9242 49.278 76.8395 49.1014 76.9118C48.8331 76.9974 48.4274 77.1031 48.055 77.4371C47.6826 77.7712 47.4419 78.3662 47.1486 78.9221C46.9987 79.1772 46.613 79.4199 46.4697 79.7207C46.5222 79.7597 46.5489 79.9425 46.5622 80.0339C46.5689 80.0796 46.7521 80.053 46.713 80.1053C46.5822 80.171 46.4447 80.191 46.3206 80.3023C46.054 81.041 45.84 81.8188 45.77 82.6223C45.7259 83.282 45.7409 84.0264 45.9259 84.6529C45.9526 84.8357 45.9334 85.0251 46.0126 85.2469C46.0917 85.4687 46.3933 85.6116 46.6099 85.8135C46.8266 86.0153 47.0365 86.1715 47.2331 86.2362C47.4297 86.301 47.6455 86.1763 47.8355 86.1954C47.7372 86.163 47.5347 86.3791 47.3381 86.3143C47.1415 86.2495 47.0423 85.8906 46.7666 85.604C46.6024 85.4412 46.275 85.4421 46.2092 85.3117C46.1367 85.1356 46.2017 84.9395 46.1359 84.809C46.0959 84.5348 46.1933 84.2407 46.1533 83.9665C46.1191 83.4115 45.9475 82.8765 46.0841 82.53C46.1491 82.3339 46.4307 82.3396 46.5156 82.2806C46.5939 82.1759 46.6456 81.8884 46.7439 81.9208C46.888 81.9465 46.7897 81.9141 46.9138 81.8028C47.1229 81.6324 47.4237 81.4487 47.6519 81.0889C47.8802 80.7291 48.0885 80.2322 48.3425 79.7286L48.5458 79.8391C48.7999 79.3355 49.0015 78.7929 49.308 78.3284C49.6604 77.8572 49.967 77.3927 50.326 76.9672C50.6851 76.5417 51.2799 76.1287 51.5923 75.3833C51.7289 75.0368 51.9438 74.5856 51.9296 74.1677C52.0529 73.7298 51.8554 73.3385 51.6646 72.9929Z" fill="#7D4E24"/>
<path d="M51.5619 72.5875C51.6211 72.6723 51.4901 72.738 51.5494 72.8229C51.4376 72.699 51.5026 72.5026 51.5619 72.5875Z" fill="#7D4E24"/>
<path d="M35.1639 35.2197C35.1706 35.2654 35.1773 35.3112 35.1839 35.3569C35.1773 35.3112 35.1181 35.2264 35.1639 35.2197Z" fill="#7D4E24"/>
<path d="M46.4185 25.0905C46.2877 25.1562 46.0452 25.0981 45.8227 25.1771C45.4303 25.3741 44.9395 25.5388 44.462 25.7948C43.9779 26.0052 43.4671 26.0327 43.0613 26.1384C42.708 26.283 42.453 26.4601 42.3413 26.3363C42.2297 26.2125 42.1447 26.2715 41.968 26.3439C41.8305 26.3638 41.568 26.1686 41.3522 26.2933C41.1297 26.3723 41.1048 26.8427 40.8956 27.0131C40.4248 27.3148 39.8757 27.7213 39.3924 28.2583L39.1299 28.063C38.6925 28.5933 38.6225 29.3969 38.2375 29.9663C37.8526 30.5356 37.1593 30.9163 36.8268 31.5247C36.4944 32.1331 36.3653 32.852 36.0786 33.4537C35.792 34.0554 35.4662 34.7095 35.2254 35.3045C35.3946 34.8599 35.7587 33.8269 36.3261 32.9043C36.9327 31.9294 37.606 31.4115 37.9143 31.6001C38.0193 31.6782 38.3201 31.4945 38.4442 31.3831C38.9675 31.1204 39.6658 30.1321 40.5015 29.1239C40.6582 28.9145 41.0182 28.8155 41.2206 28.5994C41.1615 28.5147 41.1873 28.3709 41.1673 28.2338C41.154 28.1424 41.0815 27.9662 41.1273 27.9595C41.2648 27.9396 41.3106 27.9329 41.4156 28.011C41.9839 27.415 42.8872 27.1905 43.5671 26.7183C44.0771 26.3642 44.5212 25.8796 45.0836 25.5645C45.6461 25.2494 46.2352 25.1172 46.8568 24.8869C46.6735 24.9135 46.5952 25.0182 46.4185 25.0905Z" fill="#7D4E24"/>
<path d="M35.0335 35.2858C34.9943 35.3382 35.2763 35.344 35.2238 35.3049C35.1253 35.2724 34.9943 35.3382 35.0335 35.2858Z" fill="#7D4E24"/>
<path d="M39.6865 30.5967C39.6865 30.5967 39.7378 30.6348 39.6865 30.5967C39.7378 30.6348 39.6865 30.5967 39.6865 30.5967Z" fill="#7D4E24"/>
<path d="M39.4765 30.4398C39.4373 30.4922 39.4307 30.4465 39.3914 30.4989C39.4307 30.4465 39.4765 30.4398 39.4765 30.4398Z" fill="#7D4E24"/>
<path d="M39.6795 30.5512L39.6528 30.3682C39.7054 30.4072 39.6795 30.5512 39.6795 30.5512Z" fill="#7D4E24"/>
<path d="M34.3078 41.8768C34.0012 42.3414 33.6028 42.8194 33.2695 43.1012C32.9362 43.383 32.4712 43.4039 32.3137 43.2867C32.2087 43.2086 32.0904 43.0391 31.9596 43.1048C31.6912 43.1905 31.2988 43.3875 30.8671 43.6369C30.4355 43.8864 30.103 44.4948 29.5339 44.7642L29.468 44.6337C29.3372 44.6994 29.1272 44.5432 28.9964 44.6089C28.8589 44.6289 28.7414 44.786 28.6039 44.8059C28.5122 44.8192 28.5589 45.1392 28.4672 45.1525C28.3756 45.1658 28.2639 45.042 28.2181 45.0487C28.0806 45.0687 27.9631 45.2258 27.8256 45.2457C27.2689 45.2799 26.6789 45.0856 26.2723 44.8646C26.0689 44.7541 25.8131 44.6046 25.6948 44.4351C25.5764 44.2656 25.5364 43.9913 25.5489 43.7561C25.5281 43.2924 26.0181 42.8011 26.2789 42.3432C26.2072 42.4936 25.7622 42.6516 25.6781 43.0372C25.5939 43.4229 25.5689 43.8933 25.6156 44.2132C25.6689 44.5789 25.9515 44.9112 26.1748 45.1588C26.3981 45.4065 26.464 45.5369 26.399 45.7331C26.3731 45.8768 26.544 46.0854 26.7015 46.2026C26.9181 46.4045 27.4356 46.4226 28.0906 46.4208C28.1823 46.4075 28.2681 46.6751 28.3139 46.6684C28.4056 46.6551 28.4648 46.7399 28.5564 46.7265C28.7398 46.6999 28.9098 46.5819 29.0864 46.5095C29.1781 46.4962 29.0597 46.3267 29.1514 46.3134C29.1381 46.222 29.5247 46.3058 29.5572 46.2077C29.6289 46.0573 29.5764 46.0182 29.7731 46.083C29.9172 46.1088 30.1264 45.9383 30.1922 46.0688C30.238 46.0621 30.2255 46.2973 30.2714 46.2907C30.6247 46.146 30.9055 45.8251 31.1997 45.5957C31.4938 45.3663 31.6238 44.974 31.9113 44.6988C32.4471 44.2009 33.2454 43.8982 33.6762 43.3222C34.2961 42.4386 34.7519 41.3922 35.1752 40.4439C35.1752 40.4439 35.2211 40.4372 35.2144 40.3915C34.9927 40.7971 34.6536 41.3598 34.3078 41.8768Z" fill="#7D4E24"/>
<path d="M37.6368 39.3397C37.276 39.1121 36.7836 38.6236 36.3245 38.3637C36.2203 38.6121 36.0445 39.011 35.9404 39.2595C35.8362 39.508 35.6079 39.8678 35.458 40.123C35.6613 40.2334 36.1071 40.402 36.3104 40.5125C36.722 40.126 37.1661 39.6415 37.6368 39.3397Z" fill="#7D4E24"/>
<path d="M30.1917 37.7156C30.7942 37.6748 31.3184 37.7386 31.7509 37.8158C32.1443 37.9454 32.2951 38.0169 32.2759 38.2064C32.2501 38.3502 32.3751 38.5654 32.526 38.6369C32.6835 38.754 33.051 39.0274 33.3527 39.1703C33.4568 38.9217 33.3835 38.4189 33.4876 38.1703C33.5201 38.0722 33.886 37.6923 33.951 37.4961C33.2693 37.3151 32.4576 37.5264 31.7109 37.5416C30.9576 37.511 30.2767 37.6566 29.5567 37.8546C29.0134 37.9802 28.4767 38.1516 27.9533 38.4144C28.13 38.342 28.2933 38.1782 28.5158 38.0992C29 37.8888 29.5892 37.7565 30.1917 37.7156Z" fill="#7D4E24"/>
<path d="M38.0186 32.6578C37.3987 33.5412 36.8447 34.555 36.4972 34.4189C36.3464 34.3474 36.4056 34.4322 36.2814 34.5435C36.0265 34.7206 35.7849 34.989 35.4783 35.4536C35.1717 35.9181 34.8784 36.4741 34.651 37.1604L34.5068 37.1347C34.4352 37.2851 34.2652 37.4032 34.1936 37.5536C34.2269 37.7821 34.2736 38.102 34.1628 38.3047C33.9545 38.8017 33.6412 39.2205 33.4263 39.6717C33.4263 39.6717 33.4329 39.7174 33.4396 39.7631C33.303 40.1097 33.2713 40.5343 33.128 40.8351C32.8348 41.391 32.5482 41.9927 32.2024 42.5096C31.85 42.9808 31.3076 43.4329 30.8502 43.826C30.8894 43.7737 31.0135 43.6623 31.1376 43.5509C31.2618 43.4396 31.3793 43.2825 31.5426 43.1188C31.8692 42.7913 32.0774 42.2944 32.3974 41.9212C33.0306 41.1292 33.7879 40.2259 34.1353 40.3621C34.2862 40.4335 34.227 40.3488 34.3511 40.2374C34.5211 40.1194 34.7369 39.9947 34.9327 39.7329C34.9852 39.7719 35.241 39.9214 35.2868 39.9148C35.4817 39.3265 35.5784 38.7057 35.8716 38.1498L36.0616 38.1689C36.1333 38.0185 35.8116 37.7385 35.8766 37.5424C36.1107 36.9017 36.6989 36.4429 36.9855 35.8413C37.2263 35.2463 37.3096 34.5342 37.5962 33.9325C37.8828 33.3309 38.2219 32.7683 38.5151 32.2123C38.8542 31.6497 38.99 30.9767 39.3816 30.4531C39.14 30.7215 38.5859 31.7354 38.0186 32.6578Z" fill="#7D4E24"/>
<path d="M32.793 38.8769C32.3605 38.7997 31.7981 39.1148 31.2807 39.0966C30.7632 39.0784 30.3174 38.9098 29.8983 38.9241C29.5183 38.8859 29.1842 38.8411 29.1509 38.6126C29.085 38.4822 29.045 38.2079 28.855 38.1889C28.5667 38.1374 28.0235 38.263 27.4477 38.4867C26.8719 38.7103 26.2312 39.1301 25.6629 39.726C25.5063 39.9355 25.4021 40.184 25.2455 40.3934C25.2197 40.5372 25.2072 40.7723 25.083 40.8837C25.0372 40.8904 24.8797 40.7732 24.8339 40.7799C24.6839 41.035 24.6981 41.453 24.5548 41.7538C24.4506 42.0023 24.3007 42.2575 24.2423 42.4993C24.2948 42.5383 24.1249 42.6564 24.1382 42.7478C24.1649 42.9306 24.1582 42.8849 23.9816 42.9572L24.2374 43.1067C24.2907 43.4723 24.1932 43.7665 24.2399 44.0864C24.2732 44.3149 24.3066 44.5434 24.3858 44.7653C24.4649 44.9871 24.5049 45.2614 24.6233 45.4308C24.9124 45.8089 25.2541 46.2259 25.654 46.4012C26.0607 46.6221 26.5839 46.3594 26.9639 46.3976C27.2522 46.449 27.528 46.7357 27.803 46.6957C27.5672 46.6833 27.233 46.6385 26.8922 46.548C26.6039 46.4965 26.1981 46.6022 25.8965 46.4593C25.5949 46.3164 25.3515 45.9318 25.1215 45.6385C24.8524 45.3976 24.5766 45.1109 24.4841 44.7977C24.3916 44.4844 24.5807 44.1769 24.639 43.9351C24.6515 43.6999 24.579 43.5238 24.7032 43.4124C24.7815 43.3077 24.8473 43.4381 24.9456 43.4705C25.0898 43.4963 25.2331 43.1954 25.3114 43.0907C25.4681 42.8813 25.6505 42.5281 25.9247 42.1615C26.1988 41.795 26.6629 41.4476 27.107 40.963L27.1003 40.9173C27.5053 40.4851 28.0285 40.2224 28.5518 39.9597C29.0684 39.6513 29.5325 39.3039 30.1216 39.1716C30.7107 39.0394 31.3265 39.0899 31.8898 39.1014C32.3156 39.1329 32.813 39.014 33.2455 39.0912L33.278 38.9931C33.1405 39.0131 32.983 38.896 32.793 38.8769Z" fill="#7D4E24"/>
<path d="M30.8551 43.872L30.5205 43.8271C30.6323 43.9511 30.8618 43.9178 30.8551 43.872Z" fill="#7D4E24"/>
<path d="M30.9461 43.8576C30.9002 43.8643 30.8477 43.8252 30.8477 43.8252C30.8477 43.8252 30.9002 43.8643 30.9461 43.8576Z" fill="#7D4E24"/>
<path d="M28.1875 46.4531C28.2334 46.4464 28.0833 46.7018 28.1292 46.6952C28.0633 46.5646 28.1875 46.4531 28.1875 46.4531Z" fill="#7D4E24"/>
<path d="M28.2402 46.4912C28.2861 46.4845 28.503 46.6867 28.4964 46.6409C28.5356 46.5885 28.2928 46.5303 28.2402 46.4912Z" fill="#7D4E24"/>
<path d="M27.9717 46.5771C28.0635 46.5638 28.1227 46.6487 28.1686 46.642C28.1227 46.6487 28.0635 46.5638 27.9717 46.5771Z" fill="#7D4E24"/>
<path d="M27.455 38.5349C27.4092 38.5415 27.3892 38.4043 27.3892 38.4043C27.4417 38.4434 27.37 38.594 27.455 38.5349Z" fill="#7D4E24"/>
<path d="M27.5073 38.2464C27.4222 38.3055 27.5148 38.6191 27.4689 38.6258C27.5606 38.6124 27.4614 38.2531 27.5073 38.2464Z" fill="#7D4E24"/>
</g>
<defs>
<clipPath id="clip0_1692_2173">
<rect width="86.333" height="89.833" fill="white" transform="translate(27.3335 25.083)"/>
</clipPath>
</defs>
</svg>


