<svg width="32" height="32" viewBox="0 0 32 32" fill="none" xmlns="http://www.w3.org/2000/svg">
<path d="M13.9998 0.666992C6.65183 0.666992 0.666504 6.65232 0.666504 14.0003C0.666504 21.3483 6.65183 27.3337 13.9998 27.3337C21.3478 27.3337 27.3332 21.3483 27.3332 14.0003C27.3332 6.65232 21.3478 0.666992 13.9998 0.666992ZM13.9998 3.33366C19.9067 3.33366 24.6665 8.0935 24.6665 14.0003C24.6665 19.9072 19.9067 24.667 13.9998 24.667C8.09301 24.667 3.33317 19.9072 3.33317 14.0003C3.33317 8.0935 8.09301 3.33366 13.9998 3.33366ZM13.9998 6.00033C11.0532 6.00033 8.6665 8.38699 8.6665 11.3337H11.3332C11.3332 9.86699 12.5332 8.66699 13.9998 8.66699C15.4665 8.66699 16.6665 9.86699 16.6665 11.3337C16.6665 14.0003 12.6665 14.4897 12.6665 18.0003H15.3332C15.3332 15.799 19.3332 14.667 19.3332 11.3337C19.3332 8.38699 16.9465 6.00033 13.9998 6.00033ZM12.6665 19.3337V22.0003H15.3332V19.3337H12.6665Z" fill="white"/>
</svg>
