<svg width="32" height="32" viewBox="0 0 32 32" fill="none" xmlns="http://www.w3.org/2000/svg">
<path d="M15.9998 2.66699C8.65183 2.66699 2.6665 8.65232 2.6665 16.0003C2.6665 23.3483 8.65183 29.3337 15.9998 29.3337C23.3478 29.3337 29.3332 23.3483 29.3332 16.0003C29.3332 8.65232 23.3478 2.66699 15.9998 2.66699ZM15.9998 5.33366C21.9067 5.33366 26.6665 10.0935 26.6665 16.0003C26.6665 21.9072 21.9067 26.667 15.9998 26.667C10.093 26.667 5.33317 21.9072 5.33317 16.0003C5.33317 10.0935 10.093 5.33366 15.9998 5.33366ZM26.6665 16.0003L21.3332 10.667V14.667H13.3332V17.3337H21.3332V21.3337L26.6665 16.0003Z" fill="white"/>
</svg>
