<svg width="32" height="32" viewBox="0 0 32 32" fill="none" xmlns="http://www.w3.org/2000/svg">
<path d="M16 4C13.0703 4 10.6667 6.40361 10.6667 9.33333C10.6667 12.2631 13.0703 14.6667 16 14.6667C18.9297 14.6667 21.3333 12.2631 21.3333 9.33333C21.3333 6.40361 18.9297 4 16 4ZM16 6.66667C17.4886 6.66667 18.6667 7.84478 18.6667 9.33333C18.6667 10.8219 17.4886 12 16 12C14.5114 12 13.3333 10.8219 13.3333 9.33333C13.3333 7.84478 14.5114 6.66667 16 6.66667ZM16 18.6667C13.6734 18.6667 10.9162 19.213 8.59896 20.1276C7.44033 20.5849 6.39293 21.1281 5.55469 21.8255C4.71645 22.523 4 23.4658 4 24.6667V28H28V26.6667V24.6667C28 23.4658 27.2836 22.523 26.4453 21.8255C25.6071 21.1281 24.5597 20.5849 23.401 20.1276C21.0838 19.213 18.3266 18.6667 16 18.6667ZM16 21.3333C17.8854 21.3333 20.4614 21.832 22.4245 22.6068C23.406 22.9942 24.2359 23.456 24.7396 23.875C25.2432 24.294 25.3333 24.5795 25.3333 24.6667V25.3333H6.66667V24.6667C6.66667 24.5795 6.75678 24.294 7.26042 23.875C7.76405 23.456 8.59398 22.9942 9.57552 22.6068C11.5386 21.832 14.1146 21.3333 16 21.3333Z" fill="white"/>
</svg>

