<svg width="32" height="32" viewBox="0 0 32 32" fill="none" xmlns="http://www.w3.org/2000/svg">
<path d="M5.33317 5.33301C3.85984 5.33301 2.6665 6.52634 2.6665 7.99967V23.9997C2.6665 25.473 3.85984 26.6663 5.33317 26.6663H26.6665C28.1398 26.6663 29.3332 25.473 29.3332 23.9997V7.99967C29.3332 6.52634 28.1398 5.33301 26.6665 5.33301H5.33317ZM5.33317 7.99967H26.6665V23.9997H5.33317V7.99967ZM7.99984 10.6663V14.6663H11.9998V10.6663H7.99984ZM15.9998 11.9997V14.6663H23.9998V11.9997H15.9998ZM7.99984 18.6663V21.333H10.6665V18.6663H7.99984ZM11.9998 18.6663V21.333H14.6665V18.6663H11.9998ZM15.9998 18.6663V21.333H18.6665V18.6663H15.9998ZM19.9998 18.6663V21.333H22.6665V18.6663H19.9998Z" fill="white"/></svg>
