<svg width="179" height="183" viewBox="0 0 179 183" fill="none" xmlns="http://www.w3.org/2000/svg">
<path d="M165.69 114.397C167.59 107.397 177.589 101.297 177.589 93.7972C177.589 86.2975 167.59 80.0977 165.69 73.1979C163.79 65.9981 169.29 55.6984 165.69 49.3986C161.991 42.9988 150.292 42.6988 145.092 37.499C139.892 32.2991 139.592 20.5995 133.193 16.8996C126.893 13.2997 116.594 18.7996 109.395 16.8996C102.396 14.9997 96.296 5 88.7966 5C81.2972 5 75.0977 14.9997 68.1983 16.8996C60.9989 18.7996 50.6997 13.2997 44.4003 16.8996C38.0008 20.5995 37.7008 32.2991 32.5012 37.499C27.3017 42.6988 15.6026 42.9988 11.9029 49.3986C8.30322 55.6984 13.8028 65.9981 11.9029 73.1979C10.0031 80.0977 0.00390625 86.1975 0.00390625 93.7972C0.00390625 101.297 10.0031 107.497 11.9029 114.397C13.8028 121.596 8.30322 131.896 11.9029 138.196C15.6026 144.596 27.3017 144.896 32.5012 150.095C37.7008 155.295 38.0008 166.995 44.4003 170.695C50.6997 174.295 60.9989 168.795 68.1983 170.695C75.1977 172.595 81.2972 182.594 88.7966 182.594C96.296 182.594 102.495 172.595 109.395 170.695C116.594 168.795 126.893 174.295 133.193 170.695C139.592 166.995 139.892 155.295 145.092 150.095C150.292 144.896 161.991 144.596 165.69 138.196C169.29 131.896 163.79 121.596 165.69 114.397ZM88.7966 161.895C51.1997 161.895 20.6022 131.396 20.6022 93.6972C20.6022 56.0984 51.0997 25.4994 88.7966 25.4994C126.494 25.4994 156.991 55.9984 156.991 93.6972C156.891 131.396 126.394 161.895 88.7966 161.895Z" fill="#E1C08D"/>
<path d="M88.496 156.195C122.845 156.195 150.691 128.348 150.691 93.9969C150.691 59.6458 122.845 31.7988 88.496 31.7988C54.1467 31.7988 26.3011 59.6458 26.3011 93.9969C26.3011 128.348 54.1467 156.195 88.496 156.195Z" fill="#E1C08D"/>
<path d="M81.8474 71.533L57.2627 48.4438L55.195 50.6455L79.7798 73.7346L81.8474 71.533Z" fill="#969696"/>
<path d="M153.154 137.864L104.069 91.7651L92.4315 104.156L141.516 150.255L153.154 137.864Z" fill="#B2B792"/>
<path d="M113.607 78.8369L110.728 76.1331L81.0651 107.718L83.9441 110.422L113.607 78.8369Z" fill="#919970"/>
<path d="M154.758 162.797L152.5 160.676L164.747 147.636C165.283 148.14 165.819 148.643 166.356 149.147C166.581 149.359 166.779 149.545 167.005 149.757C167.43 150.209 167.477 150.838 167.053 151.289C166.498 151.937 165.86 152.559 165.25 153.209C162.758 155.862 160.24 158.543 157.748 161.197C157.351 161.62 156.927 162.072 156.529 162.495C156.449 162.58 156.37 162.664 156.29 162.749C155.893 163.172 155.209 163.221 154.758 162.797Z" fill="#5A6035"/>
<path d="M100.787 113.756C102.283 115.161 103.75 116.539 105.246 117.944C105.585 118.262 105.924 118.58 106.262 118.898C106.516 119.137 106.716 119.377 107.074 119.448C107.627 119.595 108.135 119.223 108.621 118.989C110.481 118.026 112.341 117.064 114.228 116.073C116.519 114.878 118.81 113.683 121.101 112.488C121.855 112.081 122.638 111.701 123.392 111.293C123.904 111.031 124.473 110.821 124.673 110.212C124.946 109.3 123.966 108.645 123.373 108.089C122.442 107.214 121.482 106.313 120.551 105.438C119.902 104.828 119.281 104.245 118.632 103.635C118.067 103.105 117.47 103.288 116.85 103.609C115.153 104.511 113.453 105.359 111.756 106.262C109.41 107.458 107.092 108.682 104.747 109.878C103.507 110.52 102.265 111.107 101.053 111.775C100.382 112.207 100.194 113.199 100.787 113.756Z" fill="#919970"/>
<path d="M147.057 130.384C145.561 128.979 144.093 127.601 142.597 126.196C142.258 125.878 141.92 125.56 141.581 125.242C141.327 125.003 141.128 124.763 140.769 124.692C140.217 124.545 139.708 124.917 139.222 125.151C137.362 126.114 135.502 127.076 133.616 128.067C131.325 129.262 129.034 130.457 126.743 131.652C125.988 132.059 125.206 132.44 124.452 132.847C123.939 133.109 123.371 133.319 123.171 133.928C122.898 134.841 123.877 135.495 124.47 136.051C125.401 136.926 126.361 137.827 127.292 138.702C127.942 139.312 128.563 139.895 129.212 140.505C129.776 141.035 130.373 140.852 130.993 140.531C132.691 139.629 134.39 138.781 136.088 137.878C138.433 136.682 140.751 135.458 143.097 134.262C144.337 133.62 145.578 133.033 146.79 132.365C147.488 131.905 147.678 130.968 147.057 130.384Z" fill="#919970"/>
<path d="M135.682 119.701C134.186 118.296 132.718 116.918 131.222 115.513C130.883 115.195 130.545 114.877 130.206 114.559C129.952 114.32 129.752 114.08 129.394 114.009C128.842 113.862 128.333 114.234 127.847 114.468C125.987 115.431 124.127 116.393 122.241 117.384C119.95 118.579 117.659 119.774 115.367 120.969C114.613 121.376 113.831 121.756 113.076 122.164C112.564 122.426 111.995 122.636 111.795 123.245C111.523 124.157 112.502 124.812 113.095 125.368C114.026 126.243 114.986 127.144 115.917 128.019C116.567 128.629 117.188 129.212 117.837 129.822C118.401 130.352 118.998 130.169 119.618 129.848C121.316 128.946 123.015 128.098 124.712 127.195C127.058 125.999 129.376 124.775 131.722 123.579C132.962 122.937 134.203 122.35 135.415 121.682C136.141 121.248 136.303 120.284 135.682 119.701Z" fill="#919970"/>
<path d="M160.525 141.44C159.583 141.086 158.64 140.732 157.774 140.184C157.075 139.74 156.428 139.185 155.835 138.629C154.791 137.648 153.774 136.694 152.73 135.713C151.968 134.997 151.244 135.485 150.516 135.864C149.465 136.418 148.359 136.973 147.308 137.526C144.371 139.071 141.405 140.588 138.467 142.132C137.524 142.627 136.526 143.124 135.583 143.62C135.449 143.706 135.286 143.766 135.152 143.852C134.371 144.288 134.319 145.248 134.94 145.831C136.917 147.742 138.976 149.622 140.98 151.504C141.629 152.114 142.279 152.724 142.956 153.36C143.972 154.314 144.72 155.441 145.28 156.711C145.574 157.36 145.84 157.981 146.377 158.485C147.336 159.386 148.27 160.316 149.228 161.162C150.073 161.903 151.305 161.892 152.129 161.071C152.235 160.958 152.341 160.845 152.447 160.733C154.302 158.757 156.158 156.781 158.013 154.805C160.002 152.688 161.99 150.571 163.978 148.454C164.667 147.72 165.411 146.985 165.047 145.846C164.862 145.194 164.356 144.772 163.876 144.321C163.283 143.764 162.69 143.208 162.097 142.651C161.644 142.172 161.191 141.693 160.525 141.44Z" fill="#919970"/>
<path d="M112.96 98.3619L100.682 86.8306L87.2947 101.085C88.8471 102.543 90.3995 104.001 91.9237 105.432C92.8269 106.28 93.7019 107.102 94.6052 107.95C95.1697 108.481 95.7077 109.039 96.5714 108.628C98.1629 107.839 99.7527 106.994 101.342 106.15C103.904 104.837 106.491 103.496 109.025 102.156C109.941 101.689 110.885 101.194 111.801 100.727C112.314 100.464 113.018 100.223 113.248 99.6951C113.453 99.2504 113.327 98.7065 112.96 98.3619Z" fill="#919970"/>
<path d="M89.9391 73.6078C89.431 73.1306 88.8434 72.7381 88.2045 72.4568L83.314 70.2544L79.4033 72.2125L77.7097 70.6219L80.8115 69.0727C80.3086 68.7598 79.8322 68.4186 79.3805 67.9945L78.7313 67.3848L75.8451 68.8176L74.1516 67.2271L77.0378 65.7942L75.2031 64.0712L72.3169 65.504L70.6233 63.9135L73.5096 62.4806L71.6184 60.7046L68.7322 62.1374L67.0386 60.5469L69.9249 59.114L68.0337 57.3379L65.1475 58.7708L63.4539 57.1803L66.3402 55.7474L64.449 53.9713L61.5628 55.4042L59.8693 53.8137L62.7555 52.3808L60.8644 50.6047L57.9781 52.0376L56.2846 50.4471L59.1708 49.0142L48.0498 38.5698C47.6546 38.1986 47.2065 37.884 46.7318 37.5975L11.9027 18.9115L14.5547 24.8551C18.974 34.7427 25.3081 43.6663 33.2113 51.0887L86.897 101.508L102.246 85.1656L89.9391 73.6078ZM47.2247 47.1974L42.3981 42.6644C41.6077 41.9222 41.5665 40.6086 42.3088 39.8182C43.051 39.0279 44.3647 38.9867 45.155 39.7289L49.9816 44.2619C50.7719 45.0042 50.8131 46.3178 50.0709 47.1081C49.3021 47.9267 48.015 47.9397 47.2247 47.1974Z" fill="#D6D6D6"/>
<path d="M23.2712 25.0199L11.9027 18.9116L14.5547 24.8551C18.974 34.7427 25.3081 43.6663 33.2114 51.0888L86.897 101.508L90.9528 97.1898C90.2754 96.5536 89.6262 95.9439 88.9488 95.3077C87.1706 93.6377 85.3641 91.9411 83.5859 90.2711C80.9891 87.8323 78.3923 85.3934 75.7955 82.9546C72.7471 80.0917 69.6705 77.2022 66.6221 74.3393C63.4044 71.3173 60.1866 68.2953 56.9689 65.2733C53.8922 62.3839 50.8438 59.5209 47.7672 56.6315C44.6059 53.6625 41.3634 50.7234 38.3346 47.6133C34.9937 44.1569 31.81 40.4764 29.1105 36.5067C27.4176 34.0669 25.9121 31.4843 24.6768 28.7836C24.1747 27.6215 23.6443 26.4327 23.3593 25.2089C23.2747 25.1294 23.273 25.0747 23.2712 25.0199Z" fill="#BABAB6"/>
<path d="M105.113 90.9925L103.532 89.5081L90.1454 103.762L91.7261 105.247L105.113 90.9925Z" fill="#757C4C"/>
</svg>
