<svg width="178" height="178" viewBox="0 0 178 178" fill="none" xmlns="http://www.w3.org/2000/svg">
<path d="M165.69 109.397C167.59 102.397 177.589 96.2972 177.589 88.7975C177.589 81.2977 167.59 75.0979 165.69 68.1981C163.79 60.9983 169.29 50.6987 165.69 44.3989C161.991 37.9991 150.292 37.6991 145.092 32.4992C139.892 27.2994 139.592 15.5998 133.193 11.8999C126.893 8.29999 116.594 13.7998 109.395 11.8999C102.396 9.99993 96.296 0.000244141 88.7966 0.000244141C81.2972 0.000244141 75.0977 9.99993 68.1983 11.8999C60.9989 13.7998 50.6997 8.29999 44.4003 11.8999C38.0008 15.5998 37.7008 27.2994 32.5012 32.4992C27.3017 37.6991 15.6026 37.9991 11.9029 44.3989C8.30322 50.6987 13.8028 60.9983 11.9029 68.1981C10.0031 75.0979 0.00390625 81.1977 0.00390625 88.7975C0.00390625 96.2972 10.0031 102.497 11.9029 109.397C13.8028 116.597 8.30322 126.896 11.9029 133.196C15.6026 139.596 27.3017 139.896 32.5012 145.096C37.7008 150.296 38.0008 161.995 44.4003 165.695C50.6997 169.295 60.9989 163.795 68.1983 165.695C75.1977 167.595 81.2972 177.595 88.7966 177.595C96.296 177.595 102.495 167.595 109.395 165.695C116.594 163.795 126.893 169.295 133.193 165.695C139.592 161.995 139.892 150.296 145.092 145.096C150.292 139.896 161.991 139.596 165.69 133.196C169.29 126.896 163.79 116.597 165.69 109.397ZM88.7966 156.895C51.1997 156.895 20.6022 126.396 20.6022 88.6975C20.6022 51.0986 51.0997 20.4996 88.7966 20.4996C126.494 20.4996 156.991 50.9987 156.991 88.6975C156.891 126.396 126.394 156.895 88.7966 156.895Z" fill="#E1C08D"/>
<path d="M88.496 151.195C122.845 151.195 150.691 123.348 150.691 88.9969C150.691 54.6458 122.845 26.7988 88.496 26.7988C54.1468 26.7988 26.3011 54.6458 26.3011 88.9969C26.3011 123.348 54.1468 151.195 88.496 151.195Z" fill="#E1C08D"/>
<g clip-path="url(#clip0_234_2)">
<path d="M63.2 110.6C63.9 114.5 66.9 117.3 70.5 117C71 117 71.3 116.3 70.9 116.3C67.2 116.3 63.8 110.6 64.7 106.5C62.2 106.9 60 107.9 57.5 108.3C57.2 109.5 58.3 110.7 59.5 111C60.7 111.3 62 110.9 63.2 110.6Z" fill="#3C3C3B"/>
<path d="M147.1 54.6999C148.2 53.8999 149.5 53.0999 151 52.9999C152 52.8999 152.8 53.2999 153.2 53.6999C153.6 54.1999 153.6 54.6999 153.6 55.2999C150 56.0999 146.4 56.9999 142.8 57.7999C144.2 56.7999 145.6 55.7999 147.1 54.6999Z" fill="#3C3C3B"/>
<path d="M156.591 57.5953L83.4376 75.8496L85.3986 83.7082L158.552 65.4539L156.591 57.5953Z" fill="#3C3C3B"/>
<path d="M156.685 65.3875L85.2784 83.2061L86.7068 88.9302L158.114 71.1117L156.685 65.3875Z" fill="#3C3C3B"/>
<path opacity="0.5" d="M157.566 61.4322L84.4133 79.6865L85.4302 83.7614L158.583 65.507L157.566 61.4322Z" fill="#1D1D1B"/>
<path opacity="0.1" d="M156.724 58.21L83.571 76.4644L84.0552 78.4048L157.208 60.1504L156.724 58.21Z" fill="white"/>
<path opacity="0.5" d="M157.44 68.2332L86.0328 86.0518L86.7349 88.8653L158.142 71.0468L157.44 68.2332Z" fill="#1D1D1B"/>
<path opacity="0.2" d="M156.743 58.1898L83.5895 76.4441L83.8316 77.4143L156.985 59.16L156.743 58.1898Z" fill="white"/>
<path opacity="0.1" d="M156.806 65.9134L85.3994 83.7319L85.6173 84.6051L157.024 66.7866L156.806 65.9134Z" fill="white"/>
<path opacity="0.5" d="M158.129 63.4881L84.9758 81.7424L85.4842 83.7799L158.637 65.5255L158.129 63.4881Z" fill="#1D1D1B"/>
<path d="M58.4001 80.4L48.2001 83L47.3 79.7L54 78L58.4001 80.4Z" fill="#3C3C3B"/>
<path d="M40.1 101.5L38.9 100L39.9 97.8C41 95.5 40.5 92.7 38.6 91C35.8 88.6 31.1 88.1 28.3 88.4L28.5 87.5C32.6 86.1 36 86.5 39.9 87.8C41.3 88.3 42.7 88.5 43.9 87.8L47.9 84.5L47.5 96.5L40.1 101.5Z" fill="#3C3C3B"/>
<path d="M44.3 81.7L44.7 85.9C45.4 92.5 42.3 98.9 36.7 102.5L32.5 105.2L48.8 112.4L53.1 111.3C53.3 113.6 54.2 118.8 58.7 120.8C61.2 121.9 64.1 122.3 67.5 121.5C68 121.4 68.5 121.2 69 121.1C72.5 120 74.7 118.1 75.6 115.5C76.4 113.1 76.2 110.4 75.8 108.3C75.5 106.9 76.4 105.6 77.7 105.2L83.8 103.7C86.1 103.1 87.8 101.1 88 98.7L88.4 92.5L83.2 72L44.3 81.7ZM74.3 115C73.6 117.2 71.6 118.8 68.6 119.8C64.9 121 61.9 120.7 59.4 119.7C57.5 118.9 56.4 117.5 55.6 115.9C54.5 113.5 55.8 110.7 58.4 110.1L71.3 106.9C72.8 106.5 74.3 107.5 74.5 109C74.8 110.7 75 113 74.3 115Z" fill="#706F6F"/>
<path d="M76.9101 76.9788L53.4313 82.8376L58.4912 103.115L81.97 97.256L76.9101 76.9788Z" fill="#3C3C3B"/>
<path d="M76.1821 78.1913L54.6437 83.5659L59.2194 101.903L80.7578 96.5281L76.1821 78.1913Z" fill="#9D9D9C"/>
<path d="M77.1 81.7998L78.1 85.8998L66.7 88.6998C65.6 88.9998 64.4 88.2998 64.2 87.1998C64.1 86.5998 64.2 86.0998 64.4 85.5998C64.7 85.0998 65.1 84.7998 65.7 84.5998L77.1 81.7998Z" fill="#706F6F"/>
<path d="M79.9001 93.1997L80.6001 95.7997L69.2001 98.5997C68.1001 98.8997 67.0001 98.4997 66.8001 97.7997C66.7001 97.3997 66.9001 96.9997 67.2001 96.6997C67.5001 96.3997 68.0001 96.0997 68.5001 95.8997L79.9001 93.1997Z" fill="#706F6F"/>
<path opacity="0.2" d="M77.1 81.7998L65.7 84.5998C65.1 84.6998 64.7 85.0998 64.4 85.5998C64.2 85.9998 64.1 86.4998 64.1 86.8998L77.5 83.5998L77.1 81.7998Z" fill="#1D1D1B"/>
<path opacity="0.2" d="M79.9 93.1997L68.6 95.9997C68 96.0997 67.6 96.3997 67.3 96.7997C67 97.0997 66.8 97.4997 66.9 97.8997L80.3 94.5997L79.9 93.1997Z" fill="#1D1D1B"/>
<path opacity="0.2" d="M79.1774 90.2077L57.6389 95.5823L59.2126 101.889L80.751 96.514L79.1774 90.2077Z" fill="#1D1D1B"/>
<path opacity="0.2" d="M77.8705 84.9721L56.332 90.3467L57.3246 94.3245L78.8631 88.9499L77.8705 84.9721Z" fill="white"/>
<path opacity="0.3" d="M76.3819 78.9296L54.8435 84.3042L55.2067 85.7595L76.7451 80.3849L76.3819 78.9296Z" fill="white"/>
<path d="M53.5 83.2998C50.3 85.7998 48.7 89.8998 49.8 94.0998C50.8 98.1998 54.2 101.2 58.2 101.9L53.5 83.2998Z" fill="#3C3C3B"/>
<path opacity="0.2" d="M49.9 94.4998C51 98.3998 54.3 101.2 58.1 101.9L57.1 97.9998C54.4 97.7998 51.7 96.5998 49.9 94.4998Z" fill="#1D1D1B"/>
<path opacity="0.15" d="M49.5 92.1999C49.5 92.4999 49.5 92.6999 49.6 92.9999C50.6 90.2999 52.2 87.7999 54.2 85.9999L53.8 84.3999C51.5 86.2999 49.9 88.8999 49.5 92.1999Z" fill="white"/>
<path opacity="0.05" d="M49.6 93.1999C49.6 93.4999 49.7 93.7999 49.8 94.0999C51.9 94.8999 54.3 94.9999 56.3 94.5999L55.3 90.5999C52.4 91.3999 51.4 92.2999 49.6 93.1999Z" fill="white"/>
<path d="M54.9001 148.4C47.5001 152.8 38.3001 155.4 28.9001 155.3C27.8001 155.3 26.8001 154.5 26.6001 153.5C18.9001 124.2 31.1001 123 32.6001 105.3C42.2001 98.7999 56.6001 105.1 54.1001 115.9C44.8001 119.8 49.2001 135.5 55.7001 145.1C56.5001 146.1 56.1001 147.6 54.9001 148.4Z" fill="#3C3C3B"/>
<path d="M41.1001 151C37.8001 151.8 34.5001 152.3 31.2001 152.4C30.0001 152.4 28.9001 151.6 28.7001 150.5C24.8001 134.3 27.7001 127.9 30.8001 121.1C32.5001 117.4 34.2001 113.5 35.0001 108.2C35.1001 107.3 35.7001 106.6 36.5001 106.3C37.0001 106.1 37.5001 105.9 38.1001 105.8C42.2001 104.8 46.8001 105.8 49.5001 108.4C50.4001 109.2 51.3001 110.5 51.6001 112.2C51.8001 113.2 51.4001 114.1 50.6001 114.7C48.8001 116.1 47.5001 118.1 46.8001 120.5C44.8001 127.4 47.9001 137 52.0001 144.1C52.7001 145.3 52.3001 147 51.0001 147.6C47.8001 149 44.5001 150.2 41.1001 151Z" fill="#575756"/>
<path d="M47.7169 78.6892L43.0599 79.8513L44.101 84.0232L48.7579 82.8611L47.7169 78.6892Z" fill="#3C3C3B"/>
<path d="M38.8432 143.819C40.0756 143.511 40.8253 142.263 40.5178 141.031C40.2103 139.798 38.9619 139.048 37.7295 139.356C36.4971 139.664 35.7473 140.912 36.0549 142.144C36.3624 143.377 37.6108 144.126 38.8432 143.819Z" fill="#3C3C3B"/>
<path d="M47.2407 101.159C47.9909 100.972 48.4473 100.212 48.2601 99.4619C48.0729 98.7117 47.313 98.2554 46.5629 98.4426C45.8127 98.6297 45.3563 99.3896 45.5435 100.14C45.7307 100.89 46.4906 101.346 47.2407 101.159Z" fill="#3C3C3B"/>
<path d="M74.1328 104.052C74.883 103.865 75.3394 103.105 75.1522 102.354C74.965 101.604 74.2051 101.148 73.455 101.335C72.7048 101.522 72.2484 102.282 72.4356 103.032C72.6228 103.783 73.3827 104.239 74.1328 104.052Z" fill="#3C3C3B"/>
<path d="M83.9518 75.1809L76.8694 76.9482L79.3388 86.8443L86.4213 85.077L83.9518 75.1809Z" fill="#575756"/>
<path d="M86.4504 85.1274L79.3679 86.8948L81.0626 93.6862L88.1451 91.9188L86.4504 85.1274Z" fill="#575756"/>
<path opacity="0.2" d="M85.3459 80.6907L78.2634 82.458L79.3771 86.9209L86.4595 85.1536L85.3459 80.6907Z" fill="#1D1D1B"/>
<path opacity="0.2" d="M87.2245 88.1782L80.1421 89.9456L81.0379 93.5353L88.1203 91.768L87.2245 88.1782Z" fill="#1D1D1B"/>
<path opacity="0.2" d="M84.2049 76.1619L77.1224 77.9292L77.6793 80.1607L84.7617 78.3933L84.2049 76.1619Z" fill="white"/>
<path d="M154.3 54.7999L82.5 72.5999L83.4 76.0999L156.6 57.7999L156.1 55.7999C155.9 55.0999 155.1 54.4999 154.3 54.7999ZM96.7 71.5999L86.9 73.9999C86.6 74.0999 86.2 73.8999 86.1 73.4999C86 73.1999 86.2 72.7999 86.6 72.6999L96.4 70.1999C96.7 70.0999 97.1 70.2999 97.2 70.6999C97.3 71.0999 97.1 71.4999 96.7 71.5999ZM115.3 66.9999L105.5 69.4999C105.2 69.5999 104.8 69.3999 104.7 68.9999C104.6 68.6999 104.8 68.2999 105.2 68.1999L115 65.6999C115.3 65.5999 115.7 65.7999 115.8 66.1999C115.8 66.4999 115.6 66.8999 115.3 66.9999ZM133.8 62.2999L124 64.7999C123.7 64.8999 123.3 64.6999 123.2 64.2999C123.1 63.9999 123.3 63.5999 123.7 63.4999L133.5 60.9999C133.8 60.8999 134.2 61.0999 134.3 61.4999C134.4 61.8999 134.2 62.1999 133.8 62.2999ZM152.4 57.6999L142.6 60.1999C142.3 60.2999 141.9 60.0999 141.8 59.6999C141.7 59.3999 141.9 58.9999 142.3 58.8999L152.1 56.3999C152.4 56.2999 152.8 56.4999 152.9 56.8999C152.9 57.2999 152.7 57.5999 152.4 57.6999Z" fill="#575756"/>
<path opacity="0.2" d="M45.5 116.2C37.8 130.2 56.1 146 34.5 155C41.9 154.3 49 151.9 54.9 148.4C56.1 147.7 56.5 146.1 55.7 144.9C49.2 135.3 44.7 119.6 54.1 115.7V115.6C54.9 117.6 56.3 119.7 58.7 120.8C61.2 121.9 64.1 122.3 67.5 121.5C68 121.4 68.5 121.2 69 121.1C72.5 120 74.7 118.1 75.6 115.5C76.4 113.1 76.2 110.4 75.8 108.3C75.5 106.9 76.4 105.6 77.7 105.2L83.8 103.7C86.1 103.1 87.8 101.1 88 98.7L88.1 97.2C70.6 101.5 52.6 103.3 45.5 116.2ZM74.3 115C73.6 117.2 71.6 118.8 68.6 119.8C64.9 121 61.9 120.7 59.4 119.7C57.5 118.9 56.4 117.5 55.6 115.9C54.5 113.5 55.8 110.7 58.4 110.1L71.3 106.9C72.8 106.5 74.3 107.5 74.5 109C74.8 110.7 75 113 74.3 115Z" fill="#1D1D1B"/>
</g>
<defs>
<clipPath id="clip0_234_2">
<rect width="134.5" height="102.2" fill="white" transform="translate(24 53)"/>
</clipPath>
</defs>
</svg>
